STARTFONT 2.1
FONT -cmvnd-lemon-medium-r-normal--20-140-100-100-m-100-ISO10646-1
SIZE 20 75 75
FONTBOUNDINGBOX 20 24 -4 -6
COMMENT "Generated by fontforge, http://fontforge.sourceforge.net"
COMMENT "This font was automatically resized by bdfresize-1.5"
COMMENT "mag_x = 2/1, mag_y = 2/1, blackness = 4"
STARTPROPERTIES 26
FONTNAME_REGISTRY ""
FOUNDRY "cmvnd"
FAMILY_NAME "lemon"
WEIGHT_NAME "medium"
SLANT "r"
SETWIDTH_NAME "normal"
ADD_STYLE_NAME ""
PIXEL_SIZE 20
POINT_SIZE 140
RESOLUTION_X 100
RESOLUTION_Y 100
SPACING "m"
AVERAGE_WIDTH 100
CHARSET_REGISTRY "ISO10646"
CHARSET_ENCODING "1"
COPYRIGHT "artwiz, fixed by aleczapka, improved by cmvnd"
FACE_NAME "lemon"
WEIGHT 10
X_HEIGHT 6
QUAD_WIDTH 5
_ORIGINAL_FONT_NAME "lime"
_GBDFED_INFO "Edited with gbdfed 1.6."
CHARSET_COLLECTIONS "ISO8859-2 ISO8859-5 ISO8859-9 ISO8859-4 ISO10646-1"
DEFAULT_CHAR 52
FONT_DESCENT 4
FONT_ASCENT 16
ENDPROPERTIES
CHARS 2749
STARTCHAR char32
ENCODING 32
SWIDTH 960 0
DWIDTH 10 0
BBX 0 0 0 0
BITMAP
ENDCHAR
STARTCHAR uni0021
ENCODING 33
SWIDTH 960 0
DWIDTH 10 0
BBX 2 12 4 0
BITMAP
C0
C0
C0
C0
C0
C0
C0
C0
00
00
C0
C0
ENDCHAR
STARTCHAR uni0022
ENCODING 34
SWIDTH 960 0
DWIDTH 10 0
BBX 6 6 2 8
BITMAP
CC
CC
CC
CC
CC
CC
ENDCHAR
STARTCHAR uni0023
ENCODING 35
SWIDTH 960 0
DWIDTH 10 0
BBX 10 10 0 0
BITMAP
3300
3300
F3C0
F3C0
3300
3300
F3C0
F3C0
3300
3300
ENDCHAR
STARTCHAR uni0053
ENCODING 36
SWIDTH 960 0
DWIDTH 10 0
BBX 8 14 2 0
BITMAP
0C
0C
3F
3F
C0
C0
3C
3C
03
03
FC
FC
0C
0C
ENDCHAR
STARTCHAR uni0025
ENCODING 37
SWIDTH 960 0
DWIDTH 10 0
BBX 8 12 2 0
BITMAP
F0
F0
F3
F3
0C
0C
30
30
CF
CF
0F
0F
ENDCHAR
STARTCHAR uni0026
ENCODING 38
SWIDTH 960 0
DWIDTH 10 0
BBX 10 12 0 0
BITMAP
3000
3000
CC00
CC00
3000
3000
CCC0
CCC0
C300
C300
3CC0
3CC0
ENDCHAR
STARTCHAR uni0027
ENCODING 39
SWIDTH 960 0
DWIDTH 10 0
BBX 2 6 4 8
BITMAP
C0
C0
C0
C0
C0
C0
ENDCHAR
STARTCHAR uni0028
ENCODING 40
SWIDTH 960 0
DWIDTH 10 0
BBX 6 16 4 -2
BITMAP
0C
0C
30
30
C0
C0
C0
C0
C0
C0
C0
C0
30
30
0C
0C
ENDCHAR
STARTCHAR uni0028
ENCODING 41
SWIDTH 960 0
DWIDTH 10 0
BBX 6 16 4 -2
BITMAP
C0
C0
30
30
0C
0C
0C
0C
0C
0C
0C
0C
30
30
C0
C0
ENDCHAR
STARTCHAR uni002A
ENCODING 42
SWIDTH 960 0
DWIDTH 10 0
BBX 8 10 2 0
BITMAP
C3
C3
3C
3C
FF
FF
3C
3C
C3
C3
ENDCHAR
STARTCHAR uni002B
ENCODING 43
SWIDTH 960 0
DWIDTH 10 0
BBX 10 10 0 2
BITMAP
0C00
0C00
0C00
0C00
FFC0
FFC0
0C00
0C00
0C00
0C00
ENDCHAR
STARTCHAR uni002C
ENCODING 44
SWIDTH 960 0
DWIDTH 10 0
BBX 4 6 2 -2
BITMAP
30
30
30
30
C0
C0
ENDCHAR
STARTCHAR uni002D
ENCODING 45
SWIDTH 960 0
DWIDTH 10 0
BBX 8 2 2 6
BITMAP
FF
FF
ENDCHAR
STARTCHAR uni002E
ENCODING 46
SWIDTH 960 0
DWIDTH 10 0
BBX 2 4 4 0
BITMAP
C0
C0
C0
C0
ENDCHAR
STARTCHAR uni002F
ENCODING 47
SWIDTH 960 0
DWIDTH 10 0
BBX 8 16 2 -2
BITMAP
03
03
03
03
0C
0C
0C
0C
30
30
30
30
C0
C0
C0
C0
ENDCHAR
STARTCHAR uni0030
ENCODING 48
SWIDTH 960 0
DWIDTH 10 0
BBX 8 12 2 0
BITMAP
3C
3C
C3
C3
F3
F3
CF
CF
C3
C3
3C
3C
ENDCHAR
STARTCHAR uni0031
ENCODING 49
SWIDTH 960 0
DWIDTH 10 0
BBX 4 12 2 0
BITMAP
30
30
F0
F0
30
30
30
30
30
30
30
30
ENDCHAR
STARTCHAR uni0032
ENCODING 50
SWIDTH 960 0
DWIDTH 10 0
BBX 8 12 2 0
BITMAP
FC
FC
03
03
03
03
3C
3C
C0
C0
FF
FF
ENDCHAR
STARTCHAR uni0033
ENCODING 51
SWIDTH 960 0
DWIDTH 10 0
BBX 8 12 2 0
BITMAP
FC
FC
03
03
3C
3C
03
03
03
03
FC
FC
ENDCHAR
STARTCHAR uni0034
ENCODING 52
SWIDTH 960 0
DWIDTH 10 0
BBX 8 12 2 0
BITMAP
C3
C3
C3
C3
C3
C3
3F
3F
03
03
03
03
ENDCHAR
STARTCHAR uni0035
ENCODING 53
SWIDTH 960 0
DWIDTH 10 0
BBX 8 12 2 0
BITMAP
FF
FF
C0
C0
FC
FC
03
03
03
03
FC
FC
ENDCHAR
STARTCHAR uni0036
ENCODING 54
SWIDTH 960 0
DWIDTH 10 0
BBX 8 12 2 0
BITMAP
3C
3C
C0
C0
FC
FC
C3
C3
C3
C3
3C
3C
ENDCHAR
STARTCHAR uni0037
ENCODING 55
SWIDTH 960 0
DWIDTH 10 0
BBX 8 12 2 0
BITMAP
FF
FF
03
03
0C
0C
0C
0C
30
30
30
30
ENDCHAR
STARTCHAR uni0038
ENCODING 56
SWIDTH 960 0
DWIDTH 10 0
BBX 8 12 2 0
BITMAP
3C
3C
C3
C3
3C
3C
C3
C3
C3
C3
3C
3C
ENDCHAR
STARTCHAR uni0039
ENCODING 57
SWIDTH 960 0
DWIDTH 10 0
BBX 8 12 2 0
BITMAP
3C
3C
C3
C3
C3
C3
3F
3F
03
03
3C
3C
ENDCHAR
STARTCHAR uni003A
ENCODING 58
SWIDTH 960 0
DWIDTH 10 0
BBX 2 10 4 0
BITMAP
C0
C0
C0
C0
00
00
C0
C0
C0
C0
ENDCHAR
STARTCHAR uni003B
ENCODING 59
SWIDTH 960 0
DWIDTH 10 0
BBX 4 12 2 -2
BITMAP
30
30
30
30
00
00
30
30
30
30
C0
C0
ENDCHAR
STARTCHAR uni003C
ENCODING 60
SWIDTH 960 0
DWIDTH 10 0
BBX 6 10 2 0
BITMAP
0C
0C
30
30
C0
C0
30
30
0C
0C
ENDCHAR
STARTCHAR uni003D
ENCODING 61
SWIDTH 960 0
DWIDTH 10 0
BBX 6 6 2 4
BITMAP
FC
FC
00
00
FC
FC
ENDCHAR
STARTCHAR uni003E
ENCODING 62
SWIDTH 960 0
DWIDTH 10 0
BBX 6 10 4 0
BITMAP
C0
C0
30
30
0C
0C
30
30
C0
C0
ENDCHAR
STARTCHAR uni003F
ENCODING 63
SWIDTH 960 0
DWIDTH 10 0
BBX 6 12 2 0
BITMAP
FC
FC
CC
CC
0C
0C
30
30
00
00
30
30
ENDCHAR
STARTCHAR uni0040
ENCODING 64
SWIDTH 960 0
DWIDTH 10 0
BBX 8 12 2 0
BITMAP
3C
3C
C3
C3
CF
CF
CF
CF
C0
C0
3F
3F
ENDCHAR
STARTCHAR uni0041
ENCODING 65
SWIDTH 960 0
DWIDTH 10 0
BBX 8 12 2 0
BITMAP
3C
3C
C3
C3
C3
C3
FF
FF
C3
C3
C3
C3
ENDCHAR
STARTCHAR uni0042
ENCODING 66
SWIDTH 960 0
DWIDTH 10 0
BBX 8 12 2 0
BITMAP
FC
FC
C3
C3
FC
FC
C3
C3
C3
C3
FC
FC
ENDCHAR
STARTCHAR uni0043
ENCODING 67
SWIDTH 960 0
DWIDTH 10 0
BBX 8 12 2 0
BITMAP
3F
3F
C0
C0
C0
C0
C0
C0
C0
C0
3F
3F
ENDCHAR
STARTCHAR uni0044
ENCODING 68
SWIDTH 960 0
DWIDTH 10 0
BBX 8 12 2 0
BITMAP
FC
FC
C3
C3
C3
C3
C3
C3
C3
C3
FC
FC
ENDCHAR
STARTCHAR uni0045
ENCODING 69
SWIDTH 960 0
DWIDTH 10 0
BBX 8 12 2 0
BITMAP
FF
FF
C0
C0
FC
FC
C0
C0
C0
C0
FF
FF
ENDCHAR
STARTCHAR uni0046
ENCODING 70
SWIDTH 960 0
DWIDTH 10 0
BBX 8 12 2 0
BITMAP
FF
FF
C0
C0
FC
FC
C0
C0
C0
C0
C0
C0
ENDCHAR
STARTCHAR uni0047
ENCODING 71
SWIDTH 960 0
DWIDTH 10 0
BBX 8 12 2 0
BITMAP
3F
3F
C0
C0
C0
C0
CF
CF
C3
C3
3F
3F
ENDCHAR
STARTCHAR uni0048
ENCODING 72
SWIDTH 960 0
DWIDTH 10 0
BBX 8 12 2 0
BITMAP
C3
C3
C3
C3
FF
FF
C3
C3
C3
C3
C3
C3
ENDCHAR
STARTCHAR uni0049
ENCODING 73
SWIDTH 960 0
DWIDTH 10 0
BBX 6 12 2 0
BITMAP
FC
FC
30
30
30
30
30
30
30
30
FC
FC
ENDCHAR
STARTCHAR uni004A
ENCODING 74
SWIDTH 960 0
DWIDTH 10 0
BBX 8 12 2 0
BITMAP
3F
3F
03
03
03
03
03
03
C3
C3
3C
3C
ENDCHAR
STARTCHAR uni004B
ENCODING 75
SWIDTH 960 0
DWIDTH 10 0
BBX 8 12 2 0
BITMAP
C3
C3
CC
CC
F0
F0
CC
CC
C3
C3
C3
C3
ENDCHAR
STARTCHAR uni004C
ENCODING 76
SWIDTH 960 0
DWIDTH 10 0
BBX 8 12 2 0
BITMAP
C0
C0
C0
C0
C0
C0
C0
C0
C0
C0
FF
FF
ENDCHAR
STARTCHAR uni004D
ENCODING 77
SWIDTH 960 0
DWIDTH 10 0
BBX 8 12 2 0
BITMAP
C3
C3
FF
FF
FF
FF
C3
C3
C3
C3
C3
C3
ENDCHAR
STARTCHAR uni004E
ENCODING 78
SWIDTH 960 0
DWIDTH 10 0
BBX 8 12 2 0
BITMAP
C3
C3
F3
F3
F3
F3
CF
CF
CF
CF
C3
C3
ENDCHAR
STARTCHAR uni004F
ENCODING 79
SWIDTH 960 0
DWIDTH 10 0
BBX 8 12 2 0
BITMAP
3C
3C
C3
C3
C3
C3
C3
C3
C3
C3
3C
3C
ENDCHAR
STARTCHAR uni0050
ENCODING 80
SWIDTH 960 0
DWIDTH 10 0
BBX 8 12 2 0
BITMAP
FC
FC
C3
C3
C3
C3
FC
FC
C0
C0
C0
C0
ENDCHAR
STARTCHAR uni0051
ENCODING 81
SWIDTH 960 0
DWIDTH 10 0
BBX 8 14 2 -2
BITMAP
3C
3C
C3
C3
C3
C3
C3
C3
C3
C3
3C
3C
0F
0F
ENDCHAR
STARTCHAR uni0052
ENCODING 82
SWIDTH 960 0
DWIDTH 10 0
BBX 8 12 2 0
BITMAP
FC
FC
C3
C3
C3
C3
FC
FC
C3
C3
C3
C3
ENDCHAR
STARTCHAR uni0053
ENCODING 83
SWIDTH 960 0
DWIDTH 10 0
BBX 8 12 2 0
BITMAP
3F
3F
C0
C0
3C
3C
03
03
03
03
FC
FC
ENDCHAR
STARTCHAR uni0054
ENCODING 84
SWIDTH 960 0
DWIDTH 10 0
BBX 10 12 0 0
BITMAP
FFC0
FFC0
0C00
0C00
0C00
0C00
0C00
0C00
0C00
0C00
0C00
0C00
ENDCHAR
STARTCHAR uni0055
ENCODING 85
SWIDTH 960 0
DWIDTH 10 0
BBX 8 12 2 0
BITMAP
C3
C3
C3
C3
C3
C3
C3
C3
C3
C3
3F
3F
ENDCHAR
STARTCHAR uni0056
ENCODING 86
SWIDTH 960 0
DWIDTH 10 0
BBX 8 12 2 0
BITMAP
C3
C3
C3
C3
C3
C3
3C
3C
3C
3C
3C
3C
ENDCHAR
STARTCHAR uni0057
ENCODING 87
SWIDTH 960 0
DWIDTH 10 0
BBX 8 12 2 0
BITMAP
C3
C3
C3
C3
C3
C3
FF
FF
FF
FF
C3
C3
ENDCHAR
STARTCHAR uni0058
ENCODING 88
SWIDTH 960 0
DWIDTH 10 0
BBX 8 12 2 0
BITMAP
C3
C3
C3
C3
3C
3C
C3
C3
C3
C3
C3
C3
ENDCHAR
STARTCHAR uni0059
ENCODING 89
SWIDTH 960 0
DWIDTH 10 0
BBX 10 12 0 0
BITMAP
C0C0
C0C0
3300
3300
0C00
0C00
0C00
0C00
0C00
0C00
0C00
0C00
ENDCHAR
STARTCHAR uni005A
ENCODING 90
SWIDTH 960 0
DWIDTH 10 0
BBX 8 12 2 0
BITMAP
FF
FF
03
03
0C
0C
30
30
C0
C0
FF
FF
ENDCHAR
STARTCHAR uni005B
ENCODING 91
SWIDTH 960 0
DWIDTH 10 0
BBX 6 16 2 -2
BITMAP
FC
FC
C0
C0
C0
C0
C0
C0
C0
C0
C0
C0
C0
C0
FC
FC
ENDCHAR
STARTCHAR uni005C
ENCODING 92
SWIDTH 960 0
DWIDTH 10 0
BBX 8 16 2 -2
BITMAP
C0
C0
C0
C0
30
30
30
30
0C
0C
0C
0C
03
03
03
03
ENDCHAR
STARTCHAR uni005D
ENCODING 93
SWIDTH 960 0
DWIDTH 10 0
BBX 6 16 2 -2
BITMAP
FC
FC
0C
0C
0C
0C
0C
0C
0C
0C
0C
0C
0C
0C
FC
FC
ENDCHAR
STARTCHAR uni005E
ENCODING 94
SWIDTH 960 0
DWIDTH 10 0
BBX 10 6 0 8
BITMAP
0C00
0C00
3300
3300
C0C0
C0C0
ENDCHAR
STARTCHAR uni005F
ENCODING 95
SWIDTH 960 0
DWIDTH 10 0
BBX 8 2 2 -2
BITMAP
FF
FF
ENDCHAR
STARTCHAR uni0060
ENCODING 96
SWIDTH 960 0
DWIDTH 10 0
BBX 4 6 4 8
BITMAP
C0
C0
C0
C0
30
30
ENDCHAR
STARTCHAR uni0061
ENCODING 97
SWIDTH 960 0
DWIDTH 10 0
BBX 8 10 2 0
BITMAP
3F
3F
C3
C3
C3
C3
CF
CF
33
33
ENDCHAR
STARTCHAR uni0062
ENCODING 98
SWIDTH 960 0
DWIDTH 10 0
BBX 8 14 2 0
BITMAP
C0
C0
C0
C0
FC
FC
C3
C3
C3
C3
C3
C3
FC
FC
ENDCHAR
STARTCHAR uni0063
ENCODING 99
SWIDTH 960 0
DWIDTH 10 0
BBX 8 10 2 0
BITMAP
3F
3F
C0
C0
C0
C0
C0
C0
3F
3F
ENDCHAR
STARTCHAR uni0064
ENCODING 100
SWIDTH 960 0
DWIDTH 10 0
BBX 8 14 2 0
BITMAP
03
03
03
03
3F
3F
C3
C3
C3
C3
CF
CF
33
33
ENDCHAR
STARTCHAR uni0065
ENCODING 101
SWIDTH 960 0
DWIDTH 10 0
BBX 8 10 2 0
BITMAP
3C
3C
C3
C3
FF
FF
C0
C0
3F
3F
ENDCHAR
STARTCHAR uni0066
ENCODING 102
SWIDTH 960 0
DWIDTH 10 0
BBX 6 14 4 0
BITMAP
3C
3C
C0
C0
FC
FC
C0
C0
C0
C0
C0
C0
C0
C0
ENDCHAR
STARTCHAR uni0067
ENCODING 103
SWIDTH 960 0
DWIDTH 10 0
BBX 8 14 2 -4
BITMAP
3F
3F
C3
C3
C3
C3
CF
CF
33
33
03
03
3C
3C
ENDCHAR
STARTCHAR uni0068
ENCODING 104
SWIDTH 960 0
DWIDTH 10 0
BBX 8 14 2 0
BITMAP
C0
C0
C0
C0
FC
FC
C3
C3
C3
C3
C3
C3
C3
C3
ENDCHAR
STARTCHAR uni0069
ENCODING 105
SWIDTH 960 0
DWIDTH 10 0
BBX 4 14 4 0
BITMAP
30
30
00
00
F0
F0
30
30
30
30
30
30
30
30
ENDCHAR
STARTCHAR uni006A
ENCODING 106
SWIDTH 960 0
DWIDTH 10 0
BBX 6 18 2 -4
BITMAP
0C
0C
00
00
3C
3C
0C
0C
0C
0C
0C
0C
0C
0C
0C
0C
F0
F0
ENDCHAR
STARTCHAR uni006B
ENCODING 107
SWIDTH 960 0
DWIDTH 10 0
BBX 8 14 2 0
BITMAP
C0
C0
C0
C0
C3
C3
CC
CC
FC
FC
C3
C3
C3
C3
ENDCHAR
STARTCHAR uni006C
ENCODING 108
SWIDTH 960 0
DWIDTH 10 0
BBX 4 14 4 0
BITMAP
F0
F0
30
30
30
30
30
30
30
30
30
30
30
30
ENDCHAR
STARTCHAR uni006D
ENCODING 109
SWIDTH 960 0
DWIDTH 10 0
BBX 8 10 2 0
BITMAP
C3
C3
FF
FF
CF
CF
C3
C3
C3
C3
ENDCHAR
STARTCHAR uni006E
ENCODING 110
SWIDTH 960 0
DWIDTH 10 0
BBX 8 10 2 0
BITMAP
FC
FC
C3
C3
C3
C3
C3
C3
C3
C3
ENDCHAR
STARTCHAR uni006F
ENCODING 111
SWIDTH 960 0
DWIDTH 10 0
BBX 8 10 2 0
BITMAP
3C
3C
C3
C3
C3
C3
C3
C3
3C
3C
ENDCHAR
STARTCHAR uni0070
ENCODING 112
SWIDTH 960 0
DWIDTH 10 0
BBX 8 14 2 -4
BITMAP
FC
FC
C3
C3
C3
C3
C3
C3
FC
FC
C0
C0
C0
C0
ENDCHAR
STARTCHAR uni0071
ENCODING 113
SWIDTH 960 0
DWIDTH 10 0
BBX 8 14 2 -4
BITMAP
3F
3F
C3
C3
C3
C3
C3
C3
3F
3F
03
03
03
03
ENDCHAR
STARTCHAR uni0072
ENCODING 114
SWIDTH 960 0
DWIDTH 10 0
BBX 8 10 2 0
BITMAP
CF
CF
F0
F0
C0
C0
C0
C0
C0
C0
ENDCHAR
STARTCHAR uni0073
ENCODING 115
SWIDTH 960 0
DWIDTH 10 0
BBX 8 10 2 0
BITMAP
3F
3F
C0
C0
3C
3C
03
03
FC
FC
ENDCHAR
STARTCHAR uni0074
ENCODING 116
SWIDTH 960 0
DWIDTH 10 0
BBX 6 12 2 0
BITMAP
30
30
FC
FC
30
30
30
30
30
30
0C
0C
ENDCHAR
STARTCHAR uni0075
ENCODING 117
SWIDTH 960 0
DWIDTH 10 0
BBX 8 10 2 0
BITMAP
C3
C3
C3
C3
C3
C3
C3
C3
3F
3F
ENDCHAR
STARTCHAR uni0076
ENCODING 118
SWIDTH 960 0
DWIDTH 10 0
BBX 8 10 2 0
BITMAP
C3
C3
C3
C3
C3
C3
3C
3C
3C
3C
ENDCHAR
STARTCHAR uni0077
ENCODING 119
SWIDTH 960 0
DWIDTH 10 0
BBX 8 10 2 0
BITMAP
C3
C3
C3
C3
C3
C3
FF
FF
C3
C3
ENDCHAR
STARTCHAR uni0078
ENCODING 120
SWIDTH 960 0
DWIDTH 10 0
BBX 8 10 2 0
BITMAP
C3
C3
C3
C3
3C
3C
C3
C3
C3
C3
ENDCHAR
STARTCHAR uni0079
ENCODING 121
SWIDTH 960 0
DWIDTH 10 0
BBX 8 14 2 -4
BITMAP
C3
C3
C3
C3
C3
C3
C3
C3
3F
3F
03
03
3C
3C
ENDCHAR
STARTCHAR uni007A
ENCODING 122
SWIDTH 960 0
DWIDTH 10 0
BBX 8 10 2 0
BITMAP
FF
FF
0C
0C
30
30
C0
C0
FF
FF
ENDCHAR
STARTCHAR uni007B
ENCODING 123
SWIDTH 960 0
DWIDTH 10 0
BBX 6 16 2 -2
BITMAP
0C
0C
30
30
30
30
F0
F0
F0
F0
30
30
30
30
0C
0C
ENDCHAR
STARTCHAR uni007C
ENCODING 124
SWIDTH 960 0
DWIDTH 10 0
BBX 2 16 4 -2
BITMAP
C0
C0
C0
C0
C0
C0
C0
C0
C0
C0
C0
C0
C0
C0
C0
C0
ENDCHAR
STARTCHAR uni007D
ENCODING 125
SWIDTH 960 0
DWIDTH 10 0
BBX 6 16 4 -2
BITMAP
C0
C0
30
30
30
30
3C
3C
3C
3C
30
30
30
30
C0
C0
ENDCHAR
STARTCHAR uni007E
ENCODING 126
SWIDTH 960 0
DWIDTH 10 0
BBX 10 8 0 2
BITMAP
3000
3000
CCC0
CCC0
CCC0
CCC0
0300
0300
ENDCHAR
STARTCHAR char149
ENCODING 149
SWIDTH 960 0
DWIDTH 10 0
BBX 8 8 2 0
BITMAP
3C
3C
FF
FF
FF
FF
3C
3C
ENDCHAR
STARTCHAR char161
ENCODING 161
SWIDTH 960 0
DWIDTH 10 0
BBX 2 12 4 0
BITMAP
C0
C0
00
00
C0
C0
C0
C0
C0
C0
C0
C0
ENDCHAR
STARTCHAR char162
ENCODING 162
SWIDTH 960 0
DWIDTH 10 0
BBX 8 14 0 -2
BITMAP
03
03
3F
3F
CC
CC
CC
CC
CC
CC
3F
3F
30
30
ENDCHAR
STARTCHAR char163
ENCODING 163
SWIDTH 960 0
DWIDTH 10 0
BBX 10 14 0 0
BITMAP
0F00
0F00
3000
3000
3000
3000
FC00
FC00
3000
3000
30C0
30C0
FF00
FF00
ENDCHAR
STARTCHAR char164
ENCODING 164
SWIDTH 960 0
DWIDTH 10 0
BBX 10 12 0 0
BITMAP
C0C0
C0C0
3F00
3F00
3300
3300
3300
3300
3F00
3F00
C0C0
C0C0
ENDCHAR
STARTCHAR char165
ENCODING 165
SWIDTH 960 0
DWIDTH 10 0
BBX 10 14 0 0
BITMAP
C0C0
C0C0
3300
3300
0C00
0C00
3F00
3F00
0C00
0C00
3F00
3F00
0C00
0C00
ENDCHAR
STARTCHAR char166
ENCODING 166
SWIDTH 960 0
DWIDTH 10 0
BBX 2 14 4 -2
BITMAP
C0
C0
C0
C0
C0
C0
00
00
C0
C0
C0
C0
C0
C0
ENDCHAR
STARTCHAR char167
ENCODING 167
SWIDTH 960 0
DWIDTH 10 0
BBX 8 16 0 -2
BITMAP
0F
0F
30
30
3C
3C
C3
C3
C3
C3
3C
3C
0C
0C
F0
F0
ENDCHAR
STARTCHAR char168
ENCODING 168
SWIDTH 960 0
DWIDTH 10 0
BBX 6 2 2 10
BITMAP
FC
FC
ENDCHAR
STARTCHAR char169
ENCODING 169
SWIDTH 960 0
DWIDTH 10 0
BBX 12 14 0 0
BITMAP
3FC0
3FC0
C030
C030
CF30
CF30
CC30
CC30
CF30
CF30
C030
C030
3FC0
3FC0
ENDCHAR
STARTCHAR char170
ENCODING 170
SWIDTH 960 0
DWIDTH 10 0
BBX 8 8 2 4
BITMAP
3F
3F
C3
C3
C3
C3
3F
3F
ENDCHAR
STARTCHAR char171
ENCODING 171
SWIDTH 960 0
DWIDTH 10 0
BBX 8 6 2 4
BITMAP
33
33
CC
CC
33
33
ENDCHAR
STARTCHAR char172
ENCODING 172
SWIDTH 960 0
DWIDTH 10 0
BBX 10 6 0 2
BITMAP
FFC0
FFC0
00C0
00C0
00C0
00C0
ENDCHAR
STARTCHAR SOFT
ENCODING 173
SWIDTH 960 0
DWIDTH 10 0
BBX 6 2 2 4
BITMAP
FC
FC
ENDCHAR
STARTCHAR char174
ENCODING 174
SWIDTH 960 0
DWIDTH 10 0
BBX 12 14 0 0
BITMAP
3FC0
3FC0
C030
C030
CFF0
CFF0
CF30
CF30
CCF0
CCF0
C030
C030
3FC0
3FC0
ENDCHAR
STARTCHAR char175
ENCODING 175
SWIDTH 960 0
DWIDTH 10 0
BBX 6 2 2 12
BITMAP
FC
FC
ENDCHAR
STARTCHAR char176
ENCODING 176
SWIDTH 960 0
DWIDTH 10 0
BBX 6 6 2 6
BITMAP
30
30
CC
CC
30
30
ENDCHAR
STARTCHAR char177
ENCODING 177
SWIDTH 960 0
DWIDTH 10 0
BBX 6 10 2 0
BITMAP
30
30
FC
FC
30
30
00
00
FC
FC
ENDCHAR
STARTCHAR char178
ENCODING 178
SWIDTH 960 0
DWIDTH 10 0
BBX 6 10 2 4
BITMAP
F0
F0
0C
0C
30
30
C0
C0
FC
FC
ENDCHAR
STARTCHAR char179
ENCODING 179
SWIDTH 960 0
DWIDTH 10 0
BBX 6 10 2 4
BITMAP
F0
F0
0C
0C
F0
F0
0C
0C
F0
F0
ENDCHAR
STARTCHAR char180
ENCODING 180
SWIDTH 960 0
DWIDTH 10 0
BBX 4 4 2 12
BITMAP
30
30
C0
C0
ENDCHAR
STARTCHAR char181
ENCODING 181
SWIDTH 960 0
DWIDTH 10 0
BBX 8 12 2 -2
BITMAP
C3
C3
C3
C3
C3
C3
C3
C3
FC
FC
C0
C0
ENDCHAR
STARTCHAR char182
ENCODING 182
SWIDTH 960 0
DWIDTH 10 0
BBX 10 12 0 0
BITMAP
3FC0
3FC0
CCC0
CCC0
CCC0
CCC0
3CC0
3CC0
0CC0
0CC0
0CC0
0CC0
ENDCHAR
STARTCHAR char183
ENCODING 183
SWIDTH 960 0
DWIDTH 10 0
BBX 4 4 4 4
BITMAP
F0
F0
F0
F0
ENDCHAR
STARTCHAR char184
ENCODING 184
SWIDTH 960 0
DWIDTH 10 0
BBX 6 6 2 2
BITMAP
30
30
0C
0C
FC
FC
ENDCHAR
STARTCHAR char185
ENCODING 185
SWIDTH 960 0
DWIDTH 10 0
BBX 4 8 2 4
BITMAP
30
30
F0
F0
30
30
30
30
ENDCHAR
STARTCHAR char186
ENCODING 186
SWIDTH 960 0
DWIDTH 10 0
BBX 8 8 0 8
BITMAP
3C
3C
C3
C3
C3
C3
3C
3C
ENDCHAR
STARTCHAR char187
ENCODING 187
SWIDTH 960 0
DWIDTH 10 0
BBX 8 6 2 4
BITMAP
CC
CC
33
33
CC
CC
ENDCHAR
STARTCHAR char188
ENCODING 188
SWIDTH 960 0
DWIDTH 10 0
BBX 10 16 2 0
BITMAP
3000
3000
F000
F000
3000
3000
3300
3300
0F00
0F00
3300
3300
3FC0
3FC0
0300
0300
ENDCHAR
STARTCHAR char189
ENCODING 189
SWIDTH 960 0
DWIDTH 10 0
BBX 10 14 2 2
BITMAP
3000
3000
F000
F000
3000
3000
3F00
3F00
00C0
00C0
0300
0300
0FC0
0FC0
ENDCHAR
STARTCHAR char190
ENCODING 190
SWIDTH 960 0
DWIDTH 10 0
BBX 12 16 0 0
BITMAP
F000
F000
0C00
0C00
3000
3000
0CC0
0CC0
F3C0
F3C0
0CC0
0CC0
0FF0
0FF0
00C0
00C0
ENDCHAR
STARTCHAR char191
ENCODING 191
SWIDTH 960 0
DWIDTH 10 0
BBX 6 12 4 0
BITMAP
30
30
00
00
30
30
C0
C0
CC
CC
FC
FC
ENDCHAR
STARTCHAR char192
ENCODING 192
SWIDTH 960 0
DWIDTH 10 0
BBX 8 16 2 0
BITMAP
30
30
0C
0C
3C
3C
C3
C3
C3
C3
FF
FF
C3
C3
C3
C3
ENDCHAR
STARTCHAR char193
ENCODING 193
SWIDTH 960 0
DWIDTH 10 0
BBX 8 16 2 0
BITMAP
0C
0C
30
30
3C
3C
C3
C3
C3
C3
FF
FF
C3
C3
C3
C3
ENDCHAR
STARTCHAR char194
ENCODING 194
SWIDTH 960 0
DWIDTH 10 0
BBX 8 18 2 0
BITMAP
0C
0C
33
33
00
00
3C
3C
C3
C3
C3
C3
FF
FF
C3
C3
C3
C3
ENDCHAR
STARTCHAR char195
ENCODING 195
SWIDTH 960 0
DWIDTH 10 0
BBX 8 16 2 0
BITMAP
33
33
CC
CC
3C
3C
C3
C3
C3
C3
FF
FF
C3
C3
C3
C3
ENDCHAR
STARTCHAR char196
ENCODING 196
SWIDTH 960 0
DWIDTH 10 0
BBX 8 16 2 0
BITMAP
C3
C3
00
00
3C
3C
C3
C3
C3
C3
FF
FF
C3
C3
C3
C3
ENDCHAR
STARTCHAR char197
ENCODING 197
SWIDTH 960 0
DWIDTH 10 0
BBX 8 16 2 0
BITMAP
3C
3C
C3
C3
3C
3C
C3
C3
C3
C3
FF
FF
C3
C3
C3
C3
ENDCHAR
STARTCHAR char198
ENCODING 198
SWIDTH 960 0
DWIDTH 10 0
BBX 12 12 0 0
BITMAP
3FF0
3FF0
C300
C300
C3C0
C3C0
FF00
FF00
C300
C300
C3F0
C3F0
ENDCHAR
STARTCHAR char199
ENCODING 199
SWIDTH 960 0
DWIDTH 10 0
BBX 8 16 0 -4
BITMAP
3F
3F
C0
C0
C0
C0
C0
C0
C0
C0
3F
3F
0C
0C
30
30
ENDCHAR
STARTCHAR char200
ENCODING 200
SWIDTH 960 0
DWIDTH 10 0
BBX 8 16 2 0
BITMAP
30
30
0C
0C
FF
FF
C0
C0
FC
FC
C0
C0
C0
C0
FF
FF
ENDCHAR
STARTCHAR char201
ENCODING 201
SWIDTH 960 0
DWIDTH 10 0
BBX 8 16 2 0
BITMAP
0C
0C
30
30
FF
FF
C0
C0
FC
FC
C0
C0
C0
C0
FF
FF
ENDCHAR
STARTCHAR char202
ENCODING 202
SWIDTH 960 0
DWIDTH 10 0
BBX 8 16 2 0
BITMAP
30
30
CC
CC
FF
FF
C0
C0
FC
FC
C0
C0
C0
C0
FF
FF
ENDCHAR
STARTCHAR char203
ENCODING 203
SWIDTH 960 0
DWIDTH 10 0
BBX 8 16 2 0
BITMAP
CC
CC
00
00
FF
FF
C0
C0
FC
FC
C0
C0
C0
C0
FF
FF
ENDCHAR
STARTCHAR char204
ENCODING 204
SWIDTH 960 0
DWIDTH 10 0
BBX 6 18 2 0
BITMAP
C0
C0
30
30
00
00
FC
FC
30
30
30
30
30
30
30
30
FC
FC
ENDCHAR
STARTCHAR char205
ENCODING 205
SWIDTH 960 0
DWIDTH 10 0
BBX 6 18 2 0
BITMAP
0C
0C
30
30
00
00
FC
FC
30
30
30
30
30
30
30
30
FC
FC
ENDCHAR
STARTCHAR char206
ENCODING 206
SWIDTH 960 0
DWIDTH 10 0
BBX 6 18 2 0
BITMAP
30
30
CC
CC
00
00
FC
FC
30
30
30
30
30
30
30
30
FC
FC
ENDCHAR
STARTCHAR char207
ENCODING 207
SWIDTH 960 0
DWIDTH 10 0
BBX 6 16 2 0
BITMAP
CC
CC
00
00
FC
FC
30
30
30
30
30
30
30
30
FC
FC
ENDCHAR
STARTCHAR char208
ENCODING 208
SWIDTH 960 0
DWIDTH 10 0
BBX 10 12 0 0
BITMAP
3F00
3F00
30C0
30C0
FCC0
FCC0
30C0
30C0
30C0
30C0
3F00
3F00
ENDCHAR
STARTCHAR char209
ENCODING 209
SWIDTH 960 0
DWIDTH 10 0
BBX 8 16 2 0
BITMAP
33
33
CC
CC
00
00
FC
FC
C3
C3
C3
C3
C3
C3
C3
C3
ENDCHAR
STARTCHAR char210
ENCODING 210
SWIDTH 960 0
DWIDTH 10 0
BBX 8 16 2 0
BITMAP
C0
C0
30
30
00
00
3C
3C
C3
C3
C3
C3
C3
C3
3C
3C
ENDCHAR
STARTCHAR char211
ENCODING 211
SWIDTH 960 0
DWIDTH 10 0
BBX 8 16 2 0
BITMAP
0C
0C
30
30
00
00
3C
3C
C3
C3
C3
C3
C3
C3
3C
3C
ENDCHAR
STARTCHAR char212
ENCODING 212
SWIDTH 960 0
DWIDTH 10 0
BBX 8 16 2 0
BITMAP
30
30
CC
CC
00
00
3C
3C
C3
C3
C3
C3
C3
C3
3C
3C
ENDCHAR
STARTCHAR char213
ENCODING 213
SWIDTH 960 0
DWIDTH 10 0
BBX 8 16 2 0
BITMAP
33
33
CC
CC
00
00
3C
3C
C3
C3
C3
C3
C3
C3
3C
3C
ENDCHAR
STARTCHAR char214
ENCODING 214
SWIDTH 960 0
DWIDTH 10 0
BBX 8 14 2 0
BITMAP
C3
C3
00
00
3C
3C
C3
C3
C3
C3
C3
C3
3C
3C
ENDCHAR
STARTCHAR char215
ENCODING 215
SWIDTH 960 0
DWIDTH 10 0
BBX 6 6 2 4
BITMAP
CC
CC
30
30
CC
CC
ENDCHAR
STARTCHAR char216
ENCODING 216
SWIDTH 960 0
DWIDTH 10 0
BBX 12 12 0 0
BITMAP
0F30
0F30
33C0
33C0
33C0
33C0
3CC0
3CC0
3CC0
3CC0
CF00
CF00
ENDCHAR
STARTCHAR char217
ENCODING 217
SWIDTH 960 0
DWIDTH 10 0
BBX 8 16 2 0
BITMAP
C0
C0
30
30
C3
C3
C3
C3
C3
C3
C3
C3
C3
C3
3F
3F
ENDCHAR
STARTCHAR char218
ENCODING 218
SWIDTH 960 0
DWIDTH 10 0
BBX 8 16 2 0
BITMAP
03
03
0C
0C
C3
C3
C3
C3
C3
C3
C3
C3
C3
C3
3F
3F
ENDCHAR
STARTCHAR char219
ENCODING 219
SWIDTH 960 0
DWIDTH 10 0
BBX 8 18 2 0
BITMAP
0C
0C
33
33
00
00
C3
C3
C3
C3
C3
C3
C3
C3
C3
C3
3F
3F
ENDCHAR
STARTCHAR char220
ENCODING 220
SWIDTH 960 0
DWIDTH 10 0
BBX 8 16 2 0
BITMAP
33
33
00
00
C3
C3
C3
C3
C3
C3
C3
C3
C3
C3
3F
3F
ENDCHAR
STARTCHAR char221
ENCODING 221
SWIDTH 960 0
DWIDTH 10 0
BBX 10 16 0 0
BITMAP
0300
0300
0C00
0C00
C0C0
C0C0
3300
3300
0C00
0C00
0C00
0C00
0C00
0C00
0C00
0C00
ENDCHAR
STARTCHAR char222
ENCODING 222
SWIDTH 960 0
DWIDTH 10 0
BBX 8 14 2 -2
BITMAP
C0
C0
C0
C0
FC
FC
C3
C3
C3
C3
FC
FC
C0
C0
ENDCHAR
STARTCHAR char223
ENCODING 223
SWIDTH 960 0
DWIDTH 10 0
BBX 8 14 2 -2
BITMAP
3C
3C
C3
C3
CC
CC
C3
C3
C3
C3
CC
CC
C0
C0
ENDCHAR
STARTCHAR char224
ENCODING 224
SWIDTH 960 0
DWIDTH 10 0
BBX 8 16 2 0
BITMAP
C0
C0
30
30
00
00
3F
3F
C3
C3
C3
C3
CF
CF
33
33
ENDCHAR
STARTCHAR char225
ENCODING 225
SWIDTH 960 0
DWIDTH 10 0
BBX 8 16 2 0
BITMAP
0C
0C
30
30
00
00
3F
3F
C3
C3
C3
C3
CF
CF
33
33
ENDCHAR
STARTCHAR char226
ENCODING 226
SWIDTH 960 0
DWIDTH 10 0
BBX 8 16 2 0
BITMAP
30
30
CC
CC
00
00
3F
3F
C3
C3
C3
C3
CF
CF
33
33
ENDCHAR
STARTCHAR char227
ENCODING 227
SWIDTH 960 0
DWIDTH 10 0
BBX 8 16 2 0
BITMAP
33
33
CC
CC
00
00
3F
3F
C3
C3
C3
C3
CF
CF
33
33
ENDCHAR
STARTCHAR char228
ENCODING 228
SWIDTH 960 0
DWIDTH 10 0
BBX 8 14 2 0
BITMAP
C3
C3
00
00
3F
3F
C3
C3
C3
C3
CF
CF
33
33
ENDCHAR
STARTCHAR char229
ENCODING 229
SWIDTH 960 0
DWIDTH 10 0
BBX 8 14 2 0
BITMAP
0C
0C
00
00
3F
3F
C3
C3
C3
C3
CF
CF
33
33
ENDCHAR
STARTCHAR char230
ENCODING 230
SWIDTH 960 0
DWIDTH 10 0
BBX 10 10 2 0
BITMAP
3F00
3F00
CCC0
CCC0
CFC0
CFC0
CC00
CC00
33C0
33C0
ENDCHAR
STARTCHAR char231
ENCODING 231
SWIDTH 960 0
DWIDTH 10 0
BBX 8 14 2 -4
BITMAP
3F
3F
C0
C0
C0
C0
C0
C0
3F
3F
0C
0C
30
30
ENDCHAR
STARTCHAR char232
ENCODING 232
SWIDTH 960 0
DWIDTH 10 0
BBX 8 16 2 0
BITMAP
C0
C0
30
30
00
00
3C
3C
C3
C3
FF
FF
C0
C0
3F
3F
ENDCHAR
STARTCHAR char233
ENCODING 233
SWIDTH 960 0
DWIDTH 10 0
BBX 8 16 2 0
BITMAP
0C
0C
30
30
00
00
3C
3C
C3
C3
FF
FF
C0
C0
3F
3F
ENDCHAR
STARTCHAR char234
ENCODING 234
SWIDTH 960 0
DWIDTH 10 0
BBX 8 16 2 0
BITMAP
30
30
CC
CC
00
00
3C
3C
C3
C3
FF
FF
C0
C0
3F
3F
ENDCHAR
STARTCHAR char235
ENCODING 235
SWIDTH 960 0
DWIDTH 10 0
BBX 8 14 2 0
BITMAP
CC
CC
00
00
3C
3C
C3
C3
FF
FF
C0
C0
3F
3F
ENDCHAR
STARTCHAR char236
ENCODING 236
SWIDTH 960 0
DWIDTH 10 0
BBX 4 16 4 0
BITMAP
C0
C0
30
30
00
00
F0
F0
30
30
30
30
30
30
30
30
ENDCHAR
STARTCHAR char237
ENCODING 237
SWIDTH 960 0
DWIDTH 10 0
BBX 6 16 4 0
BITMAP
0C
0C
30
30
00
00
F0
F0
30
30
30
30
30
30
30
30
ENDCHAR
STARTCHAR char238
ENCODING 238
SWIDTH 960 0
DWIDTH 10 0
BBX 6 16 4 0
BITMAP
30
30
CC
CC
00
00
F0
F0
30
30
30
30
30
30
30
30
ENDCHAR
STARTCHAR char239
ENCODING 239
SWIDTH 960 0
DWIDTH 10 0
BBX 6 14 4 0
BITMAP
CC
CC
00
00
F0
F0
30
30
30
30
30
30
30
30
ENDCHAR
STARTCHAR char240
ENCODING 240
SWIDTH 960 0
DWIDTH 10 0
BBX 8 16 2 0
BITMAP
CC
CC
3C
3C
C3
C3
3F
3F
C3
C3
C3
C3
C3
C3
3C
3C
ENDCHAR
STARTCHAR char241
ENCODING 241
SWIDTH 960 0
DWIDTH 10 0
BBX 8 16 2 0
BITMAP
33
33
CC
CC
00
00
FC
FC
C3
C3
C3
C3
C3
C3
C3
C3
ENDCHAR
STARTCHAR char242
ENCODING 242
SWIDTH 960 0
DWIDTH 10 0
BBX 8 16 2 0
BITMAP
C0
C0
30
30
00
00
3C
3C
C3
C3
C3
C3
C3
C3
3C
3C
ENDCHAR
STARTCHAR char243
ENCODING 243
SWIDTH 960 0
DWIDTH 10 0
BBX 8 16 2 0
BITMAP
03
03
0C
0C
00
00
3C
3C
C3
C3
C3
C3
C3
C3
3C
3C
ENDCHAR
STARTCHAR char244
ENCODING 244
SWIDTH 960 0
DWIDTH 10 0
BBX 8 16 2 0
BITMAP
30
30
CC
CC
00
00
3C
3C
C3
C3
C3
C3
C3
C3
3C
3C
ENDCHAR
STARTCHAR char245
ENCODING 245
SWIDTH 960 0
DWIDTH 10 0
BBX 8 16 2 0
BITMAP
33
33
CC
CC
00
00
3C
3C
C3
C3
C3
C3
C3
C3
3C
3C
ENDCHAR
STARTCHAR char246
ENCODING 246
SWIDTH 960 0
DWIDTH 10 0
BBX 8 14 2 0
BITMAP
C3
C3
00
00
3C
3C
C3
C3
C3
C3
C3
C3
3C
3C
ENDCHAR
STARTCHAR char247
ENCODING 247
SWIDTH 960 0
DWIDTH 10 0
BBX 10 10 0 2
BITMAP
0C00
0C00
0000
0000
FFC0
FFC0
0000
0000
0C00
0C00
ENDCHAR
STARTCHAR char248
ENCODING 248
SWIDTH 960 0
DWIDTH 10 0
BBX 12 10 0 0
BITMAP
0F30
0F30
33C0
33C0
3FC0
3FC0
3CC0
3CC0
CF00
CF00
ENDCHAR
STARTCHAR char249
ENCODING 249
SWIDTH 960 0
DWIDTH 10 0
BBX 8 16 2 0
BITMAP
C0
C0
30
30
00
00
C3
C3
C3
C3
C3
C3
C3
C3
3F
3F
ENDCHAR
STARTCHAR char250
ENCODING 250
SWIDTH 960 0
DWIDTH 10 0
BBX 8 16 2 0
BITMAP
0C
0C
30
30
00
00
C3
C3
C3
C3
C3
C3
C3
C3
3F
3F
ENDCHAR
STARTCHAR char251
ENCODING 251
SWIDTH 960 0
DWIDTH 10 0
BBX 8 16 2 0
BITMAP
30
30
CC
CC
00
00
C3
C3
C3
C3
C3
C3
C3
C3
3F
3F
ENDCHAR
STARTCHAR char252
ENCODING 252
SWIDTH 960 0
DWIDTH 10 0
BBX 8 14 2 0
BITMAP
CC
CC
00
00
C3
C3
C3
C3
C3
C3
C3
C3
3F
3F
ENDCHAR
STARTCHAR char253
ENCODING 253
SWIDTH 960 0
DWIDTH 10 0
BBX 8 20 2 -4
BITMAP
0C
0C
30
30
00
00
C3
C3
C3
C3
C3
C3
C3
C3
3F
3F
03
03
3C
3C
ENDCHAR
STARTCHAR char254
ENCODING 254
SWIDTH 960 0
DWIDTH 10 0
BBX 8 18 2 -4
BITMAP
C0
C0
C0
C0
FC
FC
C3
C3
C3
C3
C3
C3
FC
FC
C0
C0
C0
C0
ENDCHAR
STARTCHAR char255
ENCODING 255
SWIDTH 960 0
DWIDTH 10 0
BBX 8 18 2 -4
BITMAP
33
33
00
00
C3
C3
C3
C3
C3
C3
C3
C3
3F
3F
03
03
3C
3C
ENDCHAR
STARTCHAR $5240
ENCODING 256
SWIDTH 960 0
DWIDTH 10 0
BBX 8 16 2 0
BITMAP
FF
FF
00
00
3C
3C
C3
C3
C3
C3
FF
FF
C3
C3
C3
C3
ENDCHAR
STARTCHAR char480
ENCODING 257
SWIDTH 960 0
DWIDTH 10 0
BBX 8 14 2 0
BITMAP
FF
FF
00
00
3F
3F
C3
C3
C3
C3
CF
CF
33
33
ENDCHAR
STARTCHAR char480
ENCODING 258
SWIDTH 960 0
DWIDTH 10 0
BBX 8 18 2 0
BITMAP
C3
C3
3C
3C
00
00
3C
3C
C3
C3
C3
C3
FF
FF
C3
C3
C3
C3
ENDCHAR
STARTCHAR char480
ENCODING 259
SWIDTH 960 0
DWIDTH 10 0
BBX 8 16 2 0
BITMAP
C3
C3
3C
3C
00
00
3F
3F
C3
C3
C3
C3
CF
CF
33
33
ENDCHAR
STARTCHAR char480
ENCODING 260
SWIDTH 960 0
DWIDTH 10 0
BBX 10 14 2 -2
BITMAP
3C00
3C00
C300
C300
C300
C300
FF00
FF00
C300
C300
C300
C300
00C0
00C0
ENDCHAR
STARTCHAR char480
ENCODING 261
SWIDTH 960 0
DWIDTH 10 0
BBX 10 12 2 -2
BITMAP
3F00
3F00
C300
C300
C300
C300
CF00
CF00
3300
3300
00C0
00C0
ENDCHAR
STARTCHAR char480
ENCODING 262
SWIDTH 960 0
DWIDTH 10 0
BBX 8 18 2 0
BITMAP
0C
0C
30
30
00
00
3F
3F
C0
C0
C0
C0
C0
C0
C0
C0
3F
3F
ENDCHAR
STARTCHAR char960
ENCODING 263
SWIDTH 960 0
DWIDTH 10 0
BBX 8 16 2 0
BITMAP
0C
0C
30
30
00
00
3F
3F
C0
C0
C0
C0
C0
C0
3F
3F
ENDCHAR
STARTCHAR uni0043
ENCODING 264
SWIDTH 960 0
DWIDTH 10 0
BBX 8 18 2 0
BITMAP
0C
0C
33
33
00
00
3F
3F
C0
C0
C0
C0
C0
C0
C0
C0
3F
3F
ENDCHAR
STARTCHAR uni0063
ENCODING 265
SWIDTH 960 0
DWIDTH 10 0
BBX 8 16 2 0
BITMAP
0C
0C
33
33
00
00
3F
3F
C0
C0
C0
C0
C0
C0
3F
3F
ENDCHAR
STARTCHAR uni0043
ENCODING 266
SWIDTH 960 0
DWIDTH 10 0
BBX 8 16 2 0
BITMAP
0C
0C
00
00
3F
3F
C0
C0
C0
C0
C0
C0
C0
C0
3F
3F
ENDCHAR
STARTCHAR uni0063
ENCODING 267
SWIDTH 960 0
DWIDTH 10 0
BBX 8 14 2 0
BITMAP
0C
0C
00
00
3F
3F
C0
C0
C0
C0
C0
C0
3F
3F
ENDCHAR
STARTCHAR uni0043
ENCODING 268
SWIDTH 960 0
DWIDTH 10 0
BBX 8 18 2 0
BITMAP
33
33
0C
0C
00
00
3F
3F
C0
C0
C0
C0
C0
C0
C0
C0
3F
3F
ENDCHAR
STARTCHAR uni0063
ENCODING 269
SWIDTH 960 0
DWIDTH 10 0
BBX 8 16 2 0
BITMAP
33
33
0C
0C
00
00
3F
3F
C0
C0
C0
C0
C0
C0
3F
3F
ENDCHAR
STARTCHAR uni0044
ENCODING 270
SWIDTH 960 0
DWIDTH 10 0
BBX 8 18 2 0
BITMAP
CC
CC
30
30
00
00
FC
FC
C3
C3
C3
C3
C3
C3
C3
C3
FC
FC
ENDCHAR
STARTCHAR uni0064
ENCODING 271
SWIDTH 960 0
DWIDTH 10 0
BBX 12 16 2 0
BITMAP
0030
0030
0330
0330
03C0
03C0
3F00
3F00
C300
C300
C300
C300
CF00
CF00
3300
3300
ENDCHAR
STARTCHAR uni0044
ENCODING 272
SWIDTH 960 0
DWIDTH 10 0
BBX 10 12 0 0
BITMAP
3F00
3F00
30C0
30C0
FCC0
FCC0
30C0
30C0
30C0
30C0
3F00
3F00
ENDCHAR
STARTCHAR uni0064
ENCODING 273
SWIDTH 960 0
DWIDTH 10 0
BBX 10 14 2 0
BITMAP
0FC0
0FC0
0300
0300
3F00
3F00
C300
C300
C300
C300
CF00
CF00
3300
3300
ENDCHAR
STARTCHAR uni0045
ENCODING 274
SWIDTH 960 0
DWIDTH 10 0
BBX 8 16 2 0
BITMAP
3C
3C
00
00
FF
FF
C0
C0
FC
FC
C0
C0
C0
C0
FF
FF
ENDCHAR
STARTCHAR uni0065
ENCODING 275
SWIDTH 960 0
DWIDTH 10 0
BBX 8 14 2 0
BITMAP
FF
FF
00
00
3C
3C
C3
C3
FF
FF
C0
C0
3F
3F
ENDCHAR
STARTCHAR uni0045
ENCODING 276
SWIDTH 960 0
DWIDTH 10 0
BBX 8 18 2 0
BITMAP
C3
C3
3C
3C
00
00
FF
FF
C0
C0
FC
FC
C0
C0
C0
C0
FF
FF
ENDCHAR
STARTCHAR uni0065
ENCODING 277
SWIDTH 960 0
DWIDTH 10 0
BBX 8 16 2 0
BITMAP
C3
C3
3C
3C
00
00
3C
3C
C3
C3
FF
FF
C0
C0
3F
3F
ENDCHAR
STARTCHAR uni0045
ENCODING 278
SWIDTH 960 0
DWIDTH 10 0
BBX 8 16 2 0
BITMAP
30
30
00
00
FF
FF
C0
C0
FC
FC
C0
C0
C0
C0
FF
FF
ENDCHAR
STARTCHAR uni0065
ENCODING 279
SWIDTH 960 0
DWIDTH 10 0
BBX 8 14 2 0
BITMAP
30
30
00
00
3C
3C
C3
C3
FF
FF
C0
C0
3F
3F
ENDCHAR
STARTCHAR uni0045
ENCODING 280
SWIDTH 960 0
DWIDTH 10 0
BBX 10 14 2 -2
BITMAP
FF00
FF00
C000
C000
FC00
FC00
C000
C000
C000
C000
FF00
FF00
00C0
00C0
ENDCHAR
STARTCHAR uni0065
ENCODING 281
SWIDTH 960 0
DWIDTH 10 0
BBX 8 12 2 -2
BITMAP
3C
3C
C3
C3
FF
FF
C0
C0
3C
3C
03
03
ENDCHAR
STARTCHAR uni0045
ENCODING 282
SWIDTH 960 0
DWIDTH 10 0
BBX 8 18 2 0
BITMAP
CC
CC
30
30
00
00
FF
FF
C0
C0
FC
FC
C0
C0
C0
C0
FF
FF
ENDCHAR
STARTCHAR uni0065
ENCODING 283
SWIDTH 960 0
DWIDTH 10 0
BBX 8 16 2 0
BITMAP
CC
CC
30
30
00
00
3C
3C
C3
C3
FF
FF
C0
C0
3F
3F
ENDCHAR
STARTCHAR uni0047
ENCODING 284
SWIDTH 960 0
DWIDTH 10 0
BBX 8 18 2 0
BITMAP
0C
0C
33
33
00
00
3F
3F
C0
C0
C0
C0
CF
CF
C3
C3
3F
3F
ENDCHAR
STARTCHAR uni0067
ENCODING 285
SWIDTH 960 0
DWIDTH 10 0
BBX 8 20 2 -4
BITMAP
0C
0C
33
33
00
00
3F
3F
C3
C3
C3
C3
CF
CF
33
33
03
03
3C
3C
ENDCHAR
STARTCHAR uni0047
ENCODING 286
SWIDTH 960 0
DWIDTH 10 0
BBX 8 18 2 0
BITMAP
C3
C3
3C
3C
00
00
3F
3F
C0
C0
C0
C0
CF
CF
C3
C3
3F
3F
ENDCHAR
STARTCHAR uni0067
ENCODING 287
SWIDTH 960 0
DWIDTH 10 0
BBX 8 20 2 -4
BITMAP
C3
C3
3C
3C
00
00
3F
3F
C3
C3
C3
C3
CF
CF
33
33
03
03
3C
3C
ENDCHAR
STARTCHAR uni0047
ENCODING 288
SWIDTH 960 0
DWIDTH 10 0
BBX 8 16 2 0
BITMAP
0C
0C
00
00
3F
3F
C0
C0
C0
C0
CF
CF
C3
C3
3F
3F
ENDCHAR
STARTCHAR uni0067
ENCODING 289
SWIDTH 960 0
DWIDTH 10 0
BBX 8 18 2 -4
BITMAP
0C
0C
00
00
3F
3F
C3
C3
C3
C3
CF
CF
33
33
03
03
3C
3C
ENDCHAR
STARTCHAR uni0047
ENCODING 290
SWIDTH 960 0
DWIDTH 10 0
BBX 8 16 2 -4
BITMAP
3F
3F
C0
C0
C0
C0
CF
CF
C3
C3
3F
3F
0C
0C
30
30
ENDCHAR
STARTCHAR uni0067
ENCODING 291
SWIDTH 960 0
DWIDTH 10 0
BBX 8 20 2 -4
BITMAP
0C
0C
30
30
00
00
3F
3F
C3
C3
C3
C3
CF
CF
33
33
03
03
3C
3C
ENDCHAR
STARTCHAR uni0048
ENCODING 292
SWIDTH 960 0
DWIDTH 10 0
BBX 8 18 2 0
BITMAP
0C
0C
33
33
00
00
C3
C3
C3
C3
FF
FF
C3
C3
C3
C3
C3
C3
ENDCHAR
STARTCHAR uni0068
ENCODING 293
SWIDTH 960 0
DWIDTH 10 0
BBX 8 18 2 0
BITMAP
0C
0C
33
33
C0
C0
C0
C0
FC
FC
C3
C3
C3
C3
C3
C3
C3
C3
ENDCHAR
STARTCHAR uni0048
ENCODING 294
SWIDTH 960 0
DWIDTH 10 0
BBX 12 12 0 0
BITMAP
FFF0
FFF0
30C0
30C0
3FC0
3FC0
30C0
30C0
30C0
30C0
30C0
30C0
ENDCHAR
STARTCHAR uni0068
ENCODING 295
SWIDTH 960 0
DWIDTH 10 0
BBX 10 14 0 0
BITMAP
FF00
FF00
3000
3000
3F00
3F00
30C0
30C0
30C0
30C0
30C0
30C0
30C0
30C0
ENDCHAR
STARTCHAR uni0049
ENCODING 296
SWIDTH 960 0
DWIDTH 10 0
BBX 8 18 0 0
BITMAP
33
33
CC
CC
00
00
3F
3F
0C
0C
0C
0C
0C
0C
0C
0C
3F
3F
ENDCHAR
STARTCHAR uni0069
ENCODING 297
SWIDTH 960 0
DWIDTH 10 0
BBX 8 16 2 0
BITMAP
33
33
CC
CC
00
00
3C
3C
0C
0C
0C
0C
0C
0C
0C
0C
ENDCHAR
STARTCHAR uni0049
ENCODING 298
SWIDTH 960 0
DWIDTH 10 0
BBX 6 16 2 0
BITMAP
FC
FC
00
00
FC
FC
30
30
30
30
30
30
30
30
FC
FC
ENDCHAR
STARTCHAR uni0069
ENCODING 299
SWIDTH 960 0
DWIDTH 10 0
BBX 6 14 4 0
BITMAP
FC
FC
00
00
F0
F0
30
30
30
30
30
30
30
30
ENDCHAR
STARTCHAR uni0049
ENCODING 300
SWIDTH 960 0
DWIDTH 10 0
BBX 6 18 2 0
BITMAP
CC
CC
30
30
00
00
FC
FC
30
30
30
30
30
30
30
30
FC
FC
ENDCHAR
STARTCHAR uni0069
ENCODING 301
SWIDTH 960 0
DWIDTH 10 0
BBX 6 16 4 0
BITMAP
CC
CC
30
30
00
00
F0
F0
30
30
30
30
30
30
30
30
ENDCHAR
STARTCHAR uni0049
ENCODING 302
SWIDTH 960 0
DWIDTH 10 0
BBX 6 16 2 -4
BITMAP
FC
FC
30
30
30
30
30
30
30
30
FC
FC
C0
C0
30
30
ENDCHAR
STARTCHAR uni0069
ENCODING 303
SWIDTH 960 0
DWIDTH 10 0
BBX 4 18 4 -4
BITMAP
30
30
00
00
F0
F0
30
30
30
30
30
30
F0
F0
C0
C0
30
30
ENDCHAR
STARTCHAR uni0049
ENCODING 304
SWIDTH 960 0
DWIDTH 10 0
BBX 6 16 2 0
BITMAP
30
30
00
00
FC
FC
30
30
30
30
30
30
30
30
FC
FC
ENDCHAR
STARTCHAR uni0069
ENCODING 305
SWIDTH 960 0
DWIDTH 10 0
BBX 4 10 4 0
BITMAP
F0
F0
30
30
30
30
30
30
30
30
ENDCHAR
STARTCHAR uni0049
ENCODING 306
SWIDTH 960 0
DWIDTH 10 0
BBX 12 12 2 0
BITMAP
FFF0
FFF0
3030
3030
3030
3030
3030
3030
3330
3330
FCC0
FCC0
ENDCHAR
STARTCHAR uni0069
ENCODING 307
SWIDTH 960 0
DWIDTH 10 0
BBX 10 16 2 -2
BITMAP
30C0
30C0
0000
0000
F3C0
F3C0
30C0
30C0
30C0
30C0
30C0
30C0
30C0
30C0
0F00
0F00
ENDCHAR
STARTCHAR uni004A
ENCODING 308
SWIDTH 960 0
DWIDTH 10 0
BBX 8 18 2 0
BITMAP
0C
0C
33
33
00
00
3F
3F
03
03
03
03
03
03
C3
C3
3C
3C
ENDCHAR
STARTCHAR uni006A
ENCODING 309
SWIDTH 960 0
DWIDTH 10 0
BBX 8 20 2 -4
BITMAP
0C
0C
33
33
00
00
3C
3C
0C
0C
0C
0C
0C
0C
0C
0C
0C
0C
F0
F0
ENDCHAR
STARTCHAR uni004B
ENCODING 310
SWIDTH 960 0
DWIDTH 10 0
BBX 8 16 2 -4
BITMAP
C3
C3
CC
CC
F0
F0
CC
CC
C3
C3
C3
C3
30
30
C0
C0
ENDCHAR
STARTCHAR uni006B
ENCODING 311
SWIDTH 960 0
DWIDTH 10 0
BBX 8 18 2 -4
BITMAP
C0
C0
C0
C0
C3
C3
CC
CC
FC
FC
C3
C3
C3
C3
30
30
C0
C0
ENDCHAR
STARTCHAR uni006B
ENCODING 312
SWIDTH 960 0
DWIDTH 10 0
BBX 8 10 2 0
BITMAP
C3
C3
CC
CC
FC
FC
C3
C3
C3
C3
ENDCHAR
STARTCHAR uni004C
ENCODING 313
SWIDTH 960 0
DWIDTH 10 0
BBX 8 16 2 0
BITMAP
03
03
0C
0C
C0
C0
C0
C0
C0
C0
C0
C0
C0
C0
FF
FF
ENDCHAR
STARTCHAR uni006C
ENCODING 314
SWIDTH 960 0
DWIDTH 10 0
BBX 8 18 4 0
BITMAP
03
03
0C
0C
F0
F0
30
30
30
30
30
30
30
30
30
30
30
30
ENDCHAR
STARTCHAR uni004C
ENCODING 315
SWIDTH 960 0
DWIDTH 10 0
BBX 8 16 2 -4
BITMAP
C0
C0
C0
C0
C0
C0
C0
C0
C0
C0
FF
FF
0C
0C
30
30
ENDCHAR
STARTCHAR uni006C
ENCODING 316
SWIDTH 960 0
DWIDTH 10 0
BBX 6 18 2 -4
BITMAP
3C
3C
0C
0C
0C
0C
0C
0C
0C
0C
0C
0C
0C
0C
30
30
C0
C0
ENDCHAR
STARTCHAR uni004C
ENCODING 317
SWIDTH 960 0
DWIDTH 10 0
BBX 8 14 2 0
BITMAP
0F
0F
C3
C3
C0
C0
C0
C0
C0
C0
C0
C0
FF
FF
ENDCHAR
STARTCHAR uni006C
ENCODING 318
SWIDTH 960 0
DWIDTH 10 0
BBX 8 20 4 -2
BITMAP
0F
0F
03
03
F0
F0
30
30
30
30
30
30
30
30
30
30
30
30
0C
0C
ENDCHAR
STARTCHAR uni004C
ENCODING 319
SWIDTH 960 0
DWIDTH 10 0
BBX 8 12 2 0
BITMAP
C0
C0
C0
C0
C0
C0
CC
CC
C0
C0
FF
FF
ENDCHAR
STARTCHAR uni006C
ENCODING 320
SWIDTH 960 0
DWIDTH 10 0
BBX 8 14 4 0
BITMAP
F0
F0
30
30
30
30
30
30
33
33
30
30
30
30
ENDCHAR
STARTCHAR uni004C
ENCODING 321
SWIDTH 960 0
DWIDTH 10 0
BBX 8 12 2 0
BITMAP
C0
C0
CC
CC
F0
F0
C0
C0
C0
C0
FF
FF
ENDCHAR
STARTCHAR uni006C
ENCODING 322
SWIDTH 960 0
DWIDTH 10 0
BBX 6 14 4 0
BITMAP
F0
F0
30
30
30
30
3C
3C
F0
F0
30
30
30
30
ENDCHAR
STARTCHAR uni004E
ENCODING 323
SWIDTH 960 0
DWIDTH 10 0
BBX 8 18 2 0
BITMAP
0C
0C
30
30
00
00
C3
C3
F3
F3
F3
F3
CF
CF
CF
CF
C3
C3
ENDCHAR
STARTCHAR uni006E
ENCODING 324
SWIDTH 960 0
DWIDTH 10 0
BBX 8 16 2 0
BITMAP
0C
0C
30
30
00
00
FC
FC
C3
C3
C3
C3
C3
C3
C3
C3
ENDCHAR
STARTCHAR uni004E
ENCODING 325
SWIDTH 960 0
DWIDTH 10 0
BBX 8 16 2 -4
BITMAP
C3
C3
F3
F3
F3
F3
CF
CF
CF
CF
F3
F3
30
30
C0
C0
ENDCHAR
STARTCHAR uni006E
ENCODING 326
SWIDTH 960 0
DWIDTH 10 0
BBX 8 20 2 -4
BITMAP
0C
0C
30
30
00
00
FC
FC
C3
C3
C3
C3
C3
C3
F3
F3
30
30
C0
C0
ENDCHAR
STARTCHAR uni004E
ENCODING 327
SWIDTH 960 0
DWIDTH 10 0
BBX 8 16 2 0
BITMAP
33
33
0C
0C
C3
C3
F3
F3
F3
F3
CF
CF
CF
CF
C3
C3
ENDCHAR
STARTCHAR uni006E
ENCODING 328
SWIDTH 960 0
DWIDTH 10 0
BBX 8 16 2 0
BITMAP
33
33
0C
0C
00
00
FC
FC
C3
C3
C3
C3
C3
C3
C3
C3
ENDCHAR
STARTCHAR uni006E
ENCODING 329
SWIDTH 960 0
DWIDTH 10 0
BBX 8 16 2 0
BITMAP
C0
C0
C0
C0
00
00
FC
FC
C3
C3
C3
C3
C3
C3
C3
C3
ENDCHAR
STARTCHAR uni004E
ENCODING 330
SWIDTH 960 0
DWIDTH 10 0
BBX 8 16 2 -4
BITMAP
C3
C3
F3
F3
F3
F3
CF
CF
CF
CF
C3
C3
03
03
3C
3C
ENDCHAR
STARTCHAR uni006E
ENCODING 331
SWIDTH 960 0
DWIDTH 10 0
BBX 8 20 2 -4
BITMAP
0C
0C
30
30
00
00
FC
FC
C3
C3
C3
C3
C3
C3
C3
C3
03
03
3C
3C
ENDCHAR
STARTCHAR uni004F
ENCODING 332
SWIDTH 960 0
DWIDTH 10 0
BBX 8 16 2 0
BITMAP
FF
FF
00
00
3C
3C
C3
C3
C3
C3
C3
C3
C3
C3
3C
3C
ENDCHAR
STARTCHAR uni006F
ENCODING 333
SWIDTH 960 0
DWIDTH 10 0
BBX 8 14 2 0
BITMAP
FF
FF
00
00
3C
3C
C3
C3
C3
C3
C3
C3
3C
3C
ENDCHAR
STARTCHAR uni004F
ENCODING 334
SWIDTH 960 0
DWIDTH 10 0
BBX 8 18 2 0
BITMAP
C3
C3
3C
3C
00
00
3C
3C
C3
C3
C3
C3
C3
C3
C3
C3
3C
3C
ENDCHAR
STARTCHAR uni006F
ENCODING 335
SWIDTH 960 0
DWIDTH 10 0
BBX 8 16 2 0
BITMAP
C3
C3
3C
3C
00
00
3C
3C
C3
C3
C3
C3
C3
C3
3C
3C
ENDCHAR
STARTCHAR uni004F
ENCODING 336
SWIDTH 960 0
DWIDTH 10 0
BBX 8 18 2 0
BITMAP
33
33
CC
CC
00
00
3C
3C
C3
C3
C3
C3
C3
C3
C3
C3
3C
3C
ENDCHAR
STARTCHAR uni006F
ENCODING 337
SWIDTH 960 0
DWIDTH 10 0
BBX 8 16 2 0
BITMAP
33
33
CC
CC
00
00
3C
3C
C3
C3
C3
C3
C3
C3
3C
3C
ENDCHAR
STARTCHAR char198
ENCODING 338
SWIDTH 960 0
DWIDTH 10 0
BBX 12 12 0 0
BITMAP
3FF0
3FF0
C300
C300
C3C0
C3C0
C300
C300
C300
C300
3FF0
3FF0
ENDCHAR
STARTCHAR char230
ENCODING 339
SWIDTH 960 0
DWIDTH 10 0
BBX 10 10 2 0
BITMAP
3F00
3F00
CCC0
CCC0
CFC0
CFC0
CC00
CC00
3FC0
3FC0
ENDCHAR
STARTCHAR uni0052
ENCODING 340
SWIDTH 960 0
DWIDTH 10 0
BBX 8 16 2 0
BITMAP
0C
0C
30
30
FC
FC
C3
C3
C3
C3
FC
FC
C3
C3
C3
C3
ENDCHAR
STARTCHAR uni0072
ENCODING 341
SWIDTH 960 0
DWIDTH 10 0
BBX 8 16 2 0
BITMAP
0C
0C
30
30
00
00
CF
CF
F0
F0
C0
C0
C0
C0
C0
C0
ENDCHAR
STARTCHAR uni0052
ENCODING 342
SWIDTH 960 0
DWIDTH 10 0
BBX 8 16 2 -4
BITMAP
FC
FC
C3
C3
C3
C3
FC
FC
C3
C3
C3
C3
30
30
C0
C0
ENDCHAR
STARTCHAR uni0072
ENCODING 343
SWIDTH 960 0
DWIDTH 10 0
BBX 8 14 2 -4
BITMAP
CF
CF
F0
F0
C0
C0
C0
C0
C0
C0
30
30
C0
C0
ENDCHAR
STARTCHAR uni0052
ENCODING 344
SWIDTH 960 0
DWIDTH 10 0
BBX 8 16 2 0
BITMAP
CC
CC
30
30
FC
FC
C3
C3
C3
C3
FC
FC
C3
C3
C3
C3
ENDCHAR
STARTCHAR uni0072
ENCODING 345
SWIDTH 960 0
DWIDTH 10 0
BBX 8 16 2 0
BITMAP
CC
CC
30
30
00
00
CF
CF
F0
F0
C0
C0
C0
C0
C0
C0
ENDCHAR
STARTCHAR uni0053
ENCODING 346
SWIDTH 960 0
DWIDTH 10 0
BBX 8 18 2 0
BITMAP
0C
0C
30
30
00
00
3F
3F
C0
C0
3C
3C
03
03
03
03
FC
FC
ENDCHAR
STARTCHAR uni0073
ENCODING 347
SWIDTH 960 0
DWIDTH 10 0
BBX 8 16 2 0
BITMAP
0C
0C
30
30
00
00
3F
3F
C0
C0
3C
3C
03
03
FC
FC
ENDCHAR
STARTCHAR uni0053
ENCODING 348
SWIDTH 960 0
DWIDTH 10 0
BBX 8 18 2 0
BITMAP
0C
0C
33
33
00
00
3F
3F
C0
C0
3C
3C
03
03
03
03
FC
FC
ENDCHAR
STARTCHAR uni0073
ENCODING 349
SWIDTH 960 0
DWIDTH 10 0
BBX 8 16 2 0
BITMAP
0C
0C
33
33
00
00
3F
3F
C0
C0
3C
3C
03
03
FC
FC
ENDCHAR
STARTCHAR uni0053
ENCODING 350
SWIDTH 960 0
DWIDTH 10 0
BBX 8 16 2 -4
BITMAP
3F
3F
C0
C0
3C
3C
03
03
03
03
FC
FC
0C
0C
0C
0C
ENDCHAR
STARTCHAR uni0073
ENCODING 351
SWIDTH 960 0
DWIDTH 10 0
BBX 8 14 2 -4
BITMAP
3F
3F
C0
C0
3C
3C
03
03
FC
FC
0C
0C
0C
0C
ENDCHAR
STARTCHAR uni0053
ENCODING 352
SWIDTH 960 0
DWIDTH 10 0
BBX 8 18 2 0
BITMAP
33
33
0C
0C
00
00
3F
3F
C0
C0
3C
3C
03
03
03
03
FC
FC
ENDCHAR
STARTCHAR uni0073
ENCODING 353
SWIDTH 960 0
DWIDTH 10 0
BBX 8 16 2 0
BITMAP
33
33
0C
0C
00
00
3F
3F
C0
C0
3C
3C
03
03
FC
FC
ENDCHAR
STARTCHAR uni0054
ENCODING 354
SWIDTH 960 0
DWIDTH 10 0
BBX 10 14 0 -2
BITMAP
FFC0
FFC0
0C00
0C00
0C00
0C00
0C00
0C00
0C00
0C00
0C00
0C00
3000
3000
ENDCHAR
STARTCHAR uni0074
ENCODING 355
SWIDTH 960 0
DWIDTH 10 0
BBX 6 14 2 -2
BITMAP
30
30
FC
FC
30
30
30
30
30
30
0C
0C
30
30
ENDCHAR
STARTCHAR uni0054
ENCODING 356
SWIDTH 960 0
DWIDTH 10 0
BBX 10 18 0 0
BITMAP
3300
3300
0C00
0C00
0000
0000
FFC0
FFC0
0C00
0C00
0C00
0C00
0C00
0C00
0C00
0C00
0C00
0C00
ENDCHAR
STARTCHAR uni0074
ENCODING 357
SWIDTH 960 0
DWIDTH 10 0
BBX 8 16 2 0
BITMAP
0F
0F
03
03
30
30
FC
FC
30
30
30
30
30
30
0C
0C
ENDCHAR
STARTCHAR uni0054
ENCODING 358
SWIDTH 960 0
DWIDTH 10 0
BBX 10 12 0 0
BITMAP
FFC0
FFC0
0C00
0C00
0C00
0C00
3F00
3F00
0C00
0C00
0C00
0C00
ENDCHAR
STARTCHAR uni0074
ENCODING 359
SWIDTH 960 0
DWIDTH 10 0
BBX 6 12 2 0
BITMAP
30
30
FC
FC
30
30
FC
FC
30
30
0C
0C
ENDCHAR
STARTCHAR uni0055
ENCODING 360
SWIDTH 960 0
DWIDTH 10 0
BBX 8 18 2 0
BITMAP
33
33
CC
CC
00
00
C3
C3
C3
C3
C3
C3
C3
C3
C3
C3
3F
3F
ENDCHAR
STARTCHAR uni0075
ENCODING 361
SWIDTH 960 0
DWIDTH 10 0
BBX 8 16 2 0
BITMAP
33
33
CC
CC
00
00
C3
C3
C3
C3
C3
C3
C3
C3
3F
3F
ENDCHAR
STARTCHAR uni0055
ENCODING 362
SWIDTH 960 0
DWIDTH 10 0
BBX 8 16 2 0
BITMAP
FF
FF
00
00
C3
C3
C3
C3
C3
C3
C3
C3
C3
C3
3F
3F
ENDCHAR
STARTCHAR uni0075
ENCODING 363
SWIDTH 960 0
DWIDTH 10 0
BBX 8 14 2 0
BITMAP
FF
FF
00
00
C3
C3
C3
C3
C3
C3
C3
C3
3F
3F
ENDCHAR
STARTCHAR uni0055
ENCODING 364
SWIDTH 960 0
DWIDTH 10 0
BBX 8 18 2 0
BITMAP
C3
C3
3C
3C
00
00
C3
C3
C3
C3
C3
C3
C3
C3
C3
C3
3F
3F
ENDCHAR
STARTCHAR uni0075
ENCODING 365
SWIDTH 960 0
DWIDTH 10 0
BBX 8 16 2 0
BITMAP
C3
C3
3C
3C
00
00
C3
C3
C3
C3
C3
C3
C3
C3
3F
3F
ENDCHAR
STARTCHAR uni0055
ENCODING 366
SWIDTH 960 0
DWIDTH 10 0
BBX 8 18 2 0
BITMAP
0C
0C
33
33
0C
0C
C3
C3
C3
C3
C3
C3
C3
C3
C3
C3
3F
3F
ENDCHAR
STARTCHAR uni0075
ENCODING 367
SWIDTH 960 0
DWIDTH 10 0
BBX 8 16 2 0
BITMAP
0C
0C
33
33
0C
0C
C3
C3
C3
C3
C3
C3
C3
C3
3F
3F
ENDCHAR
STARTCHAR uni0055
ENCODING 368
SWIDTH 960 0
DWIDTH 10 0
BBX 10 18 2 0
BITMAP
30C0
30C0
C300
C300
0000
0000
C300
C300
C300
C300
C300
C300
C300
C300
C300
C300
3F00
3F00
ENDCHAR
STARTCHAR uni0075
ENCODING 369
SWIDTH 960 0
DWIDTH 10 0
BBX 10 16 2 0
BITMAP
30C0
30C0
C300
C300
0000
0000
C300
C300
C300
C300
C300
C300
C300
C300
3F00
3F00
ENDCHAR
STARTCHAR uni0055
ENCODING 370
SWIDTH 960 0
DWIDTH 10 0
BBX 8 16 2 -4
BITMAP
C3
C3
C3
C3
C3
C3
C3
C3
C3
C3
3F
3F
30
30
0C
0C
ENDCHAR
STARTCHAR uni0075
ENCODING 371
SWIDTH 960 0
DWIDTH 10 0
BBX 8 14 2 -4
BITMAP
C3
C3
C3
C3
C3
C3
C3
C3
3F
3F
30
30
0C
0C
ENDCHAR
STARTCHAR uni0077
ENCODING 372
SWIDTH 960 0
DWIDTH 10 0
BBX 8 18 2 0
BITMAP
0C
0C
33
33
00
00
C3
C3
C3
C3
C3
C3
C3
C3
FF
FF
C3
C3
ENDCHAR
STARTCHAR uni0077
ENCODING 373
SWIDTH 960 0
DWIDTH 10 0
BBX 8 16 2 0
BITMAP
0C
0C
33
33
00
00
C3
C3
C3
C3
C3
C3
FF
FF
C3
C3
ENDCHAR
STARTCHAR uni0059
ENCODING 374
SWIDTH 960 0
DWIDTH 10 0
BBX 10 18 0 0
BITMAP
0C00
0C00
3300
3300
0000
0000
C0C0
C0C0
3300
3300
0C00
0C00
0C00
0C00
0C00
0C00
0C00
0C00
ENDCHAR
STARTCHAR uni0079
ENCODING 375
SWIDTH 960 0
DWIDTH 10 0
BBX 8 20 2 -4
BITMAP
0C
0C
33
33
00
00
C3
C3
C3
C3
C3
C3
C3
C3
3F
3F
03
03
3C
3C
ENDCHAR
STARTCHAR uni0059
ENCODING 376
SWIDTH 960 0
DWIDTH 10 0
BBX 10 16 0 0
BITMAP
3300
3300
0000
0000
C0C0
C0C0
3300
3300
0C00
0C00
0C00
0C00
0C00
0C00
0C00
0C00
ENDCHAR
STARTCHAR uni005A
ENCODING 377
SWIDTH 960 0
DWIDTH 10 0
BBX 8 18 2 0
BITMAP
0C
0C
30
30
00
00
FF
FF
03
03
0C
0C
30
30
C0
C0
FF
FF
ENDCHAR
STARTCHAR uni007A
ENCODING 378
SWIDTH 960 0
DWIDTH 10 0
BBX 8 16 2 0
BITMAP
0C
0C
30
30
00
00
FF
FF
0C
0C
30
30
C0
C0
FF
FF
ENDCHAR
STARTCHAR uni005A
ENCODING 379
SWIDTH 960 0
DWIDTH 10 0
BBX 8 16 2 0
BITMAP
0C
0C
00
00
FF
FF
03
03
0C
0C
30
30
C0
C0
FF
FF
ENDCHAR
STARTCHAR uni007A
ENCODING 380
SWIDTH 960 0
DWIDTH 10 0
BBX 8 14 2 0
BITMAP
0C
0C
00
00
FF
FF
0C
0C
30
30
C0
C0
FF
FF
ENDCHAR
STARTCHAR uni005A
ENCODING 381
SWIDTH 960 0
DWIDTH 10 0
BBX 8 18 2 0
BITMAP
33
33
0C
0C
00
00
FF
FF
03
03
0C
0C
30
30
C0
C0
FF
FF
ENDCHAR
STARTCHAR uni007A
ENCODING 382
SWIDTH 960 0
DWIDTH 10 0
BBX 8 16 2 0
BITMAP
33
33
0C
0C
00
00
FF
FF
0C
0C
30
30
C0
C0
FF
FF
ENDCHAR
STARTCHAR LATIN
ENCODING 383
SWIDTH 960 0
DWIDTH 10 0
BBX 8 14 2 0
BITMAP
0F
0F
30
30
F0
F0
30
30
30
30
30
30
30
30
ENDCHAR
STARTCHAR uni0062
ENCODING 384
SWIDTH 960 0
DWIDTH 10 0
BBX 10 14 0 0
BITMAP
FC00
FC00
3000
3000
3F00
3F00
30C0
30C0
30C0
30C0
30C0
30C0
3F00
3F00
ENDCHAR
STARTCHAR uni0042
ENCODING 385
SWIDTH 960 0
DWIDTH 10 0
BBX 10 12 0 0
BITMAP
FF00
FF00
30C0
30C0
3F00
3F00
30C0
30C0
30C0
30C0
3F00
3F00
ENDCHAR
STARTCHAR uni0042
ENCODING 386
SWIDTH 960 0
DWIDTH 10 0
BBX 10 16 2 0
BITMAP
FC00
FC00
CC00
CC00
C000
C000
FF00
FF00
C0C0
C0C0
C0C0
C0C0
C0C0
C0C0
FF00
FF00
ENDCHAR
STARTCHAR uni0042
ENCODING 387
SWIDTH 960 0
DWIDTH 10 0
BBX 8 16 2 0
BITMAP
FC
FC
CC
CC
C0
C0
FC
FC
C3
C3
C3
C3
C3
C3
FC
FC
ENDCHAR
STARTCHAR uni0062
ENCODING 388
SWIDTH 960 0
DWIDTH 10 0
BBX 12 14 0 0
BITMAP
3000
3000
F000
F000
3FC0
3FC0
3030
3030
3030
3030
3030
3030
3FC0
3FC0
ENDCHAR
STARTCHAR uni0062
ENCODING 389
SWIDTH 960 0
DWIDTH 10 0
BBX 10 14 0 0
BITMAP
3000
3000
F000
F000
3F00
3F00
30C0
30C0
30C0
30C0
30C0
30C0
3F00
3F00
ENDCHAR
STARTCHAR uni0043
ENCODING 390
SWIDTH 960 0
DWIDTH 10 0
BBX 8 12 2 0
BITMAP
FC
FC
03
03
03
03
03
03
03
03
FC
FC
ENDCHAR
STARTCHAR uni0043
ENCODING 391
SWIDTH 960 0
DWIDTH 10 0
BBX 10 14 2 0
BITMAP
00C0
00C0
3F00
3F00
C000
C000
C000
C000
C000
C000
C000
C000
3F00
3F00
ENDCHAR
STARTCHAR uni0063
ENCODING 392
SWIDTH 960 0
DWIDTH 10 0
BBX 8 10 2 0
BITMAP
3F
3F
C0
C0
C0
C0
C0
C0
3F
3F
ENDCHAR
STARTCHAR uni0044
ENCODING 393
SWIDTH 960 0
DWIDTH 10 0
BBX 10 12 0 0
BITMAP
3F00
3F00
30C0
30C0
FCC0
FCC0
30C0
30C0
30C0
30C0
3F00
3F00
ENDCHAR
STARTCHAR uni0044
ENCODING 394
SWIDTH 960 0
DWIDTH 10 0
BBX 12 12 -2 0
BITMAP
3FC0
3FC0
CC30
CC30
0C30
0C30
0C30
0C30
0C30
0C30
0FC0
0FC0
ENDCHAR
STARTCHAR uni0042
ENCODING 395
SWIDTH 960 0
DWIDTH 10 0
BBX 10 16 2 0
BITMAP
0FC0
0FC0
0CC0
0CC0
00C0
00C0
3FC0
3FC0
C0C0
C0C0
C0C0
C0C0
C3C0
C3C0
3CC0
3CC0
ENDCHAR
STARTCHAR uni0042
ENCODING 396
SWIDTH 960 0
DWIDTH 10 0
BBX 8 16 2 0
BITMAP
3F
3F
33
33
03
03
3F
3F
C3
C3
C3
C3
CF
CF
33
33
ENDCHAR
STARTCHAR uni0045
ENCODING 398
SWIDTH 960 0
DWIDTH 10 0
BBX 10 12 0 0
BITMAP
3FC0
3FC0
C0C0
C0C0
0FC0
0FC0
00C0
00C0
00C0
00C0
3FC0
3FC0
ENDCHAR
STARTCHAR uni0065
ENCODING 399
SWIDTH 960 0
DWIDTH 10 0
BBX 8 10 2 0
BITMAP
FC
FC
03
03
FF
FF
C3
C3
3C
3C
ENDCHAR
STARTCHAR char1028
ENCODING 400
SWIDTH 960 0
DWIDTH 10 0
BBX 8 12 2 0
BITMAP
3C
3C
C3
C3
30
30
C0
C0
C3
C3
3C
3C
ENDCHAR
STARTCHAR uni0046
ENCODING 401
SWIDTH 960 0
DWIDTH 10 0
BBX 10 14 0 -2
BITMAP
3FC0
3FC0
3000
3000
3F00
3F00
3000
3000
3000
3000
3000
3000
C000
C000
ENDCHAR
STARTCHAR uni0066
ENCODING 402
SWIDTH 960 0
DWIDTH 10 0
BBX 8 16 2 -2
BITMAP
0F
0F
30
30
3F
3F
30
30
30
30
30
30
30
30
C0
C0
ENDCHAR
STARTCHAR uni0047
ENCODING 403
SWIDTH 960 0
DWIDTH 10 0
BBX 14 12 2 0
BITMAP
3F3C
3F3C
C0CC
C0CC
C000
C000
CF00
CF00
C300
C300
3F00
3F00
ENDCHAR
STARTCHAR LATIN
ENCODING 404
SWIDTH 960 0
DWIDTH 10 0
BBX 10 16 0 -4
BITMAP
C0C0
C0C0
3300
3300
3300
3300
0C00
0C00
0C00
0C00
3300
3300
3300
3300
0C00
0C00
ENDCHAR
STARTCHAR LATIN
ENCODING 405
SWIDTH 960 0
DWIDTH 10 0
BBX 10 12 2 0
BITMAP
C000
C000
C000
C000
F0C0
F0C0
CCC0
CCC0
CCC0
CCC0
C300
C300
ENDCHAR
STARTCHAR LATIN
ENCODING 406
SWIDTH 960 0
DWIDTH 10 0
BBX 6 14 2 0
BITMAP
C0
C0
C0
C0
C0
C0
C0
C0
C0
C0
CC
CC
30
30
ENDCHAR
STARTCHAR uni0049
ENCODING 407
SWIDTH 960 0
DWIDTH 10 0
BBX 6 16 2 0
BITMAP
FC
FC
00
00
FC
FC
30
30
30
30
30
30
30
30
FC
FC
ENDCHAR
STARTCHAR uni004B
ENCODING 408
SWIDTH 960 0
DWIDTH 10 0
BBX 10 12 2 0
BITMAP
C300
C300
CCC0
CCC0
F000
F000
CC00
CC00
C300
C300
C300
C300
ENDCHAR
STARTCHAR uni006B
ENCODING 409
SWIDTH 960 0
DWIDTH 10 0
BBX 8 14 2 0
BITMAP
3C
3C
C0
C0
C3
C3
CC
CC
FC
FC
C3
C3
C3
C3
ENDCHAR
STARTCHAR uni0049
ENCODING 410
SWIDTH 960 0
DWIDTH 10 0
BBX 6 14 2 0
BITMAP
F0
F0
30
30
30
30
FC
FC
30
30
30
30
30
30
ENDCHAR
STARTCHAR LATIN
ENCODING 411
SWIDTH 960 0
DWIDTH 10 0
BBX 8 12 2 0
BITMAP
30
30
FC
FC
3C
3C
3C
3C
C3
C3
C3
C3
ENDCHAR
STARTCHAR LATIN
ENCODING 412
SWIDTH 960 0
DWIDTH 10 0
BBX 10 10 0 0
BITMAP
CCC0
CCC0
CCC0
CCC0
CCC0
CCC0
CCC0
CCC0
3FC0
3FC0
ENDCHAR
STARTCHAR LATIN
ENCODING 413
SWIDTH 960 0
DWIDTH 10 0
BBX 10 12 0 -2
BITMAP
30C0
30C0
3CC0
3CC0
3FC0
3FC0
33C0
33C0
30C0
30C0
C000
C000
ENDCHAR
STARTCHAR uni006E
ENCODING 414
SWIDTH 960 0
DWIDTH 10 0
BBX 8 10 2 -2
BITMAP
FC
FC
C3
C3
C3
C3
C3
C3
03
03
ENDCHAR
STARTCHAR GREEK
ENCODING 415
SWIDTH 960 0
DWIDTH 10 0
BBX 8 10 0 0
BITMAP
3C
3C
C3
C3
FF
FF
C3
C3
3C
3C
ENDCHAR
STARTCHAR uni004F
ENCODING 416
SWIDTH 960 0
DWIDTH 10 0
BBX 12 16 2 0
BITMAP
0030
0030
0030
0030
3CC0
3CC0
C300
C300
C300
C300
C300
C300
C300
C300
3C00
3C00
ENDCHAR
STARTCHAR uni006F
ENCODING 417
SWIDTH 960 0
DWIDTH 10 0
BBX 12 16 2 0
BITMAP
0030
0030
0030
0030
00C0
00C0
3C00
3C00
C300
C300
C300
C300
C300
C300
3C00
3C00
ENDCHAR
STARTCHAR uni004F
ENCODING 418
SWIDTH 960 0
DWIDTH 10 0
BBX 12 14 2 0
BITMAP
00C0
00C0
3C30
3C30
C330
C330
C330
C330
C330
C330
C330
C330
3C30
3C30
ENDCHAR
STARTCHAR uni006F
ENCODING 419
SWIDTH 960 0
DWIDTH 10 0
BBX 12 12 2 0
BITMAP
00C0
00C0
3C30
3C30
C330
C330
C330
C330
C330
C330
3C30
3C30
ENDCHAR
STARTCHAR uni0050
ENCODING 420
SWIDTH 960 0
DWIDTH 10 0
BBX 12 12 -2 0
BITMAP
FFC0
FFC0
CC30
CC30
0C30
0C30
0FC0
0FC0
0C00
0C00
0C00
0C00
ENDCHAR
STARTCHAR uni0070
ENCODING 421
SWIDTH 960 0
DWIDTH 10 0
BBX 12 18 2 -4
BITMAP
00F0
00F0
0330
0330
FC00
FC00
C300
C300
C300
C300
C300
C300
FC00
FC00
C000
C000
C000
C000
ENDCHAR
STARTCHAR LATIN
ENCODING 422
SWIDTH 960 0
DWIDTH 10 0
BBX 10 16 0 -2
BITMAP
C000
C000
FC00
FC00
C300
C300
C300
C300
FC00
FC00
CC00
CC00
C300
C300
00C0
00C0
ENDCHAR
STARTCHAR uni0053
ENCODING 423
SWIDTH 960 0
DWIDTH 10 0
BBX 8 12 2 0
BITMAP
FC
FC
03
03
3C
3C
C0
C0
C0
C0
3F
3F
ENDCHAR
STARTCHAR uni0073
ENCODING 424
SWIDTH 960 0
DWIDTH 10 0
BBX 8 10 2 0
BITMAP
FC
FC
03
03
3C
3C
C0
C0
3F
3F
ENDCHAR
STARTCHAR GREEK
ENCODING 425
SWIDTH 960 0
DWIDTH 10 0
BBX 10 12 0 0
BITMAP
FFC0
FFC0
30C0
30C0
0C00
0C00
3000
3000
C0C0
C0C0
FFC0
FFC0
ENDCHAR
STARTCHAR LATIN
ENCODING 426
SWIDTH 960 0
DWIDTH 10 0
BBX 10 16 0 -2
BITMAP
3000
3000
CC00
CC00
3C00
3C00
0C00
0C00
0C00
0C00
0C00
0C00
0C00
0C00
03C0
03C0
ENDCHAR
STARTCHAR uni0074
ENCODING 427
SWIDTH 960 0
DWIDTH 10 0
BBX 6 14 2 -2
BITMAP
30
30
FC
FC
30
30
30
30
30
30
0C
0C
30
30
ENDCHAR
STARTCHAR uni0054
ENCODING 428
SWIDTH 960 0
DWIDTH 10 0
BBX 10 12 0 0
BITMAP
FFC0
FFC0
0CC0
0CC0
0C00
0C00
0C00
0C00
0C00
0C00
0C00
0C00
ENDCHAR
STARTCHAR uni0074
ENCODING 429
SWIDTH 960 0
DWIDTH 10 0
BBX 6 14 2 0
BITMAP
0C
0C
30
30
FC
FC
30
30
30
30
30
30
0C
0C
ENDCHAR
STARTCHAR uni0054
ENCODING 430
SWIDTH 960 0
DWIDTH 10 0
BBX 10 12 0 0
BITMAP
FFC0
FFC0
CCC0
CCC0
0C00
0C00
0C00
0C00
0C00
0C00
0C00
0C00
ENDCHAR
STARTCHAR uni0055
ENCODING 431
SWIDTH 960 0
DWIDTH 10 0
BBX 10 14 2 0
BITMAP
00C0
00C0
C3C0
C3C0
C300
C300
C300
C300
C300
C300
C300
C300
3F00
3F00
ENDCHAR
STARTCHAR uni0075
ENCODING 432
SWIDTH 960 0
DWIDTH 10 0
BBX 10 12 2 0
BITMAP
00C0
00C0
C3C0
C3C0
C300
C300
C300
C300
C300
C300
3F00
3F00
ENDCHAR
STARTCHAR LATIN
ENCODING 433
SWIDTH 960 0
DWIDTH 10 0
BBX 10 14 0 0
BITMAP
F3C0
F3C0
3300
3300
C0C0
C0C0
C0C0
C0C0
C0C0
C0C0
C0C0
C0C0
3F00
3F00
ENDCHAR
STARTCHAR LATIN
ENCODING 434
SWIDTH 960 0
DWIDTH 10 0
BBX 10 14 0 0
BITMAP
C300
C300
C0C0
C0C0
C0C0
C0C0
C0C0
C0C0
C0C0
C0C0
C0C0
C0C0
3F00
3F00
ENDCHAR
STARTCHAR uni0059
ENCODING 435
SWIDTH 960 0
DWIDTH 10 0
BBX 12 14 0 0
BITMAP
0030
0030
C0F0
C0F0
3300
3300
0C00
0C00
0C00
0C00
0C00
0C00
0C00
0C00
ENDCHAR
STARTCHAR uni0079
ENCODING 436
SWIDTH 960 0
DWIDTH 10 0
BBX 10 16 2 -4
BITMAP
00C0
00C0
C3C0
C3C0
C300
C300
C300
C300
C300
C300
3F00
3F00
0300
0300
3C00
3C00
ENDCHAR
STARTCHAR uni005A
ENCODING 437
SWIDTH 960 0
DWIDTH 10 0
BBX 10 12 2 0
BITMAP
FF00
FF00
0300
0300
FFC0
FFC0
3000
3000
C000
C000
FF00
FF00
ENDCHAR
STARTCHAR uni007A
ENCODING 438
SWIDTH 960 0
DWIDTH 10 0
BBX 8 10 2 0
BITMAP
FF
FF
0C
0C
FF
FF
C0
C0
FF
FF
ENDCHAR
STARTCHAR LATIN
ENCODING 439
SWIDTH 960 0
DWIDTH 10 0
BBX 8 12 2 0
BITMAP
FF
FF
03
03
0C
0C
03
03
C3
C3
3C
3C
ENDCHAR
STARTCHAR LATIN
ENCODING 440
SWIDTH 960 0
DWIDTH 10 0
BBX 8 12 2 0
BITMAP
FF
FF
C0
C0
30
30
C0
C0
C3
C3
3C
3C
ENDCHAR
STARTCHAR LATIN
ENCODING 441
SWIDTH 960 0
DWIDTH 10 0
BBX 8 12 2 -2
BITMAP
FF
FF
C0
C0
30
30
C0
C0
C3
C3
3C
3C
ENDCHAR
STARTCHAR LATIN
ENCODING 442
SWIDTH 960 0
DWIDTH 10 0
BBX 12 16 0 -4
BITMAP
3FC0
3FC0
00C0
00C0
0300
0300
00C0
00C0
30C0
30C0
CF00
CF00
3030
3030
0FC0
0FC0
ENDCHAR
STARTCHAR LATIN
ENCODING 443
SWIDTH 960 0
DWIDTH 10 0
BBX 10 14 0 0
BITMAP
3F00
3F00
C0C0
C0C0
00C0
00C0
FFC0
FFC0
0C00
0C00
3000
3000
FFC0
FFC0
ENDCHAR
STARTCHAR LATIN
ENCODING 444
SWIDTH 960 0
DWIDTH 10 0
BBX 10 14 0 0
BITMAP
FFC0
FFC0
3000
3000
3F00
3F00
00C0
00C0
00C0
00C0
C0C0
C0C0
3F00
3F00
ENDCHAR
STARTCHAR LATIN
ENCODING 445
SWIDTH 960 0
DWIDTH 10 0
BBX 10 12 0 0
BITMAP
FFC0
FFC0
3000
3000
3F00
3F00
00C0
00C0
C0C0
C0C0
3F00
3F00
ENDCHAR
STARTCHAR LATIN
ENCODING 446
SWIDTH 960 0
DWIDTH 10 0
BBX 10 14 0 2
BITMAP
0C00
0C00
3F00
3F00
0C00
0C00
0300
0300
00C0
00C0
C0C0
C0C0
3F00
3F00
ENDCHAR
STARTCHAR LATIN
ENCODING 447
SWIDTH 960 0
DWIDTH 10 0
BBX 8 14 0 0
BITMAP
CC
CC
F3
F3
C3
C3
CC
CC
F0
F0
C0
C0
C0
C0
ENDCHAR
STARTCHAR LATIN
ENCODING 448
SWIDTH 960 0
DWIDTH 10 0
BBX 2 20 4 -4
BITMAP
C0
C0
C0
C0
C0
C0
C0
C0
C0
C0
C0
C0
C0
C0
C0
C0
C0
C0
C0
C0
ENDCHAR
STARTCHAR LATIN
ENCODING 449
SWIDTH 960 0
DWIDTH 10 0
BBX 6 20 0 -4
BITMAP
CC
CC
CC
CC
CC
CC
CC
CC
CC
CC
CC
CC
CC
CC
CC
CC
CC
CC
CC
CC
ENDCHAR
STARTCHAR LATIN
ENCODING 450
SWIDTH 960 0
DWIDTH 10 0
BBX 10 20 0 -4
BITMAP
0C00
0C00
0C00
0C00
0C00
0C00
FFC0
FFC0
0C00
0C00
0C00
0C00
FFC0
FFC0
0C00
0C00
0C00
0C00
0C00
0C00
ENDCHAR
STARTCHAR LATIN
ENCODING 451
SWIDTH 960 0
DWIDTH 10 0
BBX 2 14 4 0
BITMAP
C0
C0
C0
C0
C0
C0
C0
C0
C0
C0
00
00
C0
C0
ENDCHAR
STARTCHAR LATIN
ENCODING 452
SWIDTH 960 0
DWIDTH 10 0
BBX 12 18 0 0
BITMAP
0330
0330
00C0
00C0
F000
F000
CFF0
CFF0
CC30
CC30
CCC0
CCC0
CCC0
CCC0
CF00
CF00
F3F0
F3F0
ENDCHAR
STARTCHAR LATIN
ENCODING 453
SWIDTH 960 0
DWIDTH 10 0
BBX 12 16 0 0
BITMAP
0330
0330
F0C0
F0C0
CC00
CC00
CFF0
CFF0
CC30
CC30
CCC0
CCC0
CF00
CF00
F3F0
F3F0
ENDCHAR
STARTCHAR LATIN
ENCODING 454
SWIDTH 960 0
DWIDTH 10 0
BBX 12 18 0 0
BITMAP
0C00
0C00
0F30
0F30
0CC0
0CC0
0C00
0C00
3FF0
3FF0
CC30
CC30
CCC0
CCC0
CF00
CF00
3FF0
3FF0
ENDCHAR
STARTCHAR LATIN
ENCODING 455
SWIDTH 960 0
DWIDTH 10 0
BBX 10 14 0 0
BITMAP
C0C0
C0C0
C0C0
C0C0
C0C0
C0C0
C0C0
C0C0
C0C0
C0C0
CCC0
CCC0
F300
F300
ENDCHAR
STARTCHAR LATIN
ENCODING 456
SWIDTH 960 0
DWIDTH 10 0
BBX 10 18 0 -4
BITMAP
C0C0
C0C0
C000
C000
C3C0
C3C0
C0C0
C0C0
C0C0
C0C0
C0C0
C0C0
FCC0
FCC0
00C0
00C0
0F00
0F00
ENDCHAR
STARTCHAR LATIN
ENCODING 457
SWIDTH 960 0
DWIDTH 10 0
BBX 10 18 0 -4
BITMAP
F0C0
F0C0
3000
3000
33C0
33C0
30C0
30C0
30C0
30C0
30C0
30C0
3CC0
3CC0
00C0
00C0
0F00
0F00
ENDCHAR
STARTCHAR LATIN
ENCODING 458
SWIDTH 960 0
DWIDTH 10 0
BBX 10 14 0 0
BITMAP
CCC0
CCC0
CCC0
CCC0
FCC0
FCC0
FCC0
FCC0
FCC0
FCC0
CCC0
CCC0
CF00
CF00
ENDCHAR
STARTCHAR LATIN
ENCODING 459
SWIDTH 960 0
DWIDTH 10 0
BBX 10 18 0 -4
BITMAP
CCC0
CCC0
CC00
CC00
FFC0
FFC0
FCC0
FCC0
FCC0
FCC0
CCC0
CCC0
CCC0
CCC0
00C0
00C0
0F00
0F00
ENDCHAR
STARTCHAR LATIN
ENCODING 460
SWIDTH 960 0
DWIDTH 10 0
BBX 10 18 0 -4
BITMAP
00C0
00C0
0000
0000
F3C0
F3C0
CCC0
CCC0
CCC0
CCC0
CCC0
CCC0
CCC0
CCC0
00C0
00C0
0F00
0F00
ENDCHAR
STARTCHAR uni0041
ENCODING 461
SWIDTH 960 0
DWIDTH 10 0
BBX 8 16 2 0
BITMAP
C3
C3
3C
3C
00
00
3C
3C
C3
C3
FF
FF
C3
C3
C3
C3
ENDCHAR
STARTCHAR uni0061
ENCODING 462
SWIDTH 960 0
DWIDTH 10 0
BBX 8 16 2 0
BITMAP
C3
C3
3C
3C
00
00
3F
3F
C3
C3
C3
C3
CF
CF
33
33
ENDCHAR
STARTCHAR uni0049
ENCODING 463
SWIDTH 960 0
DWIDTH 10 0
BBX 6 16 2 0
BITMAP
CC
CC
30
30
00
00
FC
FC
30
30
30
30
30
30
FC
FC
ENDCHAR
STARTCHAR uni0069
ENCODING 464
SWIDTH 960 0
DWIDTH 10 0
BBX 6 16 4 0
BITMAP
CC
CC
30
30
00
00
F0
F0
30
30
30
30
30
30
30
30
ENDCHAR
STARTCHAR uni004F
ENCODING 465
SWIDTH 960 0
DWIDTH 10 0
BBX 8 16 2 0
BITMAP
C3
C3
3C
3C
00
00
3C
3C
C3
C3
C3
C3
C3
C3
3C
3C
ENDCHAR
STARTCHAR uni004F
ENCODING 466
SWIDTH 960 0
DWIDTH 10 0
BBX 8 14 2 0
BITMAP
C3
C3
3C
3C
00
00
3C
3C
C3
C3
C3
C3
3C
3C
ENDCHAR
STARTCHAR uni0055
ENCODING 467
SWIDTH 960 0
DWIDTH 10 0
BBX 8 16 2 0
BITMAP
33
33
0C
0C
C3
C3
C3
C3
C3
C3
C3
C3
C3
C3
3F
3F
ENDCHAR
STARTCHAR uni0075
ENCODING 468
SWIDTH 960 0
DWIDTH 10 0
BBX 8 14 2 0
BITMAP
C3
C3
3C
3C
00
00
C3
C3
C3
C3
C3
C3
3F
3F
ENDCHAR
STARTCHAR uni0055
ENCODING 469
SWIDTH 960 0
DWIDTH 10 0
BBX 8 16 2 0
BITMAP
FF
FF
0C
0C
C3
C3
C3
C3
C3
C3
C3
C3
C3
C3
3F
3F
ENDCHAR
STARTCHAR uni0075
ENCODING 470
SWIDTH 960 0
DWIDTH 10 0
BBX 8 16 2 0
BITMAP
FF
FF
3C
3C
00
00
C3
C3
C3
C3
C3
C3
C3
C3
3F
3F
ENDCHAR
STARTCHAR uni0055
ENCODING 471
SWIDTH 960 0
DWIDTH 10 0
BBX 8 16 2 0
BITMAP
0C
0C
30
30
F3
F3
C3
C3
C3
C3
C3
C3
C3
C3
3F
3F
ENDCHAR
STARTCHAR uni0075
ENCODING 472
SWIDTH 960 0
DWIDTH 10 0
BBX 8 16 2 0
BITMAP
0C
0C
3C
3C
00
00
C3
C3
C3
C3
C3
C3
C3
C3
3F
3F
ENDCHAR
STARTCHAR uni0055
ENCODING 473
SWIDTH 960 0
DWIDTH 10 0
BBX 8 16 2 0
BITMAP
33
33
0C
0C
F3
F3
C3
C3
C3
C3
C3
C3
C3
C3
3F
3F
ENDCHAR
STARTCHAR uni0075
ENCODING 474
SWIDTH 960 0
DWIDTH 10 0
BBX 8 16 2 0
BITMAP
33
33
0C
0C
33
33
00
00
C3
C3
C3
C3
C3
C3
3F
3F
ENDCHAR
STARTCHAR uni0055
ENCODING 475
SWIDTH 960 0
DWIDTH 10 0
BBX 8 16 2 0
BITMAP
30
30
0C
0C
CF
CF
C3
C3
C3
C3
C3
C3
C3
C3
3F
3F
ENDCHAR
STARTCHAR uni0075
ENCODING 476
SWIDTH 960 0
DWIDTH 10 0
BBX 8 16 2 0
BITMAP
30
30
3C
3C
00
00
C3
C3
C3
C3
C3
C3
C3
C3
3F
3F
ENDCHAR
STARTCHAR uni0065
ENCODING 477
SWIDTH 960 0
DWIDTH 10 0
BBX 8 10 2 0
BITMAP
FC
FC
03
03
FF
FF
C3
C3
3C
3C
ENDCHAR
STARTCHAR uni0041
ENCODING 478
SWIDTH 960 0
DWIDTH 10 0
BBX 8 16 2 0
BITMAP
FF
FF
CC
CC
00
00
3C
3C
C3
C3
FF
FF
C3
C3
C3
C3
ENDCHAR
STARTCHAR uni0061
ENCODING 479
SWIDTH 960 0
DWIDTH 10 0
BBX 8 16 2 0
BITMAP
FF
FF
CC
CC
00
00
3F
3F
C3
C3
C3
C3
CF
CF
33
33
ENDCHAR
STARTCHAR uni0041
ENCODING 480
SWIDTH 960 0
DWIDTH 10 0
BBX 8 16 2 0
BITMAP
FF
FF
3C
3C
00
00
3C
3C
C3
C3
FF
FF
C3
C3
C3
C3
ENDCHAR
STARTCHAR uni0061
ENCODING 481
SWIDTH 960 0
DWIDTH 10 0
BBX 8 16 2 0
BITMAP
FF
FF
3C
3C
00
00
3F
3F
C3
C3
C3
C3
CF
CF
33
33
ENDCHAR
STARTCHAR LATIN
ENCODING 482
SWIDTH 960 0
DWIDTH 10 0
BBX 10 18 0 0
BITMAP
3F00
3F00
0000
0000
3FC0
3FC0
CC00
CC00
CC00
CC00
FF00
FF00
CC00
CC00
CC00
CC00
CFC0
CFC0
ENDCHAR
STARTCHAR LATIN
ENCODING 483
SWIDTH 960 0
DWIDTH 10 0
BBX 10 14 0 0
BITMAP
3F00
3F00
0000
0000
3F00
3F00
CCC0
CCC0
CFC0
CFC0
CC00
CC00
3FC0
3FC0
ENDCHAR
STARTCHAR uni0047
ENCODING 484
SWIDTH 960 0
DWIDTH 10 0
BBX 8 12 2 0
BITMAP
3F
3F
C0
C0
C0
C0
CF
CF
CF
CF
3F
3F
ENDCHAR
STARTCHAR uni0067
ENCODING 485
SWIDTH 960 0
DWIDTH 10 0
BBX 8 14 2 -4
BITMAP
3F
3F
C3
C3
C3
C3
CF
CF
3F
3F
33
33
3C
3C
ENDCHAR
STARTCHAR uni0047
ENCODING 486
SWIDTH 960 0
DWIDTH 10 0
BBX 8 16 2 0
BITMAP
33
33
0C
0C
00
00
3F
3F
C0
C0
CF
CF
C3
C3
3F
3F
ENDCHAR
STARTCHAR uni0067
ENCODING 487
SWIDTH 960 0
DWIDTH 10 0
BBX 8 20 2 -4
BITMAP
33
33
0C
0C
00
00
3F
3F
C3
C3
C3
C3
CF
CF
33
33
03
03
3C
3C
ENDCHAR
STARTCHAR uni004B
ENCODING 488
SWIDTH 960 0
DWIDTH 10 0
BBX 8 12 2 0
BITMAP
C3
C3
CC
CC
F0
F0
CC
CC
C3
C3
C3
C3
ENDCHAR
STARTCHAR uni006B
ENCODING 489
SWIDTH 960 0
DWIDTH 10 0
BBX 8 14 2 0
BITMAP
C0
C0
C0
C0
C3
C3
CC
CC
FC
FC
C3
C3
C3
C3
ENDCHAR
STARTCHAR uni0051
ENCODING 490
SWIDTH 960 0
DWIDTH 10 0
BBX 8 14 2 -2
BITMAP
3C
3C
C3
C3
C3
C3
C3
C3
C3
C3
3C
3C
0F
0F
ENDCHAR
STARTCHAR uni0051
ENCODING 491
SWIDTH 960 0
DWIDTH 10 0
BBX 8 12 2 -2
BITMAP
3C
3C
C3
C3
C3
C3
C3
C3
3C
3C
0F
0F
ENDCHAR
STARTCHAR uni0051
ENCODING 492
SWIDTH 960 0
DWIDTH 10 0
BBX 8 18 2 -2
BITMAP
33
33
0C
0C
3C
3C
C3
C3
C3
C3
C3
C3
C3
C3
3C
3C
0F
0F
ENDCHAR
STARTCHAR uni0051
ENCODING 493
SWIDTH 960 0
DWIDTH 10 0
BBX 8 18 2 -2
BITMAP
33
33
0C
0C
00
00
3C
3C
C3
C3
C3
C3
C3
C3
3C
3C
0F
0F
ENDCHAR
STARTCHAR LATIN
ENCODING 494
SWIDTH 960 0
DWIDTH 10 0
BBX 8 16 2 0
BITMAP
33
33
0C
0C
FF
FF
03
03
0C
0C
03
03
C3
C3
3C
3C
ENDCHAR
STARTCHAR LATIN
ENCODING 495
SWIDTH 960 0
DWIDTH 10 0
BBX 8 18 2 -2
BITMAP
33
33
0C
0C
00
00
FF
FF
03
03
0C
0C
03
03
C3
C3
3C
3C
ENDCHAR
STARTCHAR uni006A
ENCODING 496
SWIDTH 960 0
DWIDTH 10 0
BBX 8 20 2 -4
BITMAP
33
33
0C
0C
00
00
3C
3C
0C
0C
0C
0C
0C
0C
0C
0C
0C
0C
F0
F0
ENDCHAR
STARTCHAR LATIN
ENCODING 497
SWIDTH 960 0
DWIDTH 10 0
BBX 12 14 0 0
BITMAP
F3F0
F3F0
CC30
CC30
CCC0
CCC0
CCC0
CCC0
CCC0
CCC0
CF00
CF00
F3F0
F3F0
ENDCHAR
STARTCHAR LATIN
ENCODING 498
SWIDTH 960 0
DWIDTH 10 0
BBX 12 14 0 0
BITMAP
F000
F000
CC00
CC00
CFF0
CFF0
CC30
CC30
CCC0
CCC0
CF00
CF00
F3F0
F3F0
ENDCHAR
STARTCHAR LATIN
ENCODING 499
SWIDTH 960 0
DWIDTH 10 0
BBX 12 14 0 0
BITMAP
0C00
0C00
0C00
0C00
3FF0
3FF0
CC30
CC30
CCC0
CCC0
CF00
CF00
3FF0
3FF0
ENDCHAR
STARTCHAR uni0047
ENCODING 500
SWIDTH 960 0
DWIDTH 10 0
BBX 8 16 2 0
BITMAP
33
33
0C
0C
3F
3F
C0
C0
C0
C0
CF
CF
C3
C3
3F
3F
ENDCHAR
STARTCHAR uni0067
ENCODING 501
SWIDTH 960 0
DWIDTH 10 0
BBX 8 20 2 -4
BITMAP
33
33
0C
0C
00
00
3F
3F
C3
C3
C3
C3
CF
CF
33
33
03
03
3C
3C
ENDCHAR
STARTCHAR LATIN
ENCODING 502
SWIDTH 960 0
DWIDTH 10 0
BBX 10 14 0 0
BITMAP
CC00
CC00
CC00
CC00
CCC0
CCC0
FCC0
FCC0
CCC0
CCC0
CCC0
CCC0
C300
C300
ENDCHAR
STARTCHAR LATIN
ENCODING 503
SWIDTH 960 0
DWIDTH 10 0
BBX 10 14 0 0
BITMAP
CF00
CF00
F0C0
F0C0
C0C0
C0C0
C300
C300
CC00
CC00
F000
F000
C000
C000
ENDCHAR
STARTCHAR uni004E
ENCODING 504
SWIDTH 960 0
DWIDTH 10 0
BBX 8 16 2 0
BITMAP
30
30
0C
0C
C3
C3
F3
F3
F3
F3
CF
CF
CF
CF
C3
C3
ENDCHAR
STARTCHAR uni006E
ENCODING 505
SWIDTH 960 0
DWIDTH 10 0
BBX 8 16 2 0
BITMAP
30
30
0C
0C
00
00
FC
FC
C3
C3
C3
C3
C3
C3
C3
C3
ENDCHAR
STARTCHAR uni0041
ENCODING 506
SWIDTH 960 0
DWIDTH 10 0
BBX 8 16 2 0
BITMAP
3C
3C
F0
F0
30
30
3C
3C
C3
C3
FF
FF
C3
C3
C3
C3
ENDCHAR
STARTCHAR uni0061
ENCODING 507
SWIDTH 960 0
DWIDTH 10 0
BBX 8 16 2 0
BITMAP
3C
3C
F0
F0
30
30
3F
3F
C3
C3
C3
C3
CF
CF
33
33
ENDCHAR
STARTCHAR char198
ENCODING 508
SWIDTH 960 0
DWIDTH 10 0
BBX 12 16 0 0
BITMAP
0300
0300
0C00
0C00
3FF0
3FF0
C300
C300
C3C0
C3C0
FF00
FF00
C300
C300
C3F0
C3F0
ENDCHAR
STARTCHAR char230
ENCODING 509
SWIDTH 960 0
DWIDTH 10 0
BBX 10 14 2 0
BITMAP
0300
0300
0C00
0C00
3F00
3F00
CCC0
CCC0
CFC0
CFC0
CC00
CC00
33C0
33C0
ENDCHAR
STARTCHAR char216
ENCODING 510
SWIDTH 960 0
DWIDTH 10 0
BBX 12 16 0 0
BITMAP
00C0
00C0
0330
0330
0F30
0F30
33C0
33C0
33C0
33C0
3CC0
3CC0
3CC0
3CC0
CF00
CF00
ENDCHAR
STARTCHAR char248
ENCODING 511
SWIDTH 960 0
DWIDTH 10 0
BBX 12 16 0 0
BITMAP
00C0
00C0
0330
0330
0000
0000
0F30
0F30
33C0
33C0
3FC0
3FC0
3CC0
3CC0
CF00
CF00
ENDCHAR
STARTCHAR uni0041
ENCODING 512
SWIDTH 960 0
DWIDTH 10 0
BBX 8 16 2 0
BITMAP
CC
CC
33
33
3C
3C
C3
C3
C3
C3
FF
FF
C3
C3
C3
C3
ENDCHAR
STARTCHAR uni0061
ENCODING 513
SWIDTH 960 0
DWIDTH 10 0
BBX 8 16 2 0
BITMAP
CC
CC
33
33
00
00
3F
3F
C3
C3
C3
C3
CF
CF
33
33
ENDCHAR
STARTCHAR uni0041
ENCODING 514
SWIDTH 960 0
DWIDTH 10 0
BBX 8 16 2 0
BITMAP
3C
3C
C3
C3
3C
3C
C3
C3
C3
C3
FF
FF
C3
C3
C3
C3
ENDCHAR
STARTCHAR uni0061
ENCODING 515
SWIDTH 960 0
DWIDTH 10 0
BBX 8 16 2 0
BITMAP
3C
3C
C3
C3
00
00
3F
3F
C3
C3
C3
C3
CF
CF
33
33
ENDCHAR
STARTCHAR uni0045
ENCODING 516
SWIDTH 960 0
DWIDTH 10 0
BBX 8 16 2 0
BITMAP
CC
CC
33
33
FF
FF
C0
C0
FC
FC
C0
C0
C0
C0
FF
FF
ENDCHAR
STARTCHAR uni0065
ENCODING 517
SWIDTH 960 0
DWIDTH 10 0
BBX 8 16 2 0
BITMAP
CC
CC
33
33
00
00
3C
3C
C3
C3
FF
FF
C0
C0
3F
3F
ENDCHAR
STARTCHAR uni0045
ENCODING 518
SWIDTH 960 0
DWIDTH 10 0
BBX 8 16 2 0
BITMAP
3C
3C
C3
C3
FF
FF
C0
C0
FC
FC
C0
C0
C0
C0
FF
FF
ENDCHAR
STARTCHAR uni0065
ENCODING 519
SWIDTH 960 0
DWIDTH 10 0
BBX 8 14 2 0
BITMAP
3C
3C
C3
C3
3C
3C
C3
C3
FF
FF
C0
C0
3F
3F
ENDCHAR
STARTCHAR uni0049
ENCODING 520
SWIDTH 960 0
DWIDTH 10 0
BBX 8 16 2 0
BITMAP
CC
CC
33
33
FC
FC
30
30
30
30
30
30
30
30
FC
FC
ENDCHAR
STARTCHAR uni0069
ENCODING 521
SWIDTH 960 0
DWIDTH 10 0
BBX 8 16 2 0
BITMAP
CC
CC
33
33
00
00
3C
3C
0C
0C
0C
0C
0C
0C
0C
0C
ENDCHAR
STARTCHAR uni0049
ENCODING 522
SWIDTH 960 0
DWIDTH 10 0
BBX 10 16 0 0
BITMAP
3F00
3F00
C0C0
C0C0
0000
0000
3F00
3F00
0C00
0C00
0C00
0C00
0C00
0C00
3F00
3F00
ENDCHAR
STARTCHAR uni0069
ENCODING 523
SWIDTH 960 0
DWIDTH 10 0
BBX 8 16 2 0
BITMAP
3C
3C
C3
C3
00
00
00
00
3C
3C
0C
0C
0C
0C
0C
0C
ENDCHAR
STARTCHAR LATIN
ENCODING 524
SWIDTH 960 0
DWIDTH 10 0
BBX 10 18 0 0
BITMAP
CC00
CC00
3300
3300
0000
0000
0F00
0F00
30C0
30C0
30C0
30C0
30C0
30C0
30C0
30C0
0F00
0F00
ENDCHAR
STARTCHAR LATIN
ENCODING 525
SWIDTH 960 0
DWIDTH 10 0
BBX 10 16 0 0
BITMAP
CC00
CC00
3300
3300
0000
0000
0F00
0F00
30C0
30C0
30C0
30C0
30C0
30C0
0F00
0F00
ENDCHAR
STARTCHAR LATIN
ENCODING 526
SWIDTH 960 0
DWIDTH 10 0
BBX 8 18 2 0
BITMAP
3C
3C
C3
C3
00
00
3C
3C
C3
C3
C3
C3
C3
C3
C3
C3
3C
3C
ENDCHAR
STARTCHAR LATIN
ENCODING 527
SWIDTH 960 0
DWIDTH 10 0
BBX 8 16 2 0
BITMAP
3C
3C
C3
C3
00
00
3C
3C
C3
C3
C3
C3
C3
C3
3C
3C
ENDCHAR
STARTCHAR uni0052
ENCODING 528
SWIDTH 960 0
DWIDTH 10 0
BBX 8 16 2 0
BITMAP
CC
CC
33
33
FC
FC
C3
C3
C3
C3
FC
FC
C3
C3
C3
C3
ENDCHAR
STARTCHAR uni0072
ENCODING 529
SWIDTH 960 0
DWIDTH 10 0
BBX 8 16 2 0
BITMAP
CC
CC
33
33
00
00
CF
CF
F0
F0
C0
C0
C0
C0
C0
C0
ENDCHAR
STARTCHAR uni0052
ENCODING 530
SWIDTH 960 0
DWIDTH 10 0
BBX 8 16 2 0
BITMAP
3C
3C
C3
C3
FC
FC
C3
C3
C3
C3
FC
FC
C3
C3
C3
C3
ENDCHAR
STARTCHAR uni0072
ENCODING 531
SWIDTH 960 0
DWIDTH 10 0
BBX 8 16 2 0
BITMAP
3C
3C
C3
C3
00
00
CF
CF
F0
F0
C0
C0
C0
C0
C0
C0
ENDCHAR
STARTCHAR uni0055
ENCODING 532
SWIDTH 960 0
DWIDTH 10 0
BBX 8 16 2 0
BITMAP
CC
CC
33
33
C0
C0
C3
C3
C3
C3
C3
C3
C3
C3
3F
3F
ENDCHAR
STARTCHAR uni0075
ENCODING 533
SWIDTH 960 0
DWIDTH 10 0
BBX 8 16 2 0
BITMAP
CC
CC
33
33
00
00
C3
C3
C3
C3
C3
C3
C3
C3
3F
3F
ENDCHAR
STARTCHAR uni0055
ENCODING 534
SWIDTH 960 0
DWIDTH 10 0
BBX 8 16 2 0
BITMAP
3C
3C
C3
C3
00
00
C3
C3
C3
C3
C3
C3
C3
C3
3F
3F
ENDCHAR
STARTCHAR uni0075
ENCODING 535
SWIDTH 960 0
DWIDTH 10 0
BBX 8 16 2 0
BITMAP
3C
3C
C3
C3
00
00
00
00
C3
C3
C3
C3
C3
C3
3F
3F
ENDCHAR
STARTCHAR uni0053
ENCODING 536
SWIDTH 960 0
DWIDTH 10 0
BBX 8 14 2 -2
BITMAP
3F
3F
C0
C0
3C
3C
03
03
03
03
FC
FC
30
30
ENDCHAR
STARTCHAR uni0073
ENCODING 537
SWIDTH 960 0
DWIDTH 10 0
BBX 8 12 2 -2
BITMAP
3F
3F
C0
C0
3C
3C
03
03
FC
FC
30
30
ENDCHAR
STARTCHAR uni0054
ENCODING 538
SWIDTH 960 0
DWIDTH 10 0
BBX 10 14 0 -2
BITMAP
FFC0
FFC0
0C00
0C00
0C00
0C00
0C00
0C00
0C00
0C00
0C00
0C00
3000
3000
ENDCHAR
STARTCHAR uni0074
ENCODING 539
SWIDTH 960 0
DWIDTH 10 0
BBX 6 14 2 -2
BITMAP
30
30
FC
FC
30
30
30
30
30
30
3C
3C
C0
C0
ENDCHAR
STARTCHAR LATIN
ENCODING 540
SWIDTH 960 0
DWIDTH 10 0
BBX 8 16 2 -2
BITMAP
3C
3C
C3
C3
03
03
3C
3C
C3
C3
03
03
3C
3C
C0
C0
ENDCHAR
STARTCHAR LATIN
ENCODING 541
SWIDTH 960 0
DWIDTH 10 0
BBX 8 12 2 0
BITMAP
3C
3C
03
03
3C
3C
C3
C3
0C
0C
F0
F0
ENDCHAR
STARTCHAR uni0048
ENCODING 542
SWIDTH 960 0
DWIDTH 10 0
BBX 8 16 2 0
BITMAP
33
33
0C
0C
C3
C3
C3
C3
FF
FF
C3
C3
C3
C3
C3
C3
ENDCHAR
STARTCHAR uni0068
ENCODING 543
SWIDTH 960 0
DWIDTH 10 0
BBX 8 16 2 0
BITMAP
33
33
CC
CC
C0
C0
FC
FC
C3
C3
C3
C3
C3
C3
C3
C3
ENDCHAR
STARTCHAR LATIN
ENCODING 544
SWIDTH 960 0
DWIDTH 10 0
BBX 10 16 2 -4
BITMAP
CF00
CF00
F0C0
F0C0
C0C0
C0C0
C0C0
C0C0
C0C0
C0C0
C0C0
C0C0
00C0
00C0
00C0
00C0
ENDCHAR
STARTCHAR LATIN
ENCODING 545
SWIDTH 960 0
DWIDTH 10 0
BBX 12 16 0 -2
BITMAP
0300
0300
0300
0300
3F00
3F00
C300
C300
C300
C300
C3C0
C3C0
3F30
3F30
0CC0
0CC0
ENDCHAR
STARTCHAR LATIN
ENCODING 546
SWIDTH 960 0
DWIDTH 10 0
BBX 10 16 0 0
BITMAP
0F00
0F00
00C0
00C0
30C0
30C0
C0C0
C0C0
3F00
3F00
C0C0
C0C0
C0C0
C0C0
3F00
3F00
ENDCHAR
STARTCHAR LATIN
ENCODING 547
SWIDTH 960 0
DWIDTH 10 0
BBX 10 14 0 0
BITMAP
3300
3300
C0C0
C0C0
C0C0
C0C0
3F00
3F00
C0C0
C0C0
C0C0
C0C0
3F00
3F00
ENDCHAR
STARTCHAR uni005A
ENCODING 548
SWIDTH 960 0
DWIDTH 10 0
BBX 10 14 2 -2
BITMAP
FF00
FF00
0300
0300
0C00
0C00
3000
3000
C000
C000
FF00
FF00
00C0
00C0
ENDCHAR
STARTCHAR uni007A
ENCODING 549
SWIDTH 960 0
DWIDTH 10 0
BBX 10 12 2 -2
BITMAP
FF00
FF00
0C00
0C00
3000
3000
C000
C000
FF00
FF00
00C0
00C0
ENDCHAR
STARTCHAR uni0041
ENCODING 550
SWIDTH 960 0
DWIDTH 10 0
BBX 8 16 2 0
BITMAP
0C
0C
00
00
3C
3C
C3
C3
C3
C3
FF
FF
C3
C3
C3
C3
ENDCHAR
STARTCHAR uni0061
ENCODING 551
SWIDTH 960 0
DWIDTH 10 0
BBX 8 14 2 0
BITMAP
0C
0C
00
00
3F
3F
C3
C3
C3
C3
CF
CF
33
33
ENDCHAR
STARTCHAR uni0045
ENCODING 552
SWIDTH 960 0
DWIDTH 10 0
BBX 8 14 2 -2
BITMAP
FF
FF
C0
C0
FC
FC
C0
C0
C0
C0
FF
FF
30
30
ENDCHAR
STARTCHAR uni0065
ENCODING 553
SWIDTH 960 0
DWIDTH 10 0
BBX 8 12 2 -2
BITMAP
3C
3C
C3
C3
FF
FF
C0
C0
3F
3F
C0
C0
ENDCHAR
STARTCHAR LATIN
ENCODING 554
SWIDTH 960 0
DWIDTH 10 0
BBX 8 16 2 0
BITMAP
FF
FF
00
00
C3
C3
3C
3C
C3
C3
C3
C3
C3
C3
3C
3C
ENDCHAR
STARTCHAR LATIN
ENCODING 555
SWIDTH 960 0
DWIDTH 10 0
BBX 8 16 2 0
BITMAP
FF
FF
00
00
C3
C3
00
00
3C
3C
C3
C3
C3
C3
3C
3C
ENDCHAR
STARTCHAR LATIN
ENCODING 556
SWIDTH 960 0
DWIDTH 10 0
BBX 8 18 2 0
BITMAP
3F
3F
33
33
CC
CC
3C
3C
C3
C3
C3
C3
C3
C3
C3
C3
3C
3C
ENDCHAR
STARTCHAR LATIN
ENCODING 557
SWIDTH 960 0
DWIDTH 10 0
BBX 8 18 2 0
BITMAP
FC
FC
33
33
CC
CC
00
00
3C
3C
C3
C3
C3
C3
C3
C3
3C
3C
ENDCHAR
STARTCHAR LATIN
ENCODING 558
SWIDTH 960 0
DWIDTH 10 0
BBX 8 16 2 0
BITMAP
0C
0C
00
00
3C
3C
C3
C3
C3
C3
C3
C3
C3
C3
3C
3C
ENDCHAR
STARTCHAR LATIN
ENCODING 559
SWIDTH 960 0
DWIDTH 10 0
BBX 8 16 2 0
BITMAP
0C
0C
00
00
00
00
3C
3C
C3
C3
C3
C3
C3
C3
3C
3C
ENDCHAR
STARTCHAR LATIN
ENCODING 560
SWIDTH 960 0
DWIDTH 10 0
BBX 8 16 2 0
BITMAP
FF
FF
00
00
0C
0C
3C
3C
C3
C3
C3
C3
C3
C3
3C
3C
ENDCHAR
STARTCHAR LATIN
ENCODING 561
SWIDTH 960 0
DWIDTH 10 0
BBX 8 16 2 0
BITMAP
FF
FF
00
00
0C
0C
00
00
3C
3C
C3
C3
C3
C3
3C
3C
ENDCHAR
STARTCHAR uni0059
ENCODING 562
SWIDTH 960 0
DWIDTH 10 0
BBX 10 16 0 0
BITMAP
3F00
3F00
0000
0000
C0C0
C0C0
3300
3300
0C00
0C00
0C00
0C00
0C00
0C00
0C00
0C00
ENDCHAR
STARTCHAR uni0079
ENCODING 563
SWIDTH 960 0
DWIDTH 10 0
BBX 8 18 2 -4
BITMAP
3C
3C
00
00
C3
C3
C3
C3
C3
C3
C3
C3
3F
3F
03
03
3C
3C
ENDCHAR
STARTCHAR LATIN
ENCODING 564
SWIDTH 960 0
DWIDTH 10 0
BBX 8 14 2 0
BITMAP
F0
F0
30
30
30
30
30
30
3C
3C
F3
F3
3C
3C
ENDCHAR
STARTCHAR LATIN
ENCODING 565
SWIDTH 960 0
DWIDTH 10 0
BBX 12 12 0 -2
BITMAP
CF00
CF00
F0C0
F0C0
C0C0
C0C0
C3C0
C3C0
CF30
CF30
00C0
00C0
ENDCHAR
STARTCHAR LATIN
ENCODING 566
SWIDTH 960 0
DWIDTH 10 0
BBX 10 14 2 0
BITMAP
3000
3000
3000
3000
FF00
FF00
3000
3000
3300
3300
3CC0
3CC0
3F00
3F00
ENDCHAR
STARTCHAR LATIN
ENCODING 567
SWIDTH 960 0
DWIDTH 10 0
BBX 6 14 0 -4
BITMAP
3C
3C
0C
0C
0C
0C
0C
0C
0C
0C
0C
0C
F0
F0
ENDCHAR
STARTCHAR LATIN
ENCODING 568
SWIDTH 960 0
DWIDTH 10 0
BBX 10 14 0 0
BITMAP
0C00
0C00
0C00
0C00
3F00
3F00
CCC0
CCC0
CCC0
CCC0
CCC0
CCC0
3F00
3F00
ENDCHAR
STARTCHAR LATIN
ENCODING 569
SWIDTH 960 0
DWIDTH 10 0
BBX 10 14 0 -4
BITMAP
3F00
3F00
CCC0
CCC0
CCC0
CCC0
CCC0
CCC0
3F00
3F00
0C00
0C00
0C00
0C00
ENDCHAR
STARTCHAR uni0041
ENCODING 570
SWIDTH 960 0
DWIDTH 10 0
BBX 10 14 0 0
BITMAP
00C0
00C0
0F00
0F00
33C0
33C0
3CC0
3CC0
3FC0
3FC0
30C0
30C0
F0C0
F0C0
ENDCHAR
STARTCHAR uni0043
ENCODING 571
SWIDTH 960 0
DWIDTH 10 0
BBX 10 14 0 0
BITMAP
00C0
00C0
0FC0
0FC0
3300
3300
3C00
3C00
3C00
3C00
F000
F000
CFC0
CFC0
ENDCHAR
STARTCHAR uni0063
ENCODING 572
SWIDTH 960 0
DWIDTH 10 0
BBX 10 12 0 0
BITMAP
00C0
00C0
0FC0
0FC0
3300
3300
3C00
3C00
3000
3000
CFC0
CFC0
ENDCHAR
STARTCHAR LATIN
ENCODING 573
SWIDTH 960 0
DWIDTH 10 0
BBX 12 14 0 0
BITMAP
3000
3000
3000
3000
3000
3000
FF00
FF00
3000
3000
3000
3000
3FF0
3FF0
ENDCHAR
STARTCHAR LATIN
ENCODING 574
SWIDTH 960 0
DWIDTH 10 0
BBX 10 16 0 0
BITMAP
00C0
00C0
FFC0
FFC0
0F00
0F00
0F00
0F00
3C00
3C00
3C00
3C00
CC00
CC00
CC00
CC00
ENDCHAR
STARTCHAR uni0073
ENCODING 575
SWIDTH 960 0
DWIDTH 10 0
BBX 10 14 2 -4
BITMAP
3F00
3F00
C000
C000
3C00
3C00
0300
0300
FC00
FC00
30C0
30C0
0F00
0F00
ENDCHAR
STARTCHAR uni007A
ENCODING 576
SWIDTH 960 0
DWIDTH 10 0
BBX 8 14 2 -4
BITMAP
FF
FF
0C
0C
30
30
C0
C0
FF
FF
30
30
0F
0F
ENDCHAR
STARTCHAR LATIN
ENCODING 577
SWIDTH 960 0
DWIDTH 10 0
BBX 10 14 0 2
BITMAP
3F00
3F00
C0C0
C0C0
00C0
00C0
0300
0300
0C00
0C00
0C00
0C00
0C00
0C00
ENDCHAR
STARTCHAR LATIN
ENCODING 578
SWIDTH 960 0
DWIDTH 10 0
BBX 10 12 0 2
BITMAP
3F00
3F00
C0C0
C0C0
00C0
00C0
0300
0300
0C00
0C00
0C00
0C00
ENDCHAR
STARTCHAR uni0042
ENCODING 579
SWIDTH 960 0
DWIDTH 10 0
BBX 12 12 0 0
BITMAP
3F00
3F00
30F0
30F0
3F00
3F00
3CC0
3CC0
F0C0
F0C0
3F00
3F00
ENDCHAR
STARTCHAR uni0041
ENCODING 580
SWIDTH 960 0
DWIDTH 10 0
BBX 8 12 2 0
BITMAP
C3
C3
C3
C3
FF
FF
C3
C3
C3
C3
3C
3C
ENDCHAR
STARTCHAR uni0056
ENCODING 581
SWIDTH 960 0
DWIDTH 10 0
BBX 8 12 2 0
BITMAP
3C
3C
3C
3C
3C
3C
C3
C3
C3
C3
C3
C3
ENDCHAR
STARTCHAR LATIN
ENCODING 582
SWIDTH 960 0
DWIDTH 10 0
BBX 10 20 0 -4
BITMAP
00C0
00C0
FFC0
FFC0
C300
C300
C300
C300
FF00
FF00
CC00
CC00
F000
F000
FFC0
FFC0
C000
C000
C000
C000
ENDCHAR
STARTCHAR LATIN
ENCODING 583
SWIDTH 960 0
DWIDTH 10 0
BBX 10 20 0 -4
BITMAP
00C0
00C0
00C0
00C0
0300
0300
3F00
3F00
CCC0
CCC0
FFC0
FFC0
F000
F000
3F00
3F00
C000
C000
C000
C000
ENDCHAR
STARTCHAR LATIN
ENCODING 584
SWIDTH 960 0
DWIDTH 10 0
BBX 12 14 0 0
BITMAP
00C0
00C0
00C0
00C0
00C0
00C0
03F0
03F0
00C0
00C0
C0C0
C0C0
3F00
3F00
ENDCHAR
STARTCHAR LATIN
ENCODING 585
SWIDTH 960 0
DWIDTH 10 0
BBX 8 18 0 -4
BITMAP
0C
0C
00
00
3C
3C
0C
0C
3F
3F
0C
0C
0C
0C
0C
0C
F0
F0
ENDCHAR
STARTCHAR uni0071
ENCODING 586
SWIDTH 960 0
DWIDTH 10 0
BBX 10 16 2 -4
BITMAP
3F00
3F00
C300
C300
C300
C300
C300
C300
C300
C300
3F00
3F00
0300
0300
00C0
00C0
ENDCHAR
STARTCHAR uni0071
ENCODING 587
SWIDTH 960 0
DWIDTH 10 0
BBX 10 14 2 -4
BITMAP
3F00
3F00
C300
C300
C300
C300
C300
C300
3F00
3F00
0300
0300
00C0
00C0
ENDCHAR
STARTCHAR uni0052
ENCODING 588
SWIDTH 960 0
DWIDTH 10 0
BBX 10 12 0 0
BITMAP
3F00
3F00
30C0
30C0
30C0
30C0
FF00
FF00
30C0
30C0
30C0
30C0
ENDCHAR
STARTCHAR uni0072
ENCODING 589
SWIDTH 960 0
DWIDTH 10 0
BBX 10 10 0 0
BITMAP
33C0
33C0
FC00
FC00
3000
3000
3000
3000
3000
3000
ENDCHAR
STARTCHAR uni0059
ENCODING 590
SWIDTH 960 0
DWIDTH 10 0
BBX 10 12 0 0
BITMAP
C0C0
C0C0
3F00
3F00
3300
3300
0C00
0C00
0C00
0C00
0C00
0C00
ENDCHAR
STARTCHAR uni0079
ENCODING 591
SWIDTH 960 0
DWIDTH 10 0
BBX 8 14 2 -4
BITMAP
C3
C3
FF
FF
C3
C3
C3
C3
3F
3F
03
03
3C
3C
ENDCHAR
STARTCHAR uni0061
ENCODING 592
SWIDTH 960 0
DWIDTH 10 0
BBX 8 10 2 0
BITMAP
CC
CC
F3
F3
C3
C3
C3
C3
FC
FC
ENDCHAR
STARTCHAR uni0061
ENCODING 593
SWIDTH 960 0
DWIDTH 10 0
BBX 8 10 2 0
BITMAP
33
33
CF
CF
C3
C3
CF
CF
33
33
ENDCHAR
STARTCHAR uni0061
ENCODING 594
SWIDTH 960 0
DWIDTH 10 0
BBX 8 10 2 0
BITMAP
CC
CC
F3
F3
C3
C3
F3
F3
CC
CC
ENDCHAR
STARTCHAR uni0062
ENCODING 595
SWIDTH 960 0
DWIDTH 10 0
BBX 8 14 2 0
BITMAP
C0
C0
C0
C0
FC
FC
C3
C3
C3
C3
C3
C3
FC
FC
ENDCHAR
STARTCHAR uni0063
ENCODING 596
SWIDTH 960 0
DWIDTH 10 0
BBX 8 10 2 0
BITMAP
3C
3C
C3
C3
C0
C0
C3
C3
3C
3C
ENDCHAR
STARTCHAR uni0063
ENCODING 597
SWIDTH 960 0
DWIDTH 10 0
BBX 8 10 2 0
BITMAP
3C
3C
C3
C3
C0
C0
CF
CF
3C
3C
ENDCHAR
STARTCHAR uni0064
ENCODING 598
SWIDTH 960 0
DWIDTH 10 0
BBX 10 16 2 -2
BITMAP
0300
0300
0300
0300
3F00
3F00
C300
C300
C300
C300
CF00
CF00
3300
3300
00C0
00C0
ENDCHAR
STARTCHAR uni0064
ENCODING 599
SWIDTH 960 0
DWIDTH 10 0
BBX 10 16 2 0
BITMAP
00C0
00C0
0300
0300
0300
0300
3F00
3F00
C300
C300
C300
C300
CF00
CF00
3300
3300
ENDCHAR
STARTCHAR uni0065
ENCODING 600
SWIDTH 960 0
DWIDTH 10 0
BBX 8 10 2 0
BITMAP
3C
3C
C3
C3
FF
FF
03
03
FC
FC
ENDCHAR
STARTCHAR uni0065
ENCODING 601
SWIDTH 960 0
DWIDTH 10 0
BBX 8 10 2 0
BITMAP
FC
FC
03
03
FF
FF
C3
C3
3C
3C
ENDCHAR
STARTCHAR uni0065
ENCODING 602
SWIDTH 960 0
DWIDTH 10 0
BBX 10 10 2 0
BITMAP
FCC0
FCC0
0300
0300
FF00
FF00
C300
C300
3C00
3C00
ENDCHAR
STARTCHAR uni0033
ENCODING 603
SWIDTH 960 0
DWIDTH 10 0
BBX 8 12 2 0
BITMAP
3F
3F
C0
C0
3C
3C
C0
C0
C0
C0
3F
3F
ENDCHAR
STARTCHAR uni0033
ENCODING 604
SWIDTH 960 0
DWIDTH 10 0
BBX 8 12 2 0
BITMAP
FC
FC
03
03
3C
3C
03
03
03
03
FC
FC
ENDCHAR
STARTCHAR uni0033
ENCODING 605
SWIDTH 960 0
DWIDTH 10 0
BBX 10 12 2 0
BITMAP
FCC0
FCC0
0300
0300
3C00
3C00
0300
0300
0300
0300
FC00
FC00
ENDCHAR
STARTCHAR char223
ENCODING 606
SWIDTH 960 0
DWIDTH 10 0
BBX 8 12 2 0
BITMAP
3C
3C
C3
C3
CC
CC
C3
C3
C3
C3
3C
3C
ENDCHAR
STARTCHAR uni006A
ENCODING 607
SWIDTH 960 0
DWIDTH 10 0
BBX 8 14 2 -4
BITMAP
3C
3C
0C
0C
0F
0F
3C
3C
0C
0C
0C
0C
F0
F0
ENDCHAR
STARTCHAR uni0067
ENCODING 608
SWIDTH 960 0
DWIDTH 10 0
BBX 10 16 2 -4
BITMAP
00C0
00C0
3F00
3F00
C300
C300
C300
C300
CF00
CF00
3300
3300
0300
0300
3C00
3C00
ENDCHAR
STARTCHAR uni0067
ENCODING 609
SWIDTH 960 0
DWIDTH 10 0
BBX 8 14 2 -4
BITMAP
3F
3F
C3
C3
C3
C3
CF
CF
33
33
03
03
3C
3C
ENDCHAR
STARTCHAR uni0047
ENCODING 610
SWIDTH 960 0
DWIDTH 10 0
BBX 8 10 2 0
BITMAP
3F
3F
C0
C0
CF
CF
C3
C3
3F
3F
ENDCHAR
STARTCHAR uni0076
ENCODING 611
SWIDTH 960 0
DWIDTH 10 0
BBX 8 14 2 -4
BITMAP
C3
C3
C3
C3
C3
C3
3C
3C
3C
3C
C3
C3
3C
3C
ENDCHAR
STARTCHAR uni0076
ENCODING 612
SWIDTH 960 0
DWIDTH 10 0
BBX 12 14 0 -4
BITMAP
C030
C030
30C0
30C0
30C0
30C0
0F00
0F00
0F00
0F00
30C0
30C0
0F00
0F00
ENDCHAR
STARTCHAR uni0068
ENCODING 613
SWIDTH 960 0
DWIDTH 10 0
BBX 8 14 2 0
BITMAP
C3
C3
C3
C3
C3
C3
C3
C3
3F
3F
03
03
03
03
ENDCHAR
STARTCHAR uni0068
ENCODING 614
SWIDTH 960 0
DWIDTH 10 0
BBX 8 16 2 0
BITMAP
3C
3C
C0
C0
C0
C0
FC
FC
C3
C3
C3
C3
C3
C3
C3
C3
ENDCHAR
STARTCHAR uni0068
ENCODING 615
SWIDTH 960 0
DWIDTH 10 0
BBX 8 18 2 -2
BITMAP
3C
3C
C0
C0
C0
C0
FC
FC
C3
C3
C3
C3
C3
C3
C3
C3
0C
0C
ENDCHAR
STARTCHAR uni0069
ENCODING 616
SWIDTH 960 0
DWIDTH 10 0
BBX 6 14 4 0
BITMAP
30
30
00
00
F0
F0
30
30
FC
FC
30
30
30
30
ENDCHAR
STARTCHAR uni0069
ENCODING 617
SWIDTH 960 0
DWIDTH 10 0
BBX 6 12 4 -2
BITMAP
F0
F0
30
30
30
30
30
30
30
30
0C
0C
ENDCHAR
STARTCHAR uni0069
ENCODING 618
SWIDTH 960 0
DWIDTH 10 0
BBX 6 10 2 0
BITMAP
FC
FC
30
30
30
30
30
30
FC
FC
ENDCHAR
STARTCHAR uni006C
ENCODING 619
SWIDTH 960 0
DWIDTH 10 0
BBX 10 14 2 0
BITMAP
3C00
3C00
0C00
0C00
0C00
0C00
3CC0
3CC0
CF00
CF00
0C00
0C00
0C00
0C00
ENDCHAR
STARTCHAR uni006C
ENCODING 620
SWIDTH 960 0
DWIDTH 10 0
BBX 8 14 2 0
BITMAP
3C
3C
0C
0C
3C
3C
CC
CC
3F
3F
0C
0C
0C
0C
ENDCHAR
STARTCHAR uni006C
ENCODING 621
SWIDTH 960 0
DWIDTH 10 0
BBX 6 16 4 -2
BITMAP
F0
F0
30
30
30
30
30
30
30
30
30
30
30
30
0C
0C
ENDCHAR
STARTCHAR LATIN
ENCODING 622
SWIDTH 960 0
DWIDTH 10 0
BBX 10 16 0 -2
BITMAP
C000
C000
FFC0
FFC0
C0C0
C0C0
C300
C300
CF00
CF00
C0C0
C0C0
30C0
30C0
0F00
0F00
ENDCHAR
STARTCHAR uni006D
ENCODING 623
SWIDTH 960 0
DWIDTH 10 0
BBX 8 10 2 0
BITMAP
C3
C3
C3
C3
C3
C3
FF
FF
C3
C3
ENDCHAR
STARTCHAR uni006D
ENCODING 624
SWIDTH 960 0
DWIDTH 10 0
BBX 8 12 2 -2
BITMAP
C3
C3
C3
C3
C3
C3
FF
FF
C3
C3
03
03
ENDCHAR
STARTCHAR uni006D
ENCODING 625
SWIDTH 960 0
DWIDTH 10 0
BBX 8 12 2 -2
BITMAP
C3
C3
FF
FF
CF
CF
C3
C3
C3
C3
0C
0C
ENDCHAR
STARTCHAR uni006E
ENCODING 626
SWIDTH 960 0
DWIDTH 10 0
BBX 10 12 0 -2
BITMAP
3F00
3F00
30C0
30C0
30C0
30C0
30C0
30C0
30C0
30C0
C000
C000
ENDCHAR
STARTCHAR uni006E
ENCODING 627
SWIDTH 960 0
DWIDTH 10 0
BBX 10 12 2 -2
BITMAP
FC00
FC00
C300
C300
C300
C300
C300
C300
C300
C300
00C0
00C0
ENDCHAR
STARTCHAR GREEK
ENCODING 628
SWIDTH 960 0
DWIDTH 10 0
BBX 8 10 2 0
BITMAP
C3
C3
F3
F3
CF
CF
C3
C3
C3
C3
ENDCHAR
STARTCHAR LATIN
ENCODING 629
SWIDTH 960 0
DWIDTH 10 0
BBX 8 10 2 0
BITMAP
3C
3C
C3
C3
FF
FF
C3
C3
3C
3C
ENDCHAR
STARTCHAR char230
ENCODING 630
SWIDTH 960 0
DWIDTH 10 0
BBX 12 10 2 0
BITMAP
3FC0
3FC0
C330
C330
C3F0
C3F0
C300
C300
3FF0
3FF0
ENDCHAR
STARTCHAR GREEK
ENCODING 631
SWIDTH 960 0
DWIDTH 10 0
BBX 10 10 0 0
BITMAP
3F00
3F00
C0C0
C0C0
C0C0
C0C0
CCC0
CCC0
F3C0
F3C0
ENDCHAR
STARTCHAR GREEK
ENCODING 632
SWIDTH 960 0
DWIDTH 10 0
BBX 10 14 0 0
BITMAP
0C00
0C00
3F00
3F00
CCC0
CCC0
CCC0
CCC0
CCC0
CCC0
3F00
3F00
0C00
0C00
ENDCHAR
STARTCHAR uni0072
ENCODING 633
SWIDTH 960 0
DWIDTH 10 0
BBX 8 10 2 0
BITMAP
03
03
03
03
03
03
0F
0F
F3
F3
ENDCHAR
STARTCHAR uni0072
ENCODING 634
SWIDTH 960 0
DWIDTH 10 0
BBX 8 12 2 0
BITMAP
03
03
03
03
03
03
03
03
0F
0F
F3
F3
ENDCHAR
STARTCHAR uni0072
ENCODING 635
SWIDTH 960 0
DWIDTH 10 0
BBX 10 12 2 -2
BITMAP
0300
0300
0300
0300
0300
0300
0F00
0F00
F300
F300
00C0
00C0
ENDCHAR
STARTCHAR uni0072
ENCODING 636
SWIDTH 960 0
DWIDTH 10 0
BBX 8 12 2 0
BITMAP
CF
CF
F0
F0
C0
C0
C0
C0
C0
C0
C0
C0
ENDCHAR
STARTCHAR uni0072
ENCODING 637
SWIDTH 960 0
DWIDTH 10 0
BBX 8 14 2 -2
BITMAP
CF
CF
F0
F0
C0
C0
C0
C0
C0
C0
C0
C0
30
30
ENDCHAR
STARTCHAR uni0072
ENCODING 638
SWIDTH 960 0
DWIDTH 10 0
BBX 8 10 2 0
BITMAP
3C
3C
C3
C3
C0
C0
C0
C0
C0
C0
ENDCHAR
STARTCHAR uni0072
ENCODING 639
SWIDTH 960 0
DWIDTH 10 0
BBX 8 10 2 0
BITMAP
3C
3C
C3
C3
03
03
03
03
03
03
ENDCHAR
STARTCHAR char1071
ENCODING 640
SWIDTH 960 0
DWIDTH 10 0
BBX 8 12 2 0
BITMAP
3F
3F
C3
C3
C3
C3
3F
3F
C3
C3
C3
C3
ENDCHAR
STARTCHAR char1071
ENCODING 641
SWIDTH 960 0
DWIDTH 10 0
BBX 8 12 2 0
BITMAP
C3
C3
C3
C3
FC
FC
C3
C3
C3
C3
FC
FC
ENDCHAR
STARTCHAR uni0073
ENCODING 642
SWIDTH 960 0
DWIDTH 10 0
BBX 8 14 2 -4
BITMAP
3F
3F
C0
C0
3C
3C
03
03
FC
FC
C0
C0
30
30
ENDCHAR
STARTCHAR uni0066
ENCODING 643
SWIDTH 960 0
DWIDTH 10 0
BBX 10 16 0 -2
BITMAP
03C0
03C0
0C00
0C00
0C00
0C00
0C00
0C00
0C00
0C00
0C00
0C00
0C00
0C00
F000
F000
ENDCHAR
STARTCHAR uni0066
ENCODING 644
SWIDTH 960 0
DWIDTH 10 0
BBX 10 16 0 -2
BITMAP
03C0
03C0
0C00
0C00
0C00
0C00
3F00
3F00
0C00
0C00
0C00
0C00
0C00
0C00
F000
F000
ENDCHAR
STARTCHAR uni0066
ENCODING 645
SWIDTH 960 0
DWIDTH 10 0
BBX 6 14 2 -2
BITMAP
C0
C0
30
30
30
30
30
30
30
30
30
30
0C
0C
ENDCHAR
STARTCHAR uni0066
ENCODING 646
SWIDTH 960 0
DWIDTH 10 0
BBX 10 16 0 -2
BITMAP
0300
0300
0C00
0C00
0C00
0C00
0C00
0C00
0C00
0C00
3C00
3C00
CF00
CF00
30C0
30C0
ENDCHAR
STARTCHAR uni0066
ENCODING 647
SWIDTH 960 0
DWIDTH 10 0
BBX 8 14 2 0
BITMAP
F0
F0
0C
0C
0C
0C
3F
3F
0C
0C
0C
0C
0C
0C
ENDCHAR
STARTCHAR uni0075
ENCODING 648
SWIDTH 960 0
DWIDTH 10 0
BBX 8 10 2 0
BITMAP
C3
C3
FF
FF
C3
C3
C3
C3
3F
3F
ENDCHAR
STARTCHAR uni0075
ENCODING 649
SWIDTH 960 0
DWIDTH 10 0
BBX 8 10 2 0
BITMAP
C3
C3
3C
3C
C3
C3
C3
C3
3F
3F
ENDCHAR
STARTCHAR uni0076
ENCODING 650
SWIDTH 960 0
DWIDTH 10 0
BBX 8 10 2 0
BITMAP
CC
CC
C3
C3
C3
C3
3C
3C
3C
3C
ENDCHAR
STARTCHAR uni0076
ENCODING 651
SWIDTH 960 0
DWIDTH 10 0
BBX 8 10 2 0
BITMAP
3C
3C
3C
3C
C3
C3
C3
C3
C3
C3
ENDCHAR
STARTCHAR uni0076
ENCODING 652
SWIDTH 960 0
DWIDTH 10 0
BBX 12 10 0 0
BITMAP
0F00
0F00
0F00
0F00
30C0
30C0
30C0
30C0
C030
C030
ENDCHAR
STARTCHAR uni006D
ENCODING 653
SWIDTH 960 0
DWIDTH 10 0
BBX 8 10 2 0
BITMAP
C3
C3
FF
FF
CF
CF
C3
C3
C3
C3
ENDCHAR
STARTCHAR uni0079
ENCODING 654
SWIDTH 960 0
DWIDTH 10 0
BBX 8 14 2 -4
BITMAP
3C
3C
C0
C0
FC
FC
C3
C3
C3
C3
C3
C3
C3
C3
ENDCHAR
STARTCHAR uni0059
ENCODING 655
SWIDTH 960 0
DWIDTH 10 0
BBX 10 8 0 0
BITMAP
C0C0
C0C0
3300
3300
0C00
0C00
0C00
0C00
ENDCHAR
STARTCHAR uni007A
ENCODING 656
SWIDTH 960 0
DWIDTH 10 0
BBX 8 14 2 -4
BITMAP
FF
FF
0C
0C
30
30
C0
C0
FF
FF
03
03
0C
0C
ENDCHAR
STARTCHAR uni007A
ENCODING 657
SWIDTH 960 0
DWIDTH 10 0
BBX 8 12 2 -2
BITMAP
FF
FF
0C
0C
30
30
CC
CC
FF
FF
0C
0C
ENDCHAR
STARTCHAR uni007A
ENCODING 658
SWIDTH 960 0
DWIDTH 10 0
BBX 8 14 2 -4
BITMAP
FF
FF
0C
0C
30
30
0C
0C
03
03
C3
C3
3C
3C
ENDCHAR
STARTCHAR uni007A
ENCODING 659
SWIDTH 960 0
DWIDTH 10 0
BBX 8 14 2 -4
BITMAP
FF
FF
0C
0C
30
30
0C
0C
33
33
CF
CF
3C
3C
ENDCHAR
STARTCHAR LATIN
ENCODING 660
SWIDTH 960 0
DWIDTH 10 0
BBX 10 14 0 0
BITMAP
3F00
3F00
C0C0
C0C0
00C0
00C0
0300
0300
0C00
0C00
0C00
0C00
0C00
0C00
ENDCHAR
STARTCHAR LATIN
ENCODING 661
SWIDTH 960 0
DWIDTH 10 0
BBX 10 14 0 0
BITMAP
3F00
3F00
C0C0
C0C0
C000
C000
3000
3000
0C00
0C00
0C00
0C00
0C00
0C00
ENDCHAR
STARTCHAR LATIN
ENCODING 662
SWIDTH 960 0
DWIDTH 10 0
BBX 10 14 0 0
BITMAP
0C00
0C00
0C00
0C00
0C00
0C00
0300
0300
00C0
00C0
C0C0
C0C0
3F00
3F00
ENDCHAR
STARTCHAR uni0043
ENCODING 663
SWIDTH 960 0
DWIDTH 10 0
BBX 8 14 2 -2
BITMAP
3F
3F
C0
C0
C0
C0
C0
C0
C0
C0
C0
C0
3F
3F
ENDCHAR
STARTCHAR LATIN
ENCODING 664
SWIDTH 960 0
DWIDTH 10 0
BBX 10 10 0 0
BITMAP
3F00
3F00
C0C0
C0C0
CCC0
CCC0
C0C0
C0C0
3F00
3F00
ENDCHAR
STARTCHAR LATIN
ENCODING 665
SWIDTH 960 0
DWIDTH 10 0
BBX 8 10 2 0
BITMAP
FC
FC
C3
C3
FC
FC
C3
C3
FC
FC
ENDCHAR
STARTCHAR LATIN
ENCODING 666
SWIDTH 960 0
DWIDTH 10 0
BBX 8 10 2 0
BITMAP
3C
3C
C3
C3
3F
3F
C3
C3
3C
3C
ENDCHAR
STARTCHAR uni0047
ENCODING 667
SWIDTH 960 0
DWIDTH 10 0
BBX 10 12 2 0
BITMAP
00C0
00C0
3F00
3F00
C000
C000
CF00
CF00
C300
C300
3F00
3F00
ENDCHAR
STARTCHAR uni0048
ENCODING 668
SWIDTH 960 0
DWIDTH 10 0
BBX 8 10 2 0
BITMAP
C3
C3
C3
C3
FF
FF
C3
C3
C3
C3
ENDCHAR
STARTCHAR uni006A
ENCODING 669
SWIDTH 960 0
DWIDTH 10 0
BBX 8 18 2 -4
BITMAP
0C
0C
00
00
3C
3C
0C
0C
0C
0C
0C
0C
3F
3F
CC
CC
F0
F0
ENDCHAR
STARTCHAR uni006B
ENCODING 670
SWIDTH 960 0
DWIDTH 10 0
BBX 8 14 2 0
BITMAP
C3
C3
C3
C3
3F
3F
33
33
C3
C3
03
03
03
03
ENDCHAR
STARTCHAR LATIN
ENCODING 671
SWIDTH 960 0
DWIDTH 10 0
BBX 8 10 2 0
BITMAP
C0
C0
C0
C0
C0
C0
C0
C0
FF
FF
ENDCHAR
STARTCHAR uni0071
ENCODING 672
SWIDTH 960 0
DWIDTH 10 0
BBX 10 16 2 -4
BITMAP
00C0
00C0
3F00
3F00
C300
C300
C300
C300
C300
C300
3F00
3F00
0300
0300
0300
0300
ENDCHAR
STARTCHAR LATIN
ENCODING 673
SWIDTH 960 0
DWIDTH 10 0
BBX 10 14 0 0
BITMAP
3F00
3F00
C0C0
C0C0
00C0
00C0
0300
0300
0C00
0C00
3F00
3F00
0C00
0C00
ENDCHAR
STARTCHAR LATIN
ENCODING 674
SWIDTH 960 0
DWIDTH 10 0
BBX 10 14 0 0
BITMAP
3F00
3F00
C0C0
C0C0
C000
C000
3000
3000
0C00
0C00
3F00
3F00
0C00
0C00
ENDCHAR
STARTCHAR LATIN
ENCODING 675
SWIDTH 960 0
DWIDTH 10 0
BBX 12 14 0 0
BITMAP
0C00
0C00
0C00
0C00
3FF0
3FF0
CC30
CC30
CCC0
CCC0
CF00
CF00
3FF0
3FF0
ENDCHAR
STARTCHAR LATIN
ENCODING 676
SWIDTH 960 0
DWIDTH 10 0
BBX 12 16 0 -2
BITMAP
0C00
0C00
0C00
0C00
3FF0
3FF0
CC30
CC30
CCC0
CCC0
CC30
CC30
3F30
3F30
00C0
00C0
ENDCHAR
STARTCHAR LATIN
ENCODING 677
SWIDTH 960 0
DWIDTH 10 0
BBX 12 16 0 -2
BITMAP
0C00
0C00
0C00
0C00
3FF0
3FF0
CC30
CC30
CCC0
CCC0
CF30
CF30
3FF0
3FF0
0300
0300
ENDCHAR
STARTCHAR LATIN
ENCODING 678
SWIDTH 960 0
DWIDTH 10 0
BBX 12 12 0 0
BITMAP
3000
3000
FFF0
FFF0
3C00
3C00
33C0
33C0
3030
3030
0FC0
0FC0
ENDCHAR
STARTCHAR LATIN
ENCODING 679
SWIDTH 960 0
DWIDTH 10 0
BBX 10 18 0 -4
BITMAP
00C0
00C0
3300
3300
FF00
FF00
3300
3300
3300
3300
3300
3300
0F00
0F00
0300
0300
0C00
0C00
ENDCHAR
STARTCHAR LATIN
ENCODING 680
SWIDTH 960 0
DWIDTH 10 0
BBX 12 14 0 -2
BITMAP
3000
3000
FCF0
FCF0
3300
3300
33C0
33C0
3330
3330
0FF0
0FF0
0300
0300
ENDCHAR
STARTCHAR LATIN
ENCODING 681
SWIDTH 960 0
DWIDTH 10 0
BBX 12 18 0 -4
BITMAP
0C00
0C00
3000
3000
3000
3000
FFC0
FFC0
3330
3330
3330
3330
3330
3330
00C0
00C0
0300
0300
ENDCHAR
STARTCHAR LATIN
ENCODING 682
SWIDTH 960 0
DWIDTH 10 0
BBX 10 14 0 0
BITMAP
C000
C000
C000
C000
CFC0
CFC0
F000
F000
CF00
CF00
C0C0
C0C0
FF00
FF00
ENDCHAR
STARTCHAR LATIN
ENCODING 683
SWIDTH 960 0
DWIDTH 10 0
BBX 10 14 0 0
BITMAP
C000
C000
C000
C000
FFC0
FFC0
C300
C300
CC00
CC00
F000
F000
FFC0
FFC0
ENDCHAR
STARTCHAR LATIN
ENCODING 684
SWIDTH 960 0
DWIDTH 10 0
BBX 10 12 0 0
BITMAP
CCC0
CCC0
CCC0
CCC0
3300
3300
CCC0
CCC0
CCC0
CCC0
3300
3300
ENDCHAR
STARTCHAR LATIN
ENCODING 685
SWIDTH 960 0
DWIDTH 10 0
BBX 10 10 0 0
BITMAP
FFC0
FFC0
C0C0
C0C0
0000
0000
FFC0
FFC0
C0C0
C0C0
ENDCHAR
STARTCHAR uni0068
ENCODING 686
SWIDTH 960 0
DWIDTH 10 0
BBX 10 14 0 0
BITMAP
C0C0
C0C0
30C0
30C0
30C0
30C0
30C0
30C0
0FC0
0FC0
00C0
00C0
00C0
00C0
ENDCHAR
STARTCHAR uni0068
ENCODING 687
SWIDTH 960 0
DWIDTH 10 0
BBX 12 16 0 -2
BITMAP
C0C0
C0C0
30C0
30C0
30C0
30C0
30C0
30C0
0FC0
0FC0
00C0
00C0
00C0
00C0
0030
0030
ENDCHAR
STARTCHAR uni003C
ENCODING 706
SWIDTH 960 0
DWIDTH 10 0
BBX 6 10 2 0
BITMAP
0C
0C
30
30
C0
C0
30
30
0C
0C
ENDCHAR
STARTCHAR uni003C
ENCODING 707
SWIDTH 960 0
DWIDTH 10 0
BBX 6 10 2 0
BITMAP
C0
C0
30
30
0C
0C
30
30
C0
C0
ENDCHAR
STARTCHAR uni005E
ENCODING 708
SWIDTH 960 0
DWIDTH 10 0
BBX 10 6 0 4
BITMAP
C0C0
C0C0
3300
3300
0C00
0C00
ENDCHAR
STARTCHAR uni005E
ENCODING 709
SWIDTH 960 0
DWIDTH 10 0
BBX 10 6 0 4
BITMAP
0C00
0C00
3300
3300
C0C0
C0C0
ENDCHAR
STARTCHAR MODIFIER
ENCODING 710
SWIDTH 960 0
DWIDTH 10 0
BBX 10 6 0 10
BITMAP
0C00
0C00
3300
3300
C0C0
C0C0
ENDCHAR
STARTCHAR CARON
ENCODING 711
SWIDTH 960 0
DWIDTH 10 0
BBX 10 6 0 12
BITMAP
C0C0
C0C0
3300
3300
0C00
0C00
ENDCHAR
STARTCHAR MODIFIER
ENCODING 712
SWIDTH 960 0
DWIDTH 10 0
BBX 2 4 4 10
BITMAP
C0
C0
C0
C0
ENDCHAR
STARTCHAR MODIFIER
ENCODING 713
SWIDTH 960 0
DWIDTH 10 0
BBX 4 2 2 12
BITMAP
F0
F0
ENDCHAR
STARTCHAR MODIFIER
ENCODING 714
SWIDTH 960 0
DWIDTH 10 0
BBX 4 4 4 10
BITMAP
30
30
C0
C0
ENDCHAR
STARTCHAR MODIFIER
ENCODING 715
SWIDTH 960 0
DWIDTH 10 0
BBX 4 4 4 10
BITMAP
C0
C0
30
30
ENDCHAR
STARTCHAR MODIFIER
ENCODING 720
SWIDTH 960 0
DWIDTH 10 0
BBX 6 12 2 0
BITMAP
FC
FC
30
30
00
00
00
00
30
30
FC
FC
ENDCHAR
STARTCHAR MODIFIER
ENCODING 721
SWIDTH 960 0
DWIDTH 10 0
BBX 6 4 2 4
BITMAP
FC
FC
30
30
ENDCHAR
STARTCHAR BREVE
ENCODING 728
SWIDTH 960 0
DWIDTH 10 0
BBX 10 4 2 12
BITMAP
C0C0
C0C0
3F00
3F00
ENDCHAR
STARTCHAR DOT
ENCODING 729
SWIDTH 960 0
DWIDTH 10 0
BBX 4 4 4 14
BITMAP
F0
F0
F0
F0
ENDCHAR
STARTCHAR RING
ENCODING 730
SWIDTH 960 0
DWIDTH 10 0
BBX 6 6 2 10
BITMAP
30
30
CC
CC
30
30
ENDCHAR
STARTCHAR OGONEK
ENCODING 731
SWIDTH 960 0
DWIDTH 10 0
BBX 4 6 4 -4
BITMAP
30
30
C0
C0
30
30
ENDCHAR
STARTCHAR SMALL
ENCODING 732
SWIDTH 960 0
DWIDTH 10 0
BBX 10 4 0 12
BITMAP
3CC0
3CC0
CF00
CF00
ENDCHAR
STARTCHAR DOUBLE
ENCODING 733
SWIDTH 960 0
DWIDTH 10 0
BBX 8 6 2 12
BITMAP
33
33
33
33
CC
CC
ENDCHAR
STARTCHAR MODIFIER
ENCODING 736
SWIDTH 960 0
DWIDTH 10 0
BBX 10 10 0 2
BITMAP
C0C0
C0C0
3300
3300
0C00
0C00
3300
3300
0C00
0C00
ENDCHAR
STARTCHAR MODIFIER
ENCODING 740
SWIDTH 960 0
DWIDTH 10 0
BBX 6 10 2 6
BITMAP
3C
3C
C0
C0
C0
C0
30
30
30
30
ENDCHAR
STARTCHAR MODIFIER
ENCODING 750
SWIDTH 960 0
DWIDTH 10 0
BBX 10 8 0 6
BITMAP
F3C0
F3C0
F3C0
F3C0
30C0
30C0
C300
C300
ENDCHAR
STARTCHAR COMBINING
ENCODING 768
SWIDTH 960 0
DWIDTH 10 0
BBX 4 4 2 14
BITMAP
C0
C0
30
30
ENDCHAR
STARTCHAR COMBINING
ENCODING 769
SWIDTH 960 0
DWIDTH 10 0
BBX 4 4 2 14
BITMAP
30
30
C0
C0
ENDCHAR
STARTCHAR COMBINING
ENCODING 770
SWIDTH 960 0
DWIDTH 10 0
BBX 8 4 0 14
BITMAP
3C
3C
C3
C3
ENDCHAR
STARTCHAR COMBINING
ENCODING 771
SWIDTH 960 0
DWIDTH 10 0
BBX 10 4 0 14
BITMAP
3CC0
3CC0
CF00
CF00
ENDCHAR
STARTCHAR COMBINING
ENCODING 772
SWIDTH 960 0
DWIDTH 10 0
BBX 6 2 2 16
BITMAP
FC
FC
ENDCHAR
STARTCHAR COMBINING
ENCODING 773
SWIDTH 960 0
DWIDTH 10 0
BBX 10 2 0 16
BITMAP
FFC0
FFC0
ENDCHAR
STARTCHAR COMBINING
ENCODING 774
SWIDTH 960 0
DWIDTH 10 0
BBX 8 4 2 14
BITMAP
C3
C3
3C
3C
ENDCHAR
STARTCHAR COMBINING
ENCODING 775
SWIDTH 960 0
DWIDTH 10 0
BBX 2 2 4 16
BITMAP
C0
C0
ENDCHAR
STARTCHAR COMBINING
ENCODING 776
SWIDTH 960 0
DWIDTH 10 0
BBX 6 2 2 16
BITMAP
FC
FC
ENDCHAR
STARTCHAR COMBINING
ENCODING 777
SWIDTH 960 0
DWIDTH 10 0
BBX 6 6 2 12
BITMAP
F0
F0
0C
0C
30
30
ENDCHAR
STARTCHAR COMBINING
ENCODING 778
SWIDTH 960 0
DWIDTH 10 0
BBX 6 6 4 12
BITMAP
30
30
CC
CC
30
30
ENDCHAR
STARTCHAR COMBINING
ENCODING 779
SWIDTH 960 0
DWIDTH 10 0
BBX 10 4 0 14
BITMAP
30C0
30C0
C300
C300
ENDCHAR
STARTCHAR COMBINING
ENCODING 780
SWIDTH 960 0
DWIDTH 10 0
BBX 6 4 2 14
BITMAP
CC
CC
30
30
ENDCHAR
STARTCHAR COMBINING
ENCODING 781
SWIDTH 960 0
DWIDTH 10 0
BBX 2 4 4 14
BITMAP
C0
C0
C0
C0
ENDCHAR
STARTCHAR COMBINING
ENCODING 782
SWIDTH 960 0
DWIDTH 10 0
BBX 6 4 2 14
BITMAP
CC
CC
CC
CC
ENDCHAR
STARTCHAR COMBINING
ENCODING 784
SWIDTH 960 0
DWIDTH 10 0
BBX 10 6 0 12
BITMAP
0C00
0C00
C0C0
C0C0
3F00
3F00
ENDCHAR
STARTCHAR COMBINING
ENCODING 785
SWIDTH 960 0
DWIDTH 10 0
BBX 10 4 0 14
BITMAP
3F00
3F00
C0C0
C0C0
ENDCHAR
STARTCHAR COMBINING
ENCODING 786
SWIDTH 960 0
DWIDTH 10 0
BBX 4 6 2 12
BITMAP
30
30
C0
C0
F0
F0
ENDCHAR
STARTCHAR COMBINING
ENCODING 787
SWIDTH 960 0
DWIDTH 10 0
BBX 4 6 2 12
BITMAP
F0
F0
30
30
C0
C0
ENDCHAR
STARTCHAR COMBINING
ENCODING 788
SWIDTH 960 0
DWIDTH 10 0
BBX 4 6 2 12
BITMAP
F0
F0
C0
C0
30
30
ENDCHAR
STARTCHAR COMBINING
ENCODING 789
SWIDTH 960 0
DWIDTH 10 0
BBX 4 6 2 12
BITMAP
F0
F0
30
30
C0
C0
ENDCHAR
STARTCHAR COMBINING
ENCODING 794
SWIDTH 960 0
DWIDTH 10 0
BBX 8 6 2 12
BITMAP
FF
FF
03
03
03
03
ENDCHAR
STARTCHAR COMBINING
ENCODING 796
SWIDTH 960 0
DWIDTH 10 0
BBX 4 6 2 -6
BITMAP
30
30
C0
C0
30
30
ENDCHAR
STARTCHAR COMBINING
ENCODING 799
SWIDTH 960 0
DWIDTH 10 0
BBX 6 6 2 -6
BITMAP
30
30
FC
FC
30
30
ENDCHAR
STARTCHAR COMBINING
ENCODING 800
SWIDTH 960 0
DWIDTH 10 0
BBX 6 2 2 -4
BITMAP
FC
FC
ENDCHAR
STARTCHAR COMBINING
ENCODING 804
SWIDTH 960 0
DWIDTH 10 0
BBX 6 2 2 -4
BITMAP
CC
CC
ENDCHAR
STARTCHAR COMBINING
ENCODING 805
SWIDTH 960 0
DWIDTH 10 0
BBX 6 6 2 -6
BITMAP
30
30
CC
CC
30
30
ENDCHAR
STARTCHAR COMBINING
ENCODING 810
SWIDTH 960 0
DWIDTH 10 0
BBX 6 4 2 -4
BITMAP
FC
FC
CC
CC
ENDCHAR
STARTCHAR COMBINING
ENCODING 812
SWIDTH 960 0
DWIDTH 10 0
BBX 6 4 2 -4
BITMAP
CC
CC
30
30
ENDCHAR
STARTCHAR COMBINING
ENCODING 816
SWIDTH 960 0
DWIDTH 10 0
BBX 8 4 2 -6
BITMAP
33
33
CC
CC
ENDCHAR
STARTCHAR COMBINING
ENCODING 825
SWIDTH 960 0
DWIDTH 10 0
BBX 4 6 4 -6
BITMAP
C0
C0
30
30
C0
C0
ENDCHAR
STARTCHAR COMBINING
ENCODING 826
SWIDTH 960 0
DWIDTH 10 0
BBX 6 4 2 -6
BITMAP
CC
CC
FC
FC
ENDCHAR
STARTCHAR COMBINING
ENCODING 827
SWIDTH 960 0
DWIDTH 10 0
BBX 6 6 2 -6
BITMAP
FC
FC
CC
CC
FC
FC
ENDCHAR
STARTCHAR COMBINING
ENCODING 828
SWIDTH 960 0
DWIDTH 10 0
BBX 10 4 0 -6
BITMAP
3300
3300
CCC0
CCC0
ENDCHAR
STARTCHAR COMBINING
ENCODING 835
SWIDTH 960 0
DWIDTH 10 0
BBX 4 8 2 6
BITMAP
F0
F0
F0
F0
30
30
C0
C0
ENDCHAR
STARTCHAR COMBINING
ENCODING 836
SWIDTH 960 0
DWIDTH 10 0
BBX 6 4 2 4
BITMAP
FC
FC
30
30
ENDCHAR
STARTCHAR COMBINING
ENCODING 860
SWIDTH 960 0
DWIDTH 10 0
BBX 10 4 0 -2
BITMAP
C0C0
C0C0
3F00
3F00
ENDCHAR
STARTCHAR COMBINING
ENCODING 865
SWIDTH 960 0
DWIDTH 10 0
BBX 10 4 0 14
BITMAP
3F00
3F00
C0C0
C0C0
ENDCHAR
STARTCHAR GREEK
ENCODING 880
SWIDTH 960 0
DWIDTH 10 0
BBX 8 14 0 0
BITMAP
C0
C0
C0
C0
C0
C0
FF
FF
C0
C0
C0
C0
C0
C0
ENDCHAR
STARTCHAR GREEK
ENCODING 881
SWIDTH 960 0
DWIDTH 10 0
BBX 10 12 0 0
BITMAP
C000
C000
3000
3000
3000
3000
3FC0
3FC0
3000
3000
3000
3000
ENDCHAR
STARTCHAR GREEK
ENCODING 882
SWIDTH 960 0
DWIDTH 10 0
BBX 10 12 0 0
BITMAP
FFC0
FFC0
CCC0
CCC0
0C00
0C00
0C00
0C00
0C00
0C00
0C00
0C00
ENDCHAR
STARTCHAR GREEK
ENCODING 883
SWIDTH 960 0
DWIDTH 10 0
BBX 10 10 0 0
BITMAP
FFC0
FFC0
CCC0
CCC0
0C00
0C00
0C00
0C00
0C00
0C00
ENDCHAR
STARTCHAR GREEK
ENCODING 884
SWIDTH 960 0
DWIDTH 10 0
BBX 6 4 2 12
BITMAP
3C
3C
F0
F0
ENDCHAR
STARTCHAR GREEK
ENCODING 885
SWIDTH 960 0
DWIDTH 10 0
BBX 8 6 0 -2
BITMAP
0F
0F
3C
3C
F0
F0
ENDCHAR
STARTCHAR uni004E
ENCODING 886
SWIDTH 960 0
DWIDTH 10 0
BBX 8 12 2 0
BITMAP
C3
C3
CF
CF
CF
CF
F3
F3
F3
F3
C3
C3
ENDCHAR
STARTCHAR GREEK
ENCODING 887
SWIDTH 960 0
DWIDTH 10 0
BBX 10 12 2 -2
BITMAP
C300
C300
CF00
CF00
F300
F300
C300
C300
C300
C300
00C0
00C0
ENDCHAR
STARTCHAR GREEK
ENCODING 890
SWIDTH 960 0
DWIDTH 10 0
BBX 4 4 2 -4
BITMAP
C0
C0
F0
F0
ENDCHAR
STARTCHAR GREEK
ENCODING 891
SWIDTH 960 0
DWIDTH 10 0
BBX 10 10 0 0
BITMAP
3F00
3F00
C0C0
C0C0
00C0
00C0
C0C0
C0C0
3F00
3F00
ENDCHAR
STARTCHAR GREEK
ENCODING 892
SWIDTH 960 0
DWIDTH 10 0
BBX 10 10 0 0
BITMAP
3F00
3F00
C0C0
C0C0
CC00
CC00
C0C0
C0C0
3F00
3F00
ENDCHAR
STARTCHAR GREEK
ENCODING 893
SWIDTH 960 0
DWIDTH 10 0
BBX 10 10 0 0
BITMAP
3F00
3F00
C0C0
C0C0
0CC0
0CC0
C0C0
C0C0
3F00
3F00
ENDCHAR
STARTCHAR uni003B
ENCODING 894
SWIDTH 960 0
DWIDTH 10 0
BBX 4 12 2 -2
BITMAP
30
30
30
30
00
00
30
30
30
30
C0
C0
ENDCHAR
STARTCHAR uni037F
ENCODING 895
SWIDTH 960 0
DWIDTH 10 0
BBX 12 6 0 2
BITMAP
FFF0
FFF0
FFF0
FFF0
FFF0
FFF0
ENDCHAR
STARTCHAR uni037F
ENCODING 896
SWIDTH 960 0
DWIDTH 10 0
BBX 10 6 0 0
BITMAP
FFC0
FFC0
FFC0
FFC0
FFC0
FFC0
ENDCHAR
STARTCHAR uni0380
ENCODING 897
SWIDTH 960 0
DWIDTH 10 0
BBX 10 6 0 0
BITMAP
CCC0
CCC0
3300
3300
CCC0
CCC0
ENDCHAR
STARTCHAR GREEK
ENCODING 900
SWIDTH 960 0
DWIDTH 10 0
BBX 4 6 4 10
BITMAP
30
30
F0
F0
C0
C0
ENDCHAR
STARTCHAR GREEK
ENCODING 901
SWIDTH 960 0
DWIDTH 10 0
BBX 12 6 0 10
BITMAP
0300
0300
CF30
CF30
0C00
0C00
ENDCHAR
STARTCHAR GREEK
ENCODING 902
SWIDTH 960 0
DWIDTH 10 0
BBX 8 18 2 0
BITMAP
0C
0C
30
30
00
00
3C
3C
C3
C3
C3
C3
FF
FF
C3
C3
C3
C3
ENDCHAR
STARTCHAR GREEK
ENCODING 903
SWIDTH 960 0
DWIDTH 10 0
BBX 4 4 4 6
BITMAP
F0
F0
F0
F0
ENDCHAR
STARTCHAR char201
ENCODING 904
SWIDTH 960 0
DWIDTH 10 0
BBX 8 16 2 0
BITMAP
0C
0C
30
30
FF
FF
C0
C0
FC
FC
C0
C0
C0
C0
FF
FF
ENDCHAR
STARTCHAR GREEK
ENCODING 905
SWIDTH 960 0
DWIDTH 10 0
BBX 10 14 0 0
BITMAP
0C00
0C00
30C0
30C0
F0C0
F0C0
3FC0
3FC0
30C0
30C0
30C0
30C0
30C0
30C0
ENDCHAR
STARTCHAR GREEK
ENCODING 906
SWIDTH 960 0
DWIDTH 10 0
BBX 8 14 0 0
BITMAP
0C
0C
3F
3F
CC
CC
0C
0C
0C
0C
0C
0C
3F
3F
ENDCHAR
STARTCHAR GREEK
ENCODING 908
SWIDTH 960 0
DWIDTH 10 0
BBX 10 16 0 0
BITMAP
3000
3000
C000
C000
0F00
0F00
30C0
30C0
30C0
30C0
30C0
30C0
30C0
30C0
0F00
0F00
ENDCHAR
STARTCHAR GREEK
ENCODING 910
SWIDTH 960 0
DWIDTH 10 0
BBX 10 14 0 0
BITMAP
3000
3000
CCC0
CCC0
0CC0
0CC0
0CC0
0CC0
0300
0300
0300
0300
0300
0300
ENDCHAR
STARTCHAR GREEK
ENCODING 911
SWIDTH 960 0
DWIDTH 10 0
BBX 10 16 0 0
BITMAP
3000
3000
C000
C000
3F00
3F00
C0C0
C0C0
C0C0
C0C0
C0C0
C0C0
3300
3300
F3C0
F3C0
ENDCHAR
STARTCHAR GREEK
ENCODING 912
SWIDTH 960 0
DWIDTH 10 0
BBX 12 18 0 0
BITMAP
0300
0300
CF30
CF30
0C00
0C00
0000
0000
0C00
0C00
0C00
0C00
0C00
0C00
0C00
0C00
0C00
0C00
ENDCHAR
STARTCHAR GREEK
ENCODING 913
SWIDTH 960 0
DWIDTH 10 0
BBX 8 12 2 0
BITMAP
3C
3C
C3
C3
C3
C3
FF
FF
C3
C3
C3
C3
ENDCHAR
STARTCHAR uni0042
ENCODING 914
SWIDTH 960 0
DWIDTH 10 0
BBX 8 12 2 0
BITMAP
FC
FC
C3
C3
FC
FC
C3
C3
C3
C3
FC
FC
ENDCHAR
STARTCHAR GREEK
ENCODING 915
SWIDTH 960 0
DWIDTH 10 0
BBX 8 10 2 0
BITMAP
FF
FF
C0
C0
C0
C0
C0
C0
C0
C0
ENDCHAR
STARTCHAR GREEK
ENCODING 916
SWIDTH 960 0
DWIDTH 10 0
BBX 10 12 0 0
BITMAP
0C00
0C00
0C00
0C00
3300
3300
3300
3300
C0C0
C0C0
FFC0
FFC0
ENDCHAR
STARTCHAR uni0045
ENCODING 917
SWIDTH 960 0
DWIDTH 10 0
BBX 8 12 2 0
BITMAP
FF
FF
C0
C0
FC
FC
C0
C0
C0
C0
FF
FF
ENDCHAR
STARTCHAR uni005A
ENCODING 918
SWIDTH 960 0
DWIDTH 10 0
BBX 8 12 2 0
BITMAP
FF
FF
03
03
0C
0C
30
30
C0
C0
FF
FF
ENDCHAR
STARTCHAR uni0048
ENCODING 919
SWIDTH 960 0
DWIDTH 10 0
BBX 8 12 2 0
BITMAP
C3
C3
C3
C3
FF
FF
C3
C3
C3
C3
C3
C3
ENDCHAR
STARTCHAR GREEK
ENCODING 920
SWIDTH 960 0
DWIDTH 10 0
BBX 8 12 2 0
BITMAP
3C
3C
C3
C3
CF
CF
F3
F3
C3
C3
3C
3C
ENDCHAR
STARTCHAR GREEK
ENCODING 921
SWIDTH 960 0
DWIDTH 10 0
BBX 6 12 2 0
BITMAP
FC
FC
30
30
30
30
30
30
30
30
FC
FC
ENDCHAR
STARTCHAR uni004B
ENCODING 922
SWIDTH 960 0
DWIDTH 10 0
BBX 8 12 2 0
BITMAP
C3
C3
CC
CC
F0
F0
CC
CC
C3
C3
C3
C3
ENDCHAR
STARTCHAR GREEK
ENCODING 923
SWIDTH 960 0
DWIDTH 10 0
BBX 10 12 0 0
BITMAP
0C00
0C00
0C00
0C00
3300
3300
3300
3300
C0C0
C0C0
C0C0
C0C0
ENDCHAR
STARTCHAR uni004D
ENCODING 924
SWIDTH 960 0
DWIDTH 10 0
BBX 8 12 2 0
BITMAP
C3
C3
FF
FF
CF
CF
C3
C3
C3
C3
C3
C3
ENDCHAR
STARTCHAR uni004E
ENCODING 925
SWIDTH 960 0
DWIDTH 10 0
BBX 8 12 2 0
BITMAP
C3
C3
F3
F3
F3
F3
CF
CF
CF
CF
C3
C3
ENDCHAR
STARTCHAR GREEK
ENCODING 926
SWIDTH 960 0
DWIDTH 10 0
BBX 10 10 0 0
BITMAP
FFC0
FFC0
0000
0000
3F00
3F00
0000
0000
FFC0
FFC0
ENDCHAR
STARTCHAR GREEK
ENCODING 927
SWIDTH 960 0
DWIDTH 10 0
BBX 8 12 2 0
BITMAP
3C
3C
C3
C3
C3
C3
C3
C3
C3
C3
3C
3C
ENDCHAR
STARTCHAR char1055
ENCODING 928
SWIDTH 960 0
DWIDTH 10 0
BBX 8 12 2 0
BITMAP
FF
FF
C3
C3
C3
C3
C3
C3
C3
C3
C3
C3
ENDCHAR
STARTCHAR uni0050
ENCODING 929
SWIDTH 960 0
DWIDTH 10 0
BBX 8 12 2 0
BITMAP
FC
FC
C3
C3
C3
C3
FC
FC
C0
C0
C0
C0
ENDCHAR
STARTCHAR GREEK
ENCODING 931
SWIDTH 960 0
DWIDTH 10 0
BBX 10 12 0 0
BITMAP
FFC0
FFC0
3000
3000
0C00
0C00
3000
3000
C000
C000
FFC0
FFC0
ENDCHAR
STARTCHAR GREEK
ENCODING 932
SWIDTH 960 0
DWIDTH 10 0
BBX 10 12 0 0
BITMAP
FFC0
FFC0
0C00
0C00
0C00
0C00
0C00
0C00
0C00
0C00
0C00
0C00
ENDCHAR
STARTCHAR uni0059
ENCODING 933
SWIDTH 960 0
DWIDTH 10 0
BBX 10 12 0 0
BITMAP
C0C0
C0C0
C0C0
C0C0
3300
3300
0C00
0C00
0C00
0C00
0C00
0C00
ENDCHAR
STARTCHAR GREEK
ENCODING 934
SWIDTH 960 0
DWIDTH 10 0
BBX 10 14 0 0
BITMAP
0C00
0C00
3F00
3F00
CCC0
CCC0
CCC0
CCC0
CCC0
CCC0
3F00
3F00
0C00
0C00
ENDCHAR
STARTCHAR uni0058
ENCODING 935
SWIDTH 960 0
DWIDTH 10 0
BBX 8 12 2 0
BITMAP
C3
C3
C3
C3
3C
3C
C3
C3
C3
C3
C3
C3
ENDCHAR
STARTCHAR GREEK
ENCODING 936
SWIDTH 960 0
DWIDTH 10 0
BBX 10 12 0 0
BITMAP
CCC0
CCC0
CCC0
CCC0
CCC0
CCC0
3F00
3F00
0C00
0C00
0C00
0C00
ENDCHAR
STARTCHAR GREEK
ENCODING 937
SWIDTH 960 0
DWIDTH 10 0
BBX 10 12 0 0
BITMAP
3F00
3F00
C0C0
C0C0
C0C0
C0C0
C0C0
C0C0
3300
3300
F3C0
F3C0
ENDCHAR
STARTCHAR GREEK
ENCODING 938
SWIDTH 960 0
DWIDTH 10 0
BBX 6 14 2 0
BITMAP
CC
CC
00
00
30
30
30
30
30
30
30
30
30
30
ENDCHAR
STARTCHAR GREEK
ENCODING 939
SWIDTH 960 0
DWIDTH 10 0
BBX 10 16 0 0
BITMAP
3300
3300
0000
0000
C0C0
C0C0
C0C0
C0C0
3300
3300
0C00
0C00
0C00
0C00
0C00
0C00
ENDCHAR
STARTCHAR char225
ENCODING 940
SWIDTH 960 0
DWIDTH 10 0
BBX 8 16 2 0
BITMAP
0C
0C
30
30
00
00
3F
3F
C3
C3
C3
C3
CF
CF
33
33
ENDCHAR
STARTCHAR GREEK
ENCODING 941
SWIDTH 960 0
DWIDTH 10 0
BBX 8 16 2 0
BITMAP
0C
0C
30
30
00
00
3F
3F
C0
C0
FC
FC
C0
C0
3F
3F
ENDCHAR
STARTCHAR uni006E
ENCODING 942
SWIDTH 960 0
DWIDTH 10 0
BBX 8 18 2 -2
BITMAP
0C
0C
30
30
00
00
FC
FC
C3
C3
C3
C3
C3
C3
C3
C3
03
03
ENDCHAR
STARTCHAR GREEK
ENCODING 943
SWIDTH 960 0
DWIDTH 10 0
BBX 6 16 2 0
BITMAP
0C
0C
30
30
00
00
F0
F0
30
30
30
30
30
30
30
30
ENDCHAR
STARTCHAR GREEK
ENCODING 944
SWIDTH 960 0
DWIDTH 10 0
BBX 12 16 0 0
BITMAP
0300
0300
CF30
CF30
0C00
0C00
30C0
30C0
30C0
30C0
30C0
30C0
30C0
30C0
0FC0
0FC0
ENDCHAR
STARTCHAR uni0061
ENCODING 945
SWIDTH 960 0
DWIDTH 10 0
BBX 8 10 2 0
BITMAP
3F
3F
C3
C3
C3
C3
CF
CF
33
33
ENDCHAR
STARTCHAR char223
ENCODING 946
SWIDTH 960 0
DWIDTH 10 0
BBX 8 14 2 -2
BITMAP
3C
3C
C3
C3
CC
CC
C3
C3
C3
C3
CC
CC
C0
C0
ENDCHAR
STARTCHAR uni0076
ENCODING 947
SWIDTH 960 0
DWIDTH 10 0
BBX 8 14 2 -4
BITMAP
C3
C3
C3
C3
33
33
3C
3C
33
33
33
33
0C
0C
ENDCHAR
STARTCHAR GREEK
ENCODING 948
SWIDTH 960 0
DWIDTH 10 0
BBX 8 14 2 0
BITMAP
FF
FF
C0
C0
3C
3C
C3
C3
C3
C3
C3
C3
3C
3C
ENDCHAR
STARTCHAR GREEK
ENCODING 949
SWIDTH 960 0
DWIDTH 10 0
BBX 8 10 2 0
BITMAP
3F
3F
C0
C0
FC
FC
C0
C0
3F
3F
ENDCHAR
STARTCHAR GREEK
ENCODING 950
SWIDTH 960 0
DWIDTH 10 0
BBX 8 14 2 -2
BITMAP
FF
FF
0C
0C
30
30
C0
C0
C0
C0
3F
3F
0C
0C
ENDCHAR
STARTCHAR GREEK
ENCODING 951
SWIDTH 960 0
DWIDTH 10 0
BBX 8 12 2 -2
BITMAP
FC
FC
C3
C3
C3
C3
C3
C3
C3
C3
03
03
ENDCHAR
STARTCHAR GREEK
ENCODING 952
SWIDTH 960 0
DWIDTH 10 0
BBX 8 10 2 0
BITMAP
3C
3C
C3
C3
FF
FF
C3
C3
3C
3C
ENDCHAR
STARTCHAR GREEK
ENCODING 953
SWIDTH 960 0
DWIDTH 10 0
BBX 4 10 4 0
BITMAP
F0
F0
30
30
30
30
30
30
30
30
ENDCHAR
STARTCHAR uni006B
ENCODING 954
SWIDTH 960 0
DWIDTH 10 0
BBX 8 10 2 0
BITMAP
C3
C3
CC
CC
FC
FC
C3
C3
C3
C3
ENDCHAR
STARTCHAR GREEK
ENCODING 955
SWIDTH 960 0
DWIDTH 10 0
BBX 8 14 2 0
BITMAP
C0
C0
C0
C0
30
30
3C
3C
3C
3C
C3
C3
C3
C3
ENDCHAR
STARTCHAR uni0075
ENCODING 956
SWIDTH 960 0
DWIDTH 10 0
BBX 8 12 2 -2
BITMAP
C3
C3
C3
C3
C3
C3
C3
C3
FC
FC
C0
C0
ENDCHAR
STARTCHAR uni0076
ENCODING 957
SWIDTH 960 0
DWIDTH 10 0
BBX 8 10 2 0
BITMAP
C3
C3
C3
C3
C3
C3
3C
3C
3C
3C
ENDCHAR
STARTCHAR GREEK
ENCODING 958
SWIDTH 960 0
DWIDTH 10 0
BBX 8 16 2 -4
BITMAP
3C
3C
C3
C3
30
30
C0
C0
C0
C0
3C
3C
03
03
0C
0C
ENDCHAR
STARTCHAR GREEK
ENCODING 959
SWIDTH 960 0
DWIDTH 10 0
BBX 8 10 2 0
BITMAP
3C
3C
C3
C3
C3
C3
C3
C3
3C
3C
ENDCHAR
STARTCHAR char960
ENCODING 960
SWIDTH 960 0
DWIDTH 10 0
BBX 10 10 2 0
BITMAP
FFC0
FFC0
3300
3300
3300
3300
3300
3300
3300
3300
ENDCHAR
STARTCHAR uni0070
ENCODING 961
SWIDTH 960 0
DWIDTH 10 0
BBX 8 16 2 -6
BITMAP
3C
3C
C3
C3
C3
C3
C3
C3
FC
FC
C0
C0
C0
C0
C0
C0
ENDCHAR
STARTCHAR char231
ENCODING 962
SWIDTH 960 0
DWIDTH 10 0
BBX 8 14 2 -4
BITMAP
3F
3F
C0
C0
C0
C0
C0
C0
3F
3F
0C
0C
30
30
ENDCHAR
STARTCHAR char240
ENCODING 963
SWIDTH 960 0
DWIDTH 10 0
BBX 10 10 2 0
BITMAP
3FC0
3FC0
C300
C300
C300
C300
C300
C300
3C00
3C00
ENDCHAR
STARTCHAR GREEK
ENCODING 964
SWIDTH 960 0
DWIDTH 10 0
BBX 8 10 2 0
BITMAP
FF
FF
30
30
30
30
30
30
0C
0C
ENDCHAR
STARTCHAR uni0075
ENCODING 965
SWIDTH 960 0
DWIDTH 10 0
BBX 8 10 2 0
BITMAP
CC
CC
C3
C3
C3
C3
C3
C3
3C
3C
ENDCHAR
STARTCHAR GREEK
ENCODING 966
SWIDTH 960 0
DWIDTH 10 0
BBX 10 14 2 -4
BITMAP
CF00
CF00
CCC0
CCC0
CCC0
CCC0
CCC0
CCC0
3F00
3F00
0C00
0C00
0C00
0C00
ENDCHAR
STARTCHAR uni0078
ENCODING 967
SWIDTH 960 0
DWIDTH 10 0
BBX 8 10 2 0
BITMAP
C3
C3
C3
C3
3C
3C
C3
C3
C3
C3
ENDCHAR
STARTCHAR GREEK
ENCODING 968
SWIDTH 960 0
DWIDTH 10 0
BBX 10 14 2 -4
BITMAP
CCC0
CCC0
CCC0
CCC0
CCC0
CCC0
3F00
3F00
0C00
0C00
0C00
0C00
0C00
0C00
ENDCHAR
STARTCHAR GREEK
ENCODING 969
SWIDTH 960 0
DWIDTH 10 0
BBX 10 10 2 0
BITMAP
3300
3300
C0C0
C0C0
CCC0
CCC0
CCC0
CCC0
3300
3300
ENDCHAR
STARTCHAR GREEK
ENCODING 970
SWIDTH 960 0
DWIDTH 10 0
BBX 6 14 4 0
BITMAP
CC
CC
00
00
F0
F0
30
30
30
30
30
30
30
30
ENDCHAR
STARTCHAR char252
ENCODING 971
SWIDTH 960 0
DWIDTH 10 0
BBX 8 14 2 0
BITMAP
CC
CC
00
00
C3
C3
C3
C3
C3
C3
C3
C3
3F
3F
ENDCHAR
STARTCHAR char243
ENCODING 972
SWIDTH 960 0
DWIDTH 10 0
BBX 8 16 2 0
BITMAP
03
03
0C
0C
00
00
3C
3C
C3
C3
C3
C3
C3
C3
3C
3C
ENDCHAR
STARTCHAR char250
ENCODING 973
SWIDTH 960 0
DWIDTH 10 0
BBX 8 16 2 0
BITMAP
0C
0C
30
30
00
00
C3
C3
C3
C3
C3
C3
C3
C3
3F
3F
ENDCHAR
STARTCHAR GREEK
ENCODING 974
SWIDTH 960 0
DWIDTH 10 0
BBX 10 16 2 0
BITMAP
0C00
0C00
3000
3000
0000
0000
3300
3300
C0C0
C0C0
CCC0
CCC0
F3C0
F3C0
C0C0
C0C0
ENDCHAR
STARTCHAR uni004B
ENCODING 975
SWIDTH 960 0
DWIDTH 10 0
BBX 8 14 2 -2
BITMAP
C3
C3
CC
CC
F0
F0
CC
CC
C3
C3
C3
C3
0C
0C
ENDCHAR
STARTCHAR GREEK
ENCODING 976
SWIDTH 960 0
DWIDTH 10 0
BBX 8 12 2 0
BITMAP
3C
3C
C3
C3
FC
FC
C3
C3
C3
C3
3C
3C
ENDCHAR
STARTCHAR GREEK
ENCODING 977
SWIDTH 960 0
DWIDTH 10 0
BBX 12 12 0 0
BITMAP
0F00
0F00
30C0
30C0
33F0
33F0
FCC0
FCC0
30C0
30C0
0F00
0F00
ENDCHAR
STARTCHAR uni0059
ENCODING 978
SWIDTH 960 0
DWIDTH 10 0
BBX 12 12 0 0
BITMAP
C0C0
C0C0
C0F0
C0F0
3300
3300
0C00
0C00
0C00
0C00
0C00
0C00
ENDCHAR
STARTCHAR uni0059
ENCODING 979
SWIDTH 960 0
DWIDTH 10 0
BBX 12 14 0 0
BITMAP
3000
3000
C0C0
C0C0
C0F0
C0F0
3300
3300
0C00
0C00
0C00
0C00
0C00
0C00
ENDCHAR
STARTCHAR uni0059
ENCODING 980
SWIDTH 960 0
DWIDTH 10 0
BBX 12 16 0 0
BITMAP
3300
3300
0000
0000
C0C0
C0C0
C0F0
C0F0
3300
3300
0C00
0C00
0C00
0C00
0C00
0C00
ENDCHAR
STARTCHAR GREEK
ENCODING 981
SWIDTH 960 0
DWIDTH 10 0
BBX 10 18 2 -4
BITMAP
0C00
0C00
0C00
0C00
3F00
3F00
CCC0
CCC0
CCC0
CCC0
CCC0
CCC0
3F00
3F00
0C00
0C00
0C00
0C00
ENDCHAR
STARTCHAR GREEK
ENCODING 982
SWIDTH 960 0
DWIDTH 10 0
BBX 10 10 2 0
BITMAP
FFC0
FFC0
C0C0
C0C0
CCC0
CCC0
F3C0
F3C0
C0C0
C0C0
ENDCHAR
STARTCHAR uni0078
ENCODING 983
SWIDTH 960 0
DWIDTH 10 0
BBX 10 12 2 -2
BITMAP
C300
C300
C300
C300
3C00
3C00
C300
C300
C3C0
C3C0
0C00
0C00
ENDCHAR
STARTCHAR GREEK
ENCODING 984
SWIDTH 960 0
DWIDTH 10 0
BBX 10 16 0 -4
BITMAP
3F00
3F00
C0C0
C0C0
C0C0
C0C0
C0C0
C0C0
C0C0
C0C0
3F00
3F00
0C00
0C00
0C00
0C00
ENDCHAR
STARTCHAR GREEK
ENCODING 985
SWIDTH 960 0
DWIDTH 10 0
BBX 10 14 0 -4
BITMAP
3F00
3F00
C0C0
C0C0
C0C0
C0C0
C0C0
C0C0
3F00
3F00
0C00
0C00
0C00
0C00
ENDCHAR
STARTCHAR GREEK
ENCODING 986
SWIDTH 960 0
DWIDTH 10 0
BBX 10 16 2 -4
BITMAP
3F00
3F00
C000
C000
C000
C000
C000
C000
C000
C000
3F00
3F00
00C0
00C0
0F00
0F00
ENDCHAR
STARTCHAR GREEK
ENCODING 987
SWIDTH 960 0
DWIDTH 10 0
BBX 10 14 2 -4
BITMAP
3F00
3F00
C000
C000
C000
C000
C000
C000
3F00
3F00
00C0
00C0
0F00
0F00
ENDCHAR
STARTCHAR uni0046
ENCODING 988
SWIDTH 960 0
DWIDTH 10 0
BBX 8 12 2 0
BITMAP
FF
FF
C0
C0
FF
FF
C3
C3
C0
C0
C0
C0
ENDCHAR
STARTCHAR uni0046
ENCODING 989
SWIDTH 960 0
DWIDTH 10 0
BBX 8 12 2 -2
BITMAP
FF
FF
C0
C0
FC
FC
CC
CC
C0
C0
C0
C0
ENDCHAR
STARTCHAR GREEK
ENCODING 990
SWIDTH 960 0
DWIDTH 10 0
BBX 12 12 0 -2
BITMAP
C000
C000
30C0
30C0
33C0
33C0
3CC0
3CC0
30C0
30C0
0030
0030
ENDCHAR
STARTCHAR GREEK
ENCODING 991
SWIDTH 960 0
DWIDTH 10 0
BBX 6 14 2 -2
BITMAP
0C
0C
30
30
C0
C0
FC
FC
0C
0C
30
30
C0
C0
ENDCHAR
STARTCHAR GREEK
ENCODING 992
SWIDTH 960 0
DWIDTH 10 0
BBX 8 14 2 -2
BITMAP
30
30
0C
0C
3C
3C
C3
C3
0F
0F
33
33
03
03
ENDCHAR
STARTCHAR GREEK
ENCODING 993
SWIDTH 960 0
DWIDTH 10 0
BBX 8 14 2 -2
BITMAP
30
30
0C
0C
3C
3C
C3
C3
0F
0F
33
33
03
03
ENDCHAR
STARTCHAR COPTIC
ENCODING 994
SWIDTH 960 0
DWIDTH 10 0
BBX 10 14 2 -2
BITMAP
CCC0
CCC0
CCC0
CCC0
CCC0
CCC0
CCC0
CCC0
33C0
33C0
00C0
00C0
FF00
FF00
ENDCHAR
STARTCHAR COPTIC
ENCODING 995
SWIDTH 960 0
DWIDTH 10 0
BBX 10 12 2 -4
BITMAP
CCC0
CCC0
CCC0
CCC0
CCC0
CCC0
33C0
33C0
00C0
00C0
FF00
FF00
ENDCHAR
STARTCHAR COPTIC
ENCODING 996
SWIDTH 960 0
DWIDTH 10 0
BBX 8 14 2 0
BITMAP
33
33
C3
C3
C3
C3
3F
3F
03
03
03
03
03
03
ENDCHAR
STARTCHAR COPTIC
ENCODING 997
SWIDTH 960 0
DWIDTH 10 0
BBX 8 12 2 0
BITMAP
33
33
C3
C3
C3
C3
3F
3F
03
03
03
03
ENDCHAR
STARTCHAR COPTIC
ENCODING 998
SWIDTH 960 0
DWIDTH 10 0
BBX 8 18 2 -4
BITMAP
C0
C0
C0
C0
C0
C0
FC
FC
C3
C3
C3
C3
C3
C3
03
03
FC
FC
ENDCHAR
STARTCHAR COPTIC
ENCODING 999
SWIDTH 960 0
DWIDTH 10 0
BBX 10 14 2 -2
BITMAP
0300
0300
3F00
3F00
CCC0
CCC0
30C0
30C0
00C0
00C0
3F00
3F00
C000
C000
ENDCHAR
STARTCHAR uni0053
ENCODING 1000
SWIDTH 960 0
DWIDTH 10 0
BBX 8 12 2 0
BITMAP
FC
FC
03
03
3C
3C
C0
C0
C3
C3
3C
3C
ENDCHAR
STARTCHAR uni0053
ENCODING 1001
SWIDTH 960 0
DWIDTH 10 0
BBX 8 12 2 0
BITMAP
FC
FC
03
03
3C
3C
C0
C0
C0
C0
3F
3F
ENDCHAR
STARTCHAR COPTIC
ENCODING 1002
SWIDTH 960 0
DWIDTH 10 0
BBX 10 14 2 0
BITMAP
3300
3300
CCC0
CCC0
0C00
0C00
3300
3300
3300
3300
C0C0
C0C0
FFC0
FFC0
ENDCHAR
STARTCHAR COPTIC
ENCODING 1003
SWIDTH 960 0
DWIDTH 10 0
BBX 10 10 0 0
BITMAP
3300
3300
CCC0
CCC0
0C00
0C00
3300
3300
3F00
3F00
ENDCHAR
STARTCHAR COPTIC
ENCODING 1004
SWIDTH 960 0
DWIDTH 10 0
BBX 8 14 2 0
BITMAP
3F
3F
C0
C0
FC
FC
C3
C3
C3
C3
C3
C3
3C
3C
ENDCHAR
STARTCHAR COPTIC
ENCODING 1005
SWIDTH 960 0
DWIDTH 10 0
BBX 8 12 2 0
BITMAP
3C
3C
C0
C0
CC
CC
C3
C3
C3
C3
3C
3C
ENDCHAR
STARTCHAR COPTIC
ENCODING 1006
SWIDTH 960 0
DWIDTH 10 0
BBX 10 12 0 0
BITMAP
0C00
0C00
3F00
3F00
CCC0
CCC0
0C00
0C00
0C00
0C00
0C00
0C00
ENDCHAR
STARTCHAR COPTIC
ENCODING 1007
SWIDTH 960 0
DWIDTH 10 0
BBX 10 12 0 0
BITMAP
0F00
0F00
0C00
0C00
FFC0
FFC0
CC00
CC00
0C00
0C00
3C00
3C00
ENDCHAR
STARTCHAR uni0078
ENCODING 1008
SWIDTH 960 0
DWIDTH 10 0
BBX 8 10 4 0
BITMAP
C3
C3
CC
CC
3C
3C
33
33
C3
C3
ENDCHAR
STARTCHAR GREEK
ENCODING 1009
SWIDTH 960 0
DWIDTH 10 0
BBX 8 16 2 -6
BITMAP
3C
3C
C3
C3
C3
C3
C3
C3
FC
FC
C0
C0
3C
3C
03
03
ENDCHAR
STARTCHAR uni0063
ENCODING 1010
SWIDTH 960 0
DWIDTH 10 0
BBX 8 10 2 0
BITMAP
3F
3F
C0
C0
C0
C0
C0
C0
3F
3F
ENDCHAR
STARTCHAR uni006A
ENCODING 1011
SWIDTH 960 0
DWIDTH 10 0
BBX 6 18 2 -4
BITMAP
0C
0C
00
00
3C
3C
0C
0C
0C
0C
0C
0C
0C
0C
0C
0C
F0
F0
ENDCHAR
STARTCHAR GREEK
ENCODING 1012
SWIDTH 960 0
DWIDTH 10 0
BBX 8 12 2 0
BITMAP
3C
3C
C3
C3
CF
CF
F3
F3
C3
C3
3C
3C
ENDCHAR
STARTCHAR GREEK
ENCODING 1013
SWIDTH 960 0
DWIDTH 10 0
BBX 8 10 2 0
BITMAP
3F
3F
C0
C0
FC
FC
C0
C0
3F
3F
ENDCHAR
STARTCHAR GREEK
ENCODING 1014
SWIDTH 960 0
DWIDTH 10 0
BBX 8 10 2 0
BITMAP
FC
FC
03
03
3F
3F
03
03
FC
FC
ENDCHAR
STARTCHAR GREEK
ENCODING 1015
SWIDTH 960 0
DWIDTH 10 0
BBX 8 12 2 0
BITMAP
C0
C0
FC
FC
C3
C3
C3
C3
FC
FC
C0
C0
ENDCHAR
STARTCHAR GREEK
ENCODING 1016
SWIDTH 960 0
DWIDTH 10 0
BBX 8 14 2 -2
BITMAP
C0
C0
FC
FC
C3
C3
C3
C3
FC
FC
C0
C0
C0
C0
ENDCHAR
STARTCHAR uni0043
ENCODING 1017
SWIDTH 960 0
DWIDTH 10 0
BBX 8 12 2 0
BITMAP
3F
3F
C0
C0
C0
C0
C0
C0
C0
C0
3F
3F
ENDCHAR
STARTCHAR uni004D
ENCODING 1018
SWIDTH 960 0
DWIDTH 10 0
BBX 8 12 2 0
BITMAP
C3
C3
FF
FF
CF
CF
C3
C3
C3
C3
C3
C3
ENDCHAR
STARTCHAR GREEK
ENCODING 1019
SWIDTH 960 0
DWIDTH 10 0
BBX 8 12 2 -4
BITMAP
C3
C3
FF
FF
CF
CF
C3
C3
C0
C0
C0
C0
ENDCHAR
STARTCHAR uni0070
ENCODING 1020
SWIDTH 960 0
DWIDTH 10 0
BBX 8 16 2 -6
BITMAP
3C
3C
C3
C3
C3
C3
C3
C3
FC
FC
C0
C0
F0
F0
C0
C0
ENDCHAR
STARTCHAR uni0043
ENCODING 1021
SWIDTH 960 0
DWIDTH 10 0
BBX 10 12 2 0
BITMAP
3F00
3F00
C0C0
C0C0
00C0
00C0
00C0
00C0
C0C0
C0C0
3F00
3F00
ENDCHAR
STARTCHAR uni0043
ENCODING 1022
SWIDTH 960 0
DWIDTH 10 0
BBX 8 12 2 0
BITMAP
3F
3F
C0
C0
CC
CC
C0
C0
C0
C0
3F
3F
ENDCHAR
STARTCHAR uni0043
ENCODING 1023
SWIDTH 960 0
DWIDTH 10 0
BBX 8 12 2 0
BITMAP
FC
FC
03
03
33
33
03
03
03
03
FC
FC
ENDCHAR
STARTCHAR char203
ENCODING 1024
SWIDTH 960 0
DWIDTH 10 0
BBX 8 16 2 0
BITMAP
30
30
0C
0C
FF
FF
C0
C0
FC
FC
C0
C0
C0
C0
FF
FF
ENDCHAR
STARTCHAR char203
ENCODING 1025
SWIDTH 960 0
DWIDTH 10 0
BBX 8 16 2 0
BITMAP
CC
CC
00
00
FF
FF
C0
C0
FC
FC
C0
C0
C0
C0
FF
FF
ENDCHAR
STARTCHAR char1026
ENCODING 1026
SWIDTH 960 0
DWIDTH 10 0
BBX 10 16 0 -2
BITMAP
FC00
FC00
3000
3000
3F00
3F00
30C0
30C0
30C0
30C0
30C0
30C0
30C0
30C0
0300
0300
ENDCHAR
STARTCHAR char1027
ENCODING 1027
SWIDTH 960 0
DWIDTH 10 0
BBX 8 16 2 0
BITMAP
0C
0C
30
30
FF
FF
C0
C0
C0
C0
C0
C0
C0
C0
C0
C0
ENDCHAR
STARTCHAR char1028
ENCODING 1028
SWIDTH 960 0
DWIDTH 10 0
BBX 8 12 2 0
BITMAP
3C
3C
C3
C3
F0
F0
C0
C0
C3
C3
3C
3C
ENDCHAR
STARTCHAR char1029
ENCODING 1029
SWIDTH 960 0
DWIDTH 10 0
BBX 8 12 2 0
BITMAP
3F
3F
C0
C0
3C
3C
03
03
03
03
FC
FC
ENDCHAR
STARTCHAR char1030
ENCODING 1030
SWIDTH 960 0
DWIDTH 10 0
BBX 2 12 4 0
BITMAP
C0
C0
C0
C0
C0
C0
C0
C0
C0
C0
C0
C0
ENDCHAR
STARTCHAR char1031
ENCODING 1031
SWIDTH 960 0
DWIDTH 10 0
BBX 6 14 2 0
BITMAP
CC
CC
30
30
30
30
30
30
30
30
30
30
30
30
ENDCHAR
STARTCHAR char1032
ENCODING 1032
SWIDTH 960 0
DWIDTH 10 0
BBX 8 12 2 0
BITMAP
3F
3F
03
03
03
03
03
03
C3
C3
3C
3C
ENDCHAR
STARTCHAR char1033
ENCODING 1033
SWIDTH 960 0
DWIDTH 10 0
BBX 12 12 0 0
BITMAP
0F00
0F00
3300
3300
33C0
33C0
3330
3330
3330
3330
C3C0
C3C0
ENDCHAR
STARTCHAR char1034
ENCODING 1034
SWIDTH 960 0
DWIDTH 10 0
BBX 10 12 2 0
BITMAP
CC00
CC00
CC00
CC00
FF00
FF00
CCC0
CCC0
CCC0
CCC0
CF00
CF00
ENDCHAR
STARTCHAR char1035
ENCODING 1035
SWIDTH 960 0
DWIDTH 10 0
BBX 10 14 0 0
BITMAP
FF00
FF00
3000
3000
3F00
3F00
30C0
30C0
30C0
30C0
30C0
30C0
30C0
30C0
ENDCHAR
STARTCHAR char1036
ENCODING 1036
SWIDTH 960 0
DWIDTH 10 0
BBX 8 14 2 0
BITMAP
0C
0C
F3
F3
CC
CC
F0
F0
CC
CC
C3
C3
C3
C3
ENDCHAR
STARTCHAR char1080
ENCODING 1037
SWIDTH 960 0
DWIDTH 10 0
BBX 8 16 2 0
BITMAP
30
30
0C
0C
C3
C3
CF
CF
CF
CF
F3
F3
F3
F3
C3
C3
ENDCHAR
STARTCHAR char1038
ENCODING 1038
SWIDTH 960 0
DWIDTH 10 0
BBX 8 16 2 0
BITMAP
33
33
0C
0C
C3
C3
C3
C3
C3
C3
3F
3F
03
03
3C
3C
ENDCHAR
STARTCHAR char1039
ENCODING 1039
SWIDTH 960 0
DWIDTH 10 0
BBX 10 14 0 -2
BITMAP
C0C0
C0C0
C0C0
C0C0
C0C0
C0C0
C0C0
C0C0
FFC0
FFC0
0C00
0C00
0C00
0C00
ENDCHAR
STARTCHAR char1040
ENCODING 1040
SWIDTH 960 0
DWIDTH 10 0
BBX 8 12 2 0
BITMAP
3C
3C
C3
C3
C3
C3
FF
FF
C3
C3
C3
C3
ENDCHAR
STARTCHAR char1041
ENCODING 1041
SWIDTH 960 0
DWIDTH 10 0
BBX 8 14 2 0
BITMAP
FC
FC
C0
C0
FC
FC
C3
C3
C3
C3
C3
C3
FC
FC
ENDCHAR
STARTCHAR char1042
ENCODING 1042
SWIDTH 960 0
DWIDTH 10 0
BBX 8 12 2 0
BITMAP
FC
FC
C3
C3
FC
FC
C3
C3
C3
C3
FC
FC
ENDCHAR
STARTCHAR char1043
ENCODING 1043
SWIDTH 960 0
DWIDTH 10 0
BBX 8 12 2 0
BITMAP
FF
FF
C0
C0
C0
C0
C0
C0
C0
C0
C0
C0
ENDCHAR
STARTCHAR char1044
ENCODING 1044
SWIDTH 960 0
DWIDTH 10 0
BBX 10 14 0 -2
BITMAP
0F00
0F00
3300
3300
3300
3300
3300
3300
3300
3300
FFC0
FFC0
C0C0
C0C0
ENDCHAR
STARTCHAR uni0045
ENCODING 1045
SWIDTH 960 0
DWIDTH 10 0
BBX 8 12 2 0
BITMAP
FF
FF
C0
C0
FC
FC
C0
C0
C0
C0
FF
FF
ENDCHAR
STARTCHAR uni0058
ENCODING 1046
SWIDTH 960 0
DWIDTH 10 0
BBX 10 12 0 0
BITMAP
CCC0
CCC0
CCC0
CCC0
3F00
3F00
CCC0
CCC0
CCC0
CCC0
CCC0
CCC0
ENDCHAR
STARTCHAR uni0033
ENCODING 1047
SWIDTH 960 0
DWIDTH 10 0
BBX 8 12 2 0
BITMAP
3C
3C
C3
C3
0C
0C
03
03
C3
C3
3C
3C
ENDCHAR
STARTCHAR char1080
ENCODING 1048
SWIDTH 960 0
DWIDTH 10 0
BBX 8 12 2 0
BITMAP
C3
C3
CF
CF
CF
CF
F3
F3
F3
F3
C3
C3
ENDCHAR
STARTCHAR char1080
ENCODING 1049
SWIDTH 960 0
DWIDTH 10 0
BBX 8 16 2 0
BITMAP
33
33
0C
0C
C3
C3
CF
CF
CF
CF
F3
F3
F3
F3
C3
C3
ENDCHAR
STARTCHAR uni004B
ENCODING 1050
SWIDTH 960 0
DWIDTH 10 0
BBX 8 12 2 0
BITMAP
C3
C3
CC
CC
F0
F0
CC
CC
C3
C3
C3
C3
ENDCHAR
STARTCHAR char1051
ENCODING 1051
SWIDTH 960 0
DWIDTH 10 0
BBX 8 12 2 0
BITMAP
3F
3F
33
33
33
33
33
33
33
33
C3
C3
ENDCHAR
STARTCHAR uni004D
ENCODING 1052
SWIDTH 960 0
DWIDTH 10 0
BBX 8 12 2 0
BITMAP
C3
C3
FF
FF
CF
CF
C3
C3
C3
C3
C3
C3
ENDCHAR
STARTCHAR uni0048
ENCODING 1053
SWIDTH 960 0
DWIDTH 10 0
BBX 8 12 2 0
BITMAP
C3
C3
C3
C3
FF
FF
C3
C3
C3
C3
C3
C3
ENDCHAR
STARTCHAR uni004F
ENCODING 1054
SWIDTH 960 0
DWIDTH 10 0
BBX 8 12 2 0
BITMAP
3C
3C
C3
C3
C3
C3
C3
C3
C3
C3
3C
3C
ENDCHAR
STARTCHAR char1055
ENCODING 1055
SWIDTH 960 0
DWIDTH 10 0
BBX 8 12 2 0
BITMAP
FF
FF
C3
C3
C3
C3
C3
C3
C3
C3
C3
C3
ENDCHAR
STARTCHAR char1104
ENCODING 1056
SWIDTH 960 0
DWIDTH 10 0
BBX 8 12 2 0
BITMAP
FC
FC
C3
C3
C3
C3
FC
FC
C0
C0
C0
C0
ENDCHAR
STARTCHAR uni0043
ENCODING 1057
SWIDTH 960 0
DWIDTH 10 0
BBX 8 12 2 0
BITMAP
3F
3F
C0
C0
C0
C0
C0
C0
C0
C0
3F
3F
ENDCHAR
STARTCHAR uni0054
ENCODING 1058
SWIDTH 960 0
DWIDTH 10 0
BBX 6 12 4 0
BITMAP
FC
FC
30
30
30
30
30
30
30
30
30
30
ENDCHAR
STARTCHAR uni0079
ENCODING 1059
SWIDTH 960 0
DWIDTH 10 0
BBX 8 12 2 0
BITMAP
C3
C3
C3
C3
C3
C3
3C
3C
0C
0C
F0
F0
ENDCHAR
STARTCHAR char1060
ENCODING 1060
SWIDTH 960 0
DWIDTH 10 0
BBX 10 16 0 -2
BITMAP
0C00
0C00
3F00
3F00
CCC0
CCC0
CCC0
CCC0
CCC0
CCC0
CCC0
CCC0
3F00
3F00
0C00
0C00
ENDCHAR
STARTCHAR uni0058
ENCODING 1061
SWIDTH 960 0
DWIDTH 10 0
BBX 8 12 2 0
BITMAP
C3
C3
C3
C3
3C
3C
C3
C3
C3
C3
C3
C3
ENDCHAR
STARTCHAR char1062
ENCODING 1062
SWIDTH 960 0
DWIDTH 10 0
BBX 8 14 2 -2
BITMAP
CC
CC
CC
CC
CC
CC
CC
CC
CC
CC
FF
FF
03
03
ENDCHAR
STARTCHAR char1063
ENCODING 1063
SWIDTH 960 0
DWIDTH 10 0
BBX 8 12 0 0
BITMAP
C3
C3
C3
C3
3F
3F
03
03
03
03
03
03
ENDCHAR
STARTCHAR char1064
ENCODING 1064
SWIDTH 960 0
DWIDTH 10 0
BBX 10 12 0 0
BITMAP
CCC0
CCC0
CCC0
CCC0
CCC0
CCC0
CCC0
CCC0
CCC0
CCC0
FF00
FF00
ENDCHAR
STARTCHAR char1065
ENCODING 1065
SWIDTH 960 0
DWIDTH 10 0
BBX 12 14 0 -2
BITMAP
CCC0
CCC0
CCC0
CCC0
CCC0
CCC0
CCC0
CCC0
CCC0
CCC0
3FF0
3FF0
0030
0030
ENDCHAR
STARTCHAR char1066
ENCODING 1066
SWIDTH 960 0
DWIDTH 10 0
BBX 8 12 0 0
BITMAP
F0
F0
30
30
30
30
3C
3C
33
33
3C
3C
ENDCHAR
STARTCHAR char1067
ENCODING 1067
SWIDTH 960 0
DWIDTH 10 0
BBX 8 12 2 0
BITMAP
C3
C3
C3
C3
C3
C3
F3
F3
CF
CF
F3
F3
ENDCHAR
STARTCHAR char1068
ENCODING 1068
SWIDTH 960 0
DWIDTH 10 0
BBX 8 12 2 0
BITMAP
C0
C0
C0
C0
C0
C0
FC
FC
C3
C3
FC
FC
ENDCHAR
STARTCHAR uni0033
ENCODING 1069
SWIDTH 960 0
DWIDTH 10 0
BBX 8 12 2 0
BITMAP
3C
3C
C3
C3
0F
0F
03
03
C3
C3
3C
3C
ENDCHAR
STARTCHAR char1070
ENCODING 1070
SWIDTH 960 0
DWIDTH 10 0
BBX 10 12 2 0
BITMAP
C300
C300
CCC0
CCC0
FCC0
FCC0
CCC0
CCC0
CCC0
CCC0
C300
C300
ENDCHAR
STARTCHAR char1071
ENCODING 1071
SWIDTH 960 0
DWIDTH 10 0
BBX 8 12 2 0
BITMAP
3F
3F
C3
C3
C3
C3
3F
3F
C3
C3
C3
C3
ENDCHAR
STARTCHAR uni0061
ENCODING 1072
SWIDTH 960 0
DWIDTH 10 0
BBX 8 10 2 0
BITMAP
3F
3F
C3
C3
C3
C3
CF
CF
33
33
ENDCHAR
STARTCHAR char1073
ENCODING 1073
SWIDTH 960 0
DWIDTH 10 0
BBX 8 14 2 0
BITMAP
03
03
3C
3C
C0
C0
FC
FC
C3
C3
C3
C3
FC
FC
ENDCHAR
STARTCHAR char1074
ENCODING 1074
SWIDTH 960 0
DWIDTH 10 0
BBX 8 10 2 0
BITMAP
FC
FC
C3
C3
FC
FC
C3
C3
FC
FC
ENDCHAR
STARTCHAR char1075
ENCODING 1075
SWIDTH 960 0
DWIDTH 10 0
BBX 8 10 2 0
BITMAP
FF
FF
C0
C0
C0
C0
C0
C0
C0
C0
ENDCHAR
STARTCHAR char1044
ENCODING 1076
SWIDTH 960 0
DWIDTH 10 0
BBX 10 14 0 -2
BITMAP
0F00
0F00
3300
3300
3300
3300
3300
3300
3300
3300
FFC0
FFC0
C0C0
C0C0
ENDCHAR
STARTCHAR uni0065
ENCODING 1077
SWIDTH 960 0
DWIDTH 10 0
BBX 8 10 2 0
BITMAP
3C
3C
C3
C3
FF
FF
C0
C0
3F
3F
ENDCHAR
STARTCHAR uni0058
ENCODING 1078
SWIDTH 960 0
DWIDTH 10 0
BBX 10 10 0 0
BITMAP
CCC0
CCC0
CCC0
CCC0
3F00
3F00
CCC0
CCC0
CCC0
CCC0
ENDCHAR
STARTCHAR uni0033
ENCODING 1079
SWIDTH 960 0
DWIDTH 10 0
BBX 8 10 2 0
BITMAP
3C
3C
C3
C3
0C
0C
C3
C3
3C
3C
ENDCHAR
STARTCHAR char1080
ENCODING 1080
SWIDTH 960 0
DWIDTH 10 0
BBX 8 10 2 0
BITMAP
C3
C3
CF
CF
FF
FF
F3
F3
C3
C3
ENDCHAR
STARTCHAR char1080
ENCODING 1081
SWIDTH 960 0
DWIDTH 10 0
BBX 8 14 2 0
BITMAP
33
33
0C
0C
C3
C3
CF
CF
FF
FF
F3
F3
C3
C3
ENDCHAR
STARTCHAR uni006B
ENCODING 1082
SWIDTH 960 0
DWIDTH 10 0
BBX 8 10 2 0
BITMAP
C3
C3
CC
CC
FC
FC
C3
C3
C3
C3
ENDCHAR
STARTCHAR char1051
ENCODING 1083
SWIDTH 960 0
DWIDTH 10 0
BBX 8 10 2 0
BITMAP
3F
3F
33
33
33
33
33
33
C3
C3
ENDCHAR
STARTCHAR uni006D
ENCODING 1084
SWIDTH 960 0
DWIDTH 10 0
BBX 8 10 2 0
BITMAP
C3
C3
FF
FF
CF
CF
C3
C3
C3
C3
ENDCHAR
STARTCHAR uni006D
ENCODING 1085
SWIDTH 960 0
DWIDTH 10 0
BBX 8 10 2 0
BITMAP
C3
C3
C3
C3
FF
FF
C3
C3
C3
C3
ENDCHAR
STARTCHAR uni006F
ENCODING 1086
SWIDTH 960 0
DWIDTH 10 0
BBX 8 10 2 0
BITMAP
3C
3C
C3
C3
C3
C3
C3
C3
3C
3C
ENDCHAR
STARTCHAR uni006E
ENCODING 1087
SWIDTH 960 0
DWIDTH 10 0
BBX 8 10 2 0
BITMAP
FF
FF
C3
C3
C3
C3
C3
C3
C3
C3
ENDCHAR
STARTCHAR uni0070
ENCODING 1088
SWIDTH 960 0
DWIDTH 10 0
BBX 8 14 2 -4
BITMAP
FC
FC
C3
C3
C3
C3
C3
C3
FC
FC
C0
C0
C0
C0
ENDCHAR
STARTCHAR uni0063
ENCODING 1089
SWIDTH 960 0
DWIDTH 10 0
BBX 8 10 2 0
BITMAP
3F
3F
C0
C0
C0
C0
C0
C0
3F
3F
ENDCHAR
STARTCHAR uni0074
ENCODING 1090
SWIDTH 960 0
DWIDTH 10 0
BBX 6 10 4 0
BITMAP
FC
FC
30
30
30
30
30
30
30
30
ENDCHAR
STARTCHAR uni0079
ENCODING 1091
SWIDTH 960 0
DWIDTH 10 0
BBX 8 12 2 -4
BITMAP
C3
C3
C3
C3
C3
C3
3C
3C
0C
0C
F0
F0
ENDCHAR
STARTCHAR char1060
ENCODING 1092
SWIDTH 960 0
DWIDTH 10 0
BBX 10 14 0 -2
BITMAP
0C00
0C00
3F00
3F00
CCC0
CCC0
CCC0
CCC0
CCC0
CCC0
3F00
3F00
0C00
0C00
ENDCHAR
STARTCHAR uni0078
ENCODING 1093
SWIDTH 960 0
DWIDTH 10 0
BBX 8 10 2 0
BITMAP
C3
C3
C3
C3
3C
3C
C3
C3
C3
C3
ENDCHAR
STARTCHAR char1062
ENCODING 1094
SWIDTH 960 0
DWIDTH 10 0
BBX 8 12 2 -2
BITMAP
CC
CC
CC
CC
CC
CC
CC
CC
FF
FF
03
03
ENDCHAR
STARTCHAR char1063
ENCODING 1095
SWIDTH 960 0
DWIDTH 10 0
BBX 8 10 0 0
BITMAP
C3
C3
C3
C3
3F
3F
03
03
03
03
ENDCHAR
STARTCHAR char1064
ENCODING 1096
SWIDTH 960 0
DWIDTH 10 0
BBX 10 10 0 0
BITMAP
CCC0
CCC0
CCC0
CCC0
CCC0
CCC0
CCC0
CCC0
FF00
FF00
ENDCHAR
STARTCHAR char1065
ENCODING 1097
SWIDTH 960 0
DWIDTH 10 0
BBX 12 12 0 -2
BITMAP
CCC0
CCC0
CCC0
CCC0
CCC0
CCC0
CCC0
CCC0
3FF0
3FF0
0030
0030
ENDCHAR
STARTCHAR char1066
ENCODING 1098
SWIDTH 960 0
DWIDTH 10 0
BBX 8 10 2 0
BITMAP
F0
F0
30
30
3C
3C
33
33
3C
3C
ENDCHAR
STARTCHAR char1067
ENCODING 1099
SWIDTH 960 0
DWIDTH 10 0
BBX 8 10 2 0
BITMAP
C3
C3
C3
C3
F3
F3
CF
CF
F3
F3
ENDCHAR
STARTCHAR char1068
ENCODING 1100
SWIDTH 960 0
DWIDTH 10 0
BBX 8 10 2 0
BITMAP
C0
C0
C0
C0
FC
FC
C3
C3
FC
FC
ENDCHAR
STARTCHAR uni0033
ENCODING 1101
SWIDTH 960 0
DWIDTH 10 0
BBX 8 10 2 0
BITMAP
3C
3C
C3
C3
0F
0F
C3
C3
3C
3C
ENDCHAR
STARTCHAR char1070
ENCODING 1102
SWIDTH 960 0
DWIDTH 10 0
BBX 10 10 2 0
BITMAP
C300
C300
CCC0
CCC0
FCC0
FCC0
CCC0
CCC0
C300
C300
ENDCHAR
STARTCHAR char1071
ENCODING 1103
SWIDTH 960 0
DWIDTH 10 0
BBX 8 10 2 0
BITMAP
3F
3F
C3
C3
3F
3F
C3
C3
C3
C3
ENDCHAR
STARTCHAR uni0065
ENCODING 1104
SWIDTH 960 0
DWIDTH 10 0
BBX 8 16 2 0
BITMAP
30
30
0C
0C
00
00
3C
3C
C3
C3
FF
FF
C0
C0
3F
3F
ENDCHAR
STARTCHAR uni0065
ENCODING 1105
SWIDTH 960 0
DWIDTH 10 0
BBX 8 14 2 0
BITMAP
CC
CC
00
00
3C
3C
C3
C3
FF
FF
C0
C0
3F
3F
ENDCHAR
STARTCHAR char1026
ENCODING 1106
SWIDTH 960 0
DWIDTH 10 0
BBX 10 14 0 -2
BITMAP
3000
3000
FC00
FC00
3000
3000
3F00
3F00
30C0
30C0
30C0
30C0
0300
0300
ENDCHAR
STARTCHAR char1027
ENCODING 1107
SWIDTH 960 0
DWIDTH 10 0
BBX 8 14 2 0
BITMAP
0C
0C
30
30
FF
FF
C0
C0
C0
C0
C0
C0
C0
C0
ENDCHAR
STARTCHAR char1028
ENCODING 1108
SWIDTH 960 0
DWIDTH 10 0
BBX 8 10 2 0
BITMAP
3C
3C
C3
C3
F0
F0
C3
C3
3C
3C
ENDCHAR
STARTCHAR uni0073
ENCODING 1109
SWIDTH 960 0
DWIDTH 10 0
BBX 8 10 2 0
BITMAP
3F
3F
C0
C0
3C
3C
03
03
FC
FC
ENDCHAR
STARTCHAR uni0069
ENCODING 1110
SWIDTH 960 0
DWIDTH 10 0
BBX 4 14 4 0
BITMAP
30
30
00
00
F0
F0
30
30
30
30
30
30
30
30
ENDCHAR
STARTCHAR uni0069
ENCODING 1111
SWIDTH 960 0
DWIDTH 10 0
BBX 6 14 4 0
BITMAP
CC
CC
00
00
F0
F0
30
30
30
30
30
30
30
30
ENDCHAR
STARTCHAR uni006A
ENCODING 1112
SWIDTH 960 0
DWIDTH 10 0
BBX 6 18 2 -4
BITMAP
0C
0C
00
00
3C
3C
0C
0C
0C
0C
0C
0C
0C
0C
0C
0C
F0
F0
ENDCHAR
STARTCHAR CYRILLIC
ENCODING 1113
SWIDTH 960 0
DWIDTH 10 0
BBX 12 10 0 0
BITMAP
0F00
0F00
3300
3300
33C0
33C0
3330
3330
C3C0
C3C0
ENDCHAR
STARTCHAR CYRILLIC
ENCODING 1114
SWIDTH 960 0
DWIDTH 10 0
BBX 10 10 0 0
BITMAP
CC00
CC00
CC00
CC00
FF00
FF00
CCC0
CCC0
CF00
CF00
ENDCHAR
STARTCHAR CYRILLIC
ENCODING 1115
SWIDTH 960 0
DWIDTH 10 0
BBX 10 14 0 0
BITMAP
3000
3000
3000
3000
FF00
FF00
3000
3000
3F00
3F00
30C0
30C0
30C0
30C0
ENDCHAR
STARTCHAR CYRILLIC
ENCODING 1116
SWIDTH 960 0
DWIDTH 10 0
BBX 8 16 0 0
BITMAP
03
03
0C
0C
00
00
C3
C3
CC
CC
FC
FC
C3
C3
C3
C3
ENDCHAR
STARTCHAR CYRILLIC
ENCODING 1117
SWIDTH 960 0
DWIDTH 10 0
BBX 8 16 0 0
BITMAP
30
30
0C
0C
00
00
C3
C3
CF
CF
CF
CF
F3
F3
C3
C3
ENDCHAR
STARTCHAR uni0079
ENCODING 1118
SWIDTH 960 0
DWIDTH 10 0
BBX 8 20 2 -4
BITMAP
C3
C3
3C
3C
00
00
C3
C3
C3
C3
C3
C3
C3
C3
3F
3F
03
03
3C
3C
ENDCHAR
STARTCHAR uni0079
ENCODING 1119
SWIDTH 960 0
DWIDTH 10 0
BBX 10 14 2 -4
BITMAP
C0C0
C0C0
C0C0
C0C0
C0C0
C0C0
C0C0
C0C0
3F00
3F00
0C00
0C00
0C00
0C00
ENDCHAR
STARTCHAR CYRILLIC
ENCODING 1120
SWIDTH 960 0
DWIDTH 10 0
BBX 10 14 0 0
BITMAP
CCC0
CCC0
CCC0
CCC0
CCC0
CCC0
CCC0
CCC0
CCC0
CCC0
CCC0
CCC0
3300
3300
ENDCHAR
STARTCHAR CYRILLIC
ENCODING 1121
SWIDTH 960 0
DWIDTH 10 0
BBX 10 10 0 0
BITMAP
CCC0
CCC0
CCC0
CCC0
CCC0
CCC0
CCC0
CCC0
3300
3300
ENDCHAR
STARTCHAR char1122
ENCODING 1122
SWIDTH 960 0
DWIDTH 10 0
BBX 10 14 0 0
BITMAP
3000
3000
FC00
FC00
3000
3000
3F00
3F00
30C0
30C0
30C0
30C0
3F00
3F00
ENDCHAR
STARTCHAR char1123
ENCODING 1123
SWIDTH 960 0
DWIDTH 10 0
BBX 10 12 0 0
BITMAP
3000
3000
FC00
FC00
3000
3000
3F00
3F00
30C0
30C0
3F00
3F00
ENDCHAR
STARTCHAR CYRILLIC
ENCODING 1124
SWIDTH 960 0
DWIDTH 10 0
BBX 10 14 0 0
BITMAP
C300
C300
CCC0
CCC0
CC00
CC00
FF00
FF00
CC00
CC00
CCC0
CCC0
C300
C300
ENDCHAR
STARTCHAR CYRILLIC
ENCODING 1125
SWIDTH 960 0
DWIDTH 10 0
BBX 10 10 0 0
BITMAP
C3C0
C3C0
CC00
CC00
FF00
FF00
CC00
CC00
C3C0
C3C0
ENDCHAR
STARTCHAR char1126
ENCODING 1126
SWIDTH 960 0
DWIDTH 10 0
BBX 10 12 2 0
BITMAP
0C00
0C00
0C00
0C00
3300
3300
3F00
3F00
CCC0
CCC0
CCC0
CCC0
ENDCHAR
STARTCHAR char1127
ENCODING 1127
SWIDTH 960 0
DWIDTH 10 0
BBX 10 10 2 0
BITMAP
0C00
0C00
3300
3300
3F00
3F00
CCC0
CCC0
CCC0
CCC0
ENDCHAR
STARTCHAR char1128
ENCODING 1128
SWIDTH 960 0
DWIDTH 10 0
BBX 10 12 2 0
BITMAP
CC00
CC00
CC00
CC00
F300
F300
FF00
FF00
CCC0
CCC0
CCC0
CCC0
ENDCHAR
STARTCHAR char1129
ENCODING 1129
SWIDTH 960 0
DWIDTH 10 0
BBX 10 10 2 0
BITMAP
CC00
CC00
F300
F300
FF00
FF00
CCC0
CCC0
CCC0
CCC0
ENDCHAR
STARTCHAR CYRILLIC
ENCODING 1130
SWIDTH 960 0
DWIDTH 10 0
BBX 10 14 0 0
BITMAP
FFC0
FFC0
C0C0
C0C0
3300
3300
3F00
3F00
CCC0
CCC0
CCC0
CCC0
CCC0
CCC0
ENDCHAR
STARTCHAR CYRILLIC
ENCODING 1131
SWIDTH 960 0
DWIDTH 10 0
BBX 10 10 0 0
BITMAP
3F00
3F00
3300
3300
0C00
0C00
3F00
3F00
CCC0
CCC0
ENDCHAR
STARTCHAR CYRILLIC
ENCODING 1132
SWIDTH 960 0
DWIDTH 10 0
BBX 10 14 0 0
BITMAP
FF00
FF00
F300
F300
CC00
CC00
FF00
FF00
CCC0
CCC0
CCC0
CCC0
CCC0
CCC0
ENDCHAR
STARTCHAR CYRILLIC
ENCODING 1133
SWIDTH 960 0
DWIDTH 10 0
BBX 10 10 0 0
BITMAP
FF00
FF00
F300
F300
CC00
CC00
FF00
FF00
CCC0
CCC0
ENDCHAR
STARTCHAR CYRILLIC
ENCODING 1134
SWIDTH 960 0
DWIDTH 10 0
BBX 8 22 2 -4
BITMAP
CC
CC
30
30
00
00
FC
FC
03
03
3C
3C
03
03
03
03
3C
3C
C0
C0
3C
3C
ENDCHAR
STARTCHAR CYRILLIC
ENCODING 1135
SWIDTH 960 0
DWIDTH 10 0
BBX 8 20 2 -4
BITMAP
CC
CC
30
30
00
00
FC
FC
03
03
3C
3C
03
03
3C
3C
C0
C0
30
30
ENDCHAR
STARTCHAR CYRILLIC
ENCODING 1136
SWIDTH 960 0
DWIDTH 10 0
BBX 10 14 0 0
BITMAP
CCC0
CCC0
CCC0
CCC0
CCC0
CCC0
CCC0
CCC0
3F00
3F00
0C00
0C00
0C00
0C00
ENDCHAR
STARTCHAR CYRILLIC
ENCODING 1137
SWIDTH 960 0
DWIDTH 10 0
BBX 10 12 0 0
BITMAP
CCC0
CCC0
CCC0
CCC0
CCC0
CCC0
3F00
3F00
0C00
0C00
0C00
0C00
ENDCHAR
STARTCHAR CYRILLIC
ENCODING 1138
SWIDTH 960 0
DWIDTH 10 0
BBX 8 14 2 0
BITMAP
3C
3C
C3
C3
C3
C3
FF
FF
C3
C3
C3
C3
3C
3C
ENDCHAR
STARTCHAR CYRILLIC
ENCODING 1139
SWIDTH 960 0
DWIDTH 10 0
BBX 8 10 2 0
BITMAP
3C
3C
C3
C3
FF
FF
C3
C3
3C
3C
ENDCHAR
STARTCHAR char1140
ENCODING 1140
SWIDTH 960 0
DWIDTH 10 0
BBX 10 12 2 0
BITMAP
C300
C300
C3C0
C3C0
C300
C300
3C00
3C00
3C00
3C00
3C00
3C00
ENDCHAR
STARTCHAR char1141
ENCODING 1141
SWIDTH 960 0
DWIDTH 10 0
BBX 10 10 2 0
BITMAP
C300
C300
C3C0
C3C0
C300
C300
3C00
3C00
3C00
3C00
ENDCHAR
STARTCHAR char1142
ENCODING 1142
SWIDTH 960 0
DWIDTH 10 0
BBX 10 16 2 0
BITMAP
CC00
CC00
3300
3300
C300
C300
C3C0
C3C0
C300
C300
3C00
3C00
3C00
3C00
3C00
3C00
ENDCHAR
STARTCHAR char1143
ENCODING 1143
SWIDTH 960 0
DWIDTH 10 0
BBX 10 14 2 0
BITMAP
CC00
CC00
3300
3300
C300
C300
C3C0
C3C0
C300
C300
3C00
3C00
3C00
3C00
ENDCHAR
STARTCHAR CYRILLIC
ENCODING 1144
SWIDTH 960 0
DWIDTH 10 0
BBX 10 18 0 -4
BITMAP
3000
3000
CC00
CC00
CC00
CC00
CCC0
CCC0
CCC0
CCC0
CCC0
CCC0
33C0
33C0
00C0
00C0
0F00
0F00
ENDCHAR
STARTCHAR CYRILLIC
ENCODING 1145
SWIDTH 960 0
DWIDTH 10 0
BBX 10 14 0 -4
BITMAP
3000
3000
CCC0
CCC0
CCC0
CCC0
CCC0
CCC0
33C0
33C0
00C0
00C0
0F00
0F00
ENDCHAR
STARTCHAR CYRILLIC
ENCODING 1146
SWIDTH 960 0
DWIDTH 10 0
BBX 10 18 0 -2
BITMAP
0C00
0C00
3F00
3F00
CCC0
CCC0
C0C0
C0C0
C0C0
C0C0
C0C0
C0C0
CCC0
CCC0
3F00
3F00
0C00
0C00
ENDCHAR
STARTCHAR CYRILLIC
ENCODING 1147
SWIDTH 960 0
DWIDTH 10 0
BBX 10 14 0 -2
BITMAP
0C00
0C00
3F00
3F00
CCC0
CCC0
C0C0
C0C0
CCC0
CCC0
3F00
3F00
0C00
0C00
ENDCHAR
STARTCHAR CYRILLIC
ENCODING 1148
SWIDTH 960 0
DWIDTH 10 0
BBX 10 18 0 0
BITMAP
3C00
3C00
C300
C300
00C0
00C0
0C00
0C00
C0C0
C0C0
C0C0
C0C0
C0C0
C0C0
CCC0
CCC0
3300
3300
ENDCHAR
STARTCHAR CYRILLIC
ENCODING 1149
SWIDTH 960 0
DWIDTH 10 0
BBX 10 16 0 0
BITMAP
3C00
3C00
C300
C300
00C0
00C0
0C00
0C00
C0C0
C0C0
C0C0
C0C0
CCC0
CCC0
3300
3300
ENDCHAR
STARTCHAR CYRILLIC
ENCODING 1150
SWIDTH 960 0
DWIDTH 10 0
BBX 10 18 0 0
BITMAP
FFC0
FFC0
CCC0
CCC0
0000
0000
CCC0
CCC0
CCC0
CCC0
CCC0
CCC0
CCC0
CCC0
CCC0
CCC0
3300
3300
ENDCHAR
STARTCHAR CYRILLIC
ENCODING 1151
SWIDTH 960 0
DWIDTH 10 0
BBX 10 16 0 0
BITMAP
FFC0
FFC0
CCC0
CCC0
0000
0000
CCC0
CCC0
CCC0
CCC0
CCC0
CCC0
CCC0
CCC0
3300
3300
ENDCHAR
STARTCHAR uni0043
ENCODING 1152
SWIDTH 960 0
DWIDTH 10 0
BBX 8 16 2 -4
BITMAP
3F
3F
C0
C0
C0
C0
C0
C0
C0
C0
3C
3C
0C
0C
3F
3F
ENDCHAR
STARTCHAR uni0063
ENCODING 1153
SWIDTH 960 0
DWIDTH 10 0
BBX 8 14 2 -4
BITMAP
3F
3F
C0
C0
C0
C0
C0
C0
3C
3C
0C
0C
3F
3F
ENDCHAR
STARTCHAR CYRILLIC
ENCODING 1154
SWIDTH 960 0
DWIDTH 10 0
BBX 8 16 0 0
BITMAP
03
03
03
03
3C
3C
0F
0F
F0
F0
3C
3C
C0
C0
C0
C0
ENDCHAR
STARTCHAR char1155
ENCODING 1155
SWIDTH 960 0
DWIDTH 10 0
BBX 8 6 4 8
BITMAP
03
03
3C
3C
C0
C0
ENDCHAR
STARTCHAR uni006F
ENCODING 1156
SWIDTH 960 0
DWIDTH 10 0
BBX 8 16 2 0
BITMAP
03
03
FF
FF
00
00
3C
3C
C3
C3
C3
C3
C3
C3
3C
3C
ENDCHAR
STARTCHAR uni006F
ENCODING 1157
SWIDTH 960 0
DWIDTH 10 0
BBX 8 16 2 0
BITMAP
0C
0C
F3
F3
00
00
3C
3C
C3
C3
C3
C3
C3
C3
3C
3C
ENDCHAR
STARTCHAR uni006F
ENCODING 1158
SWIDTH 960 0
DWIDTH 10 0
BBX 8 16 2 0
BITMAP
30
30
30
30
00
00
3C
3C
C3
C3
C3
C3
C3
C3
3C
3C
ENDCHAR
STARTCHAR uni006F
ENCODING 1159
SWIDTH 960 0
DWIDTH 10 0
BBX 8 16 2 0
BITMAP
0C
0C
0C
0C
00
00
3C
3C
C3
C3
C3
C3
C3
C3
3C
3C
ENDCHAR
STARTCHAR uni006F
ENCODING 1160
SWIDTH 960 0
DWIDTH 10 0
BBX 8 16 2 0
BITMAP
30
30
CF
CF
00
00
3C
3C
C3
C3
C3
C3
C3
C3
3C
3C
ENDCHAR
STARTCHAR char1161
ENCODING 1161
SWIDTH 960 0
DWIDTH 10 0
BBX 14 10 0 0
BITMAP
0330
0330
3000
3000
CFFC
CFFC
CC00
CC00
3330
3330
ENDCHAR
STARTCHAR char1161
ENCODING 1162
SWIDTH 960 0
DWIDTH 10 0
BBX 14 10 0 0
BITMAP
0330
0330
3000
3000
CC0C
CC0C
CC00
CC00
3330
3330
ENDCHAR
STARTCHAR char1080
ENCODING 1163
SWIDTH 960 0
DWIDTH 10 0
BBX 10 18 2 -2
BITMAP
3300
3300
0C00
0C00
C300
C300
CF00
CF00
CF00
CF00
F300
F300
F300
F300
C3C0
C3C0
0300
0300
ENDCHAR
STARTCHAR char1080
ENCODING 1164
SWIDTH 960 0
DWIDTH 10 0
BBX 10 16 2 -2
BITMAP
3300
3300
0C00
0C00
C300
C300
CF00
CF00
FF00
FF00
F300
F300
C3C0
C3C0
0300
0300
ENDCHAR
STARTCHAR char1068
ENCODING 1165
SWIDTH 960 0
DWIDTH 10 0
BBX 10 12 0 0
BITMAP
3000
3000
FC00
FC00
3000
3000
3F00
3F00
30C0
30C0
3F00
3F00
ENDCHAR
STARTCHAR uni0050
ENCODING 1166
SWIDTH 960 0
DWIDTH 10 0
BBX 10 12 2 0
BITMAP
FC00
FC00
C300
C300
CF00
CF00
FF00
FF00
C0C0
C0C0
C000
C000
ENDCHAR
STARTCHAR uni0070
ENCODING 1167
SWIDTH 960 0
DWIDTH 10 0
BBX 10 14 2 -4
BITMAP
FC00
FC00
C300
C300
C300
C300
CF00
CF00
FF00
FF00
C0C0
C0C0
C000
C000
ENDCHAR
STARTCHAR char1027
ENCODING 1168
SWIDTH 960 0
DWIDTH 10 0
BBX 8 14 2 0
BITMAP
03
03
FF
FF
C0
C0
C0
C0
C0
C0
C0
C0
C0
C0
ENDCHAR
STARTCHAR char1075
ENCODING 1169
SWIDTH 960 0
DWIDTH 10 0
BBX 8 12 2 0
BITMAP
03
03
FF
FF
C0
C0
C0
C0
C0
C0
C0
C0
ENDCHAR
STARTCHAR uni0046
ENCODING 1170
SWIDTH 960 0
DWIDTH 10 0
BBX 10 12 0 0
BITMAP
3FC0
3FC0
3000
3000
FF00
FF00
3000
3000
3000
3000
3000
3000
ENDCHAR
STARTCHAR uni0046
ENCODING 1171
SWIDTH 960 0
DWIDTH 10 0
BBX 10 10 0 0
BITMAP
3FC0
3FC0
3000
3000
FF00
FF00
3000
3000
3000
3000
ENDCHAR
STARTCHAR char1026
ENCODING 1172
SWIDTH 960 0
DWIDTH 10 0
BBX 8 14 2 -2
BITMAP
FC
FC
C0
C0
FC
FC
C3
C3
C3
C3
C3
C3
0C
0C
ENDCHAR
STARTCHAR char1026
ENCODING 1173
SWIDTH 960 0
DWIDTH 10 0
BBX 8 12 2 -2
BITMAP
F0
F0
C0
C0
FC
FC
C3
C3
C3
C3
0C
0C
ENDCHAR
STARTCHAR uni0058
ENCODING 1174
SWIDTH 960 0
DWIDTH 10 0
BBX 12 14 0 -2
BITMAP
CCC0
CCC0
CCC0
CCC0
3F00
3F00
CCC0
CCC0
CCC0
CCC0
CCF0
CCF0
0030
0030
ENDCHAR
STARTCHAR uni0058
ENCODING 1175
SWIDTH 960 0
DWIDTH 10 0
BBX 12 12 0 -2
BITMAP
CCC0
CCC0
CCC0
CCC0
3F00
3F00
CCC0
CCC0
CCF0
CCF0
0030
0030
ENDCHAR
STARTCHAR uni0033
ENCODING 1176
SWIDTH 960 0
DWIDTH 10 0
BBX 8 16 2 -4
BITMAP
3C
3C
C3
C3
0C
0C
03
03
C3
C3
3C
3C
0C
0C
30
30
ENDCHAR
STARTCHAR uni0033
ENCODING 1177
SWIDTH 960 0
DWIDTH 10 0
BBX 8 14 2 -4
BITMAP
3C
3C
C3
C3
0C
0C
C3
C3
3C
3C
0C
0C
30
30
ENDCHAR
STARTCHAR uni004B
ENCODING 1178
SWIDTH 960 0
DWIDTH 10 0
BBX 10 14 2 -2
BITMAP
C300
C300
CC00
CC00
F000
F000
CC00
CC00
C300
C300
C3C0
C3C0
00C0
00C0
ENDCHAR
STARTCHAR uni006B
ENCODING 1179
SWIDTH 960 0
DWIDTH 10 0
BBX 10 12 2 -2
BITMAP
C300
C300
CC00
CC00
FC00
FC00
C300
C300
C3C0
C3C0
00C0
00C0
ENDCHAR
STARTCHAR uni004B
ENCODING 1180
SWIDTH 960 0
DWIDTH 10 0
BBX 8 12 2 0
BITMAP
C3
C3
CC
CC
FC
FC
FF
FF
C3
C3
C3
C3
ENDCHAR
STARTCHAR uni006B
ENCODING 1181
SWIDTH 960 0
DWIDTH 10 0
BBX 8 10 2 0
BITMAP
C3
C3
FC
FC
FC
FC
F3
F3
C3
C3
ENDCHAR
STARTCHAR uni004B
ENCODING 1182
SWIDTH 960 0
DWIDTH 10 0
BBX 10 12 0 0
BITMAP
30C0
30C0
FF00
FF00
3C00
3C00
3300
3300
30C0
30C0
30C0
30C0
ENDCHAR
STARTCHAR uni006B
ENCODING 1183
SWIDTH 960 0
DWIDTH 10 0
BBX 10 10 0 0
BITMAP
30C0
30C0
FF00
FF00
3F00
3F00
30C0
30C0
30C0
30C0
ENDCHAR
STARTCHAR uni004B
ENCODING 1184
SWIDTH 960 0
DWIDTH 10 0
BBX 10 12 0 0
BITMAP
F0C0
F0C0
3300
3300
3C00
3C00
3300
3300
30C0
30C0
30C0
30C0
ENDCHAR
STARTCHAR uni006B
ENCODING 1185
SWIDTH 960 0
DWIDTH 10 0
BBX 10 10 0 0
BITMAP
F0C0
F0C0
3300
3300
3F00
3F00
30C0
30C0
30C0
30C0
ENDCHAR
STARTCHAR uni0048
ENCODING 1186
SWIDTH 960 0
DWIDTH 10 0
BBX 10 14 2 -2
BITMAP
C300
C300
C300
C300
FF00
FF00
C300
C300
C300
C300
C3C0
C3C0
00C0
00C0
ENDCHAR
STARTCHAR uni006D
ENCODING 1187
SWIDTH 960 0
DWIDTH 10 0
BBX 10 12 2 -2
BITMAP
C300
C300
C300
C300
FF00
FF00
C300
C300
C3C0
C3C0
00C0
00C0
ENDCHAR
STARTCHAR uni0048
ENCODING 1188
SWIDTH 960 0
DWIDTH 10 0
BBX 10 12 2 0
BITMAP
C3C0
C3C0
C300
C300
FF00
FF00
C300
C300
C300
C300
C300
C300
ENDCHAR
STARTCHAR uni006D
ENCODING 1189
SWIDTH 960 0
DWIDTH 10 0
BBX 10 10 2 0
BITMAP
C3C0
C3C0
C300
C300
FF00
FF00
C300
C300
C300
C300
ENDCHAR
STARTCHAR char1055
ENCODING 1190
SWIDTH 960 0
DWIDTH 10 0
BBX 12 16 2 -4
BITMAP
FF00
FF00
C300
C300
C300
C300
C300
C300
C3C0
C3C0
C330
C330
0030
0030
00C0
00C0
ENDCHAR
STARTCHAR uni006E
ENCODING 1191
SWIDTH 960 0
DWIDTH 10 0
BBX 12 14 2 -4
BITMAP
FF00
FF00
C300
C300
C300
C300
C3C0
C3C0
C330
C330
0030
0030
00C0
00C0
ENDCHAR
STARTCHAR char1060
ENCODING 1192
SWIDTH 960 0
DWIDTH 10 0
BBX 10 14 0 -2
BITMAP
3000
3000
C300
C300
CCC0
CCC0
CCC0
CCC0
CCC0
CCC0
3F00
3F00
03C0
03C0
ENDCHAR
STARTCHAR char1060
ENCODING 1193
SWIDTH 960 0
DWIDTH 10 0
BBX 10 12 0 -2
BITMAP
3000
3000
C300
C300
CCC0
CCC0
CCC0
CCC0
3F00
3F00
03C0
03C0
ENDCHAR
STARTCHAR uni0043
ENCODING 1194
SWIDTH 960 0
DWIDTH 10 0
BBX 8 16 2 -4
BITMAP
3F
3F
C0
C0
C0
C0
C0
C0
C0
C0
3F
3F
0C
0C
3C
3C
ENDCHAR
STARTCHAR uni0063
ENCODING 1195
SWIDTH 960 0
DWIDTH 10 0
BBX 8 14 2 -4
BITMAP
3F
3F
C0
C0
C0
C0
C0
C0
3F
3F
0C
0C
3C
3C
ENDCHAR
STARTCHAR uni0054
ENCODING 1196
SWIDTH 960 0
DWIDTH 10 0
BBX 10 14 0 -2
BITMAP
FFC0
FFC0
0C00
0C00
0C00
0C00
0C00
0C00
0C00
0C00
0F00
0F00
0300
0300
ENDCHAR
STARTCHAR uni0054
ENCODING 1197
SWIDTH 960 0
DWIDTH 10 0
BBX 10 12 0 -2
BITMAP
FFC0
FFC0
0C00
0C00
0C00
0C00
0C00
0C00
0F00
0F00
0300
0300
ENDCHAR
STARTCHAR uni0059
ENCODING 1198
SWIDTH 960 0
DWIDTH 10 0
BBX 10 12 0 0
BITMAP
C0C0
C0C0
3300
3300
0C00
0C00
0C00
0C00
0C00
0C00
0C00
0C00
ENDCHAR
STARTCHAR uni0059
ENCODING 1199
SWIDTH 960 0
DWIDTH 10 0
BBX 10 12 0 -4
BITMAP
C0C0
C0C0
3300
3300
0C00
0C00
0C00
0C00
0C00
0C00
0C00
0C00
ENDCHAR
STARTCHAR uni0059
ENCODING 1200
SWIDTH 960 0
DWIDTH 10 0
BBX 10 12 0 0
BITMAP
C0C0
C0C0
3300
3300
0C00
0C00
3F00
3F00
0C00
0C00
0C00
0C00
ENDCHAR
STARTCHAR uni0059
ENCODING 1201
SWIDTH 960 0
DWIDTH 10 0
BBX 10 12 0 -4
BITMAP
C0C0
C0C0
3300
3300
0C00
0C00
3F00
3F00
0C00
0C00
0C00
0C00
ENDCHAR
STARTCHAR uni0058
ENCODING 1202
SWIDTH 960 0
DWIDTH 10 0
BBX 10 14 2 -2
BITMAP
C300
C300
C300
C300
3C00
3C00
C300
C300
C300
C300
C3C0
C3C0
00C0
00C0
ENDCHAR
STARTCHAR uni0078
ENCODING 1203
SWIDTH 960 0
DWIDTH 10 0
BBX 10 12 2 -2
BITMAP
C300
C300
C300
C300
3C00
3C00
C300
C300
C3C0
C3C0
00C0
00C0
ENDCHAR
STARTCHAR uni0054
ENCODING 1204
SWIDTH 960 0
DWIDTH 10 0
BBX 12 14 0 -2
BITMAP
FCC0
FCC0
30C0
30C0
30C0
30C0
30C0
30C0
30C0
30C0
3FF0
3FF0
0030
0030
ENDCHAR
STARTCHAR uni0054
ENCODING 1205
SWIDTH 960 0
DWIDTH 10 0
BBX 12 12 0 -2
BITMAP
FCC0
FCC0
30C0
30C0
30C0
30C0
30C0
30C0
3FF0
3FF0
0030
0030
ENDCHAR
STARTCHAR char1063
ENCODING 1206
SWIDTH 960 0
DWIDTH 10 0
BBX 10 14 0 -2
BITMAP
C300
C300
C300
C300
3F00
3F00
0300
0300
0300
0300
0FC0
0FC0
00C0
00C0
ENDCHAR
STARTCHAR char1063
ENCODING 1207
SWIDTH 960 0
DWIDTH 10 0
BBX 10 12 0 -2
BITMAP
C300
C300
C300
C300
3F00
3F00
0300
0300
0F00
0F00
00C0
00C0
ENDCHAR
STARTCHAR char1063
ENCODING 1208
SWIDTH 960 0
DWIDTH 10 0
BBX 8 12 0 0
BITMAP
C3
C3
C3
C3
FF
FF
33
33
03
03
03
03
ENDCHAR
STARTCHAR char1063
ENCODING 1209
SWIDTH 960 0
DWIDTH 10 0
BBX 8 10 0 0
BITMAP
C3
C3
C3
C3
FF
FF
33
33
03
03
ENDCHAR
STARTCHAR uni0068
ENCODING 1210
SWIDTH 960 0
DWIDTH 10 0
BBX 8 14 2 0
BITMAP
C0
C0
C0
C0
CC
CC
F3
F3
C3
C3
C3
C3
C3
C3
ENDCHAR
STARTCHAR uni0068
ENCODING 1211
SWIDTH 960 0
DWIDTH 10 0
BBX 8 14 2 0
BITMAP
C0
C0
C0
C0
FC
FC
C3
C3
C3
C3
C3
C3
C3
C3
ENDCHAR
STARTCHAR uni0065
ENCODING 1212
SWIDTH 960 0
DWIDTH 10 0
BBX 10 12 0 0
BITMAP
0F00
0F00
30C0
30C0
F0C0
F0C0
3FC0
3FC0
3000
3000
0FC0
0FC0
ENDCHAR
STARTCHAR uni0065
ENCODING 1213
SWIDTH 960 0
DWIDTH 10 0
BBX 10 10 0 0
BITMAP
0F00
0F00
F0C0
F0C0
3FC0
3FC0
3000
3000
0FC0
0FC0
ENDCHAR
STARTCHAR uni0065
ENCODING 1214
SWIDTH 960 0
DWIDTH 10 0
BBX 10 14 0 -2
BITMAP
0F00
0F00
30C0
30C0
F0C0
F0C0
3FC0
3FC0
3000
3000
0FC0
0FC0
0300
0300
ENDCHAR
STARTCHAR uni0065
ENCODING 1215
SWIDTH 960 0
DWIDTH 10 0
BBX 10 12 0 -2
BITMAP
0F00
0F00
F0C0
F0C0
3FC0
3FC0
3000
3000
0FC0
0FC0
0300
0300
ENDCHAR
STARTCHAR char1030
ENCODING 1216
SWIDTH 960 0
DWIDTH 10 0
BBX 2 12 4 0
BITMAP
C0
C0
C0
C0
C0
C0
C0
C0
C0
C0
C0
C0
ENDCHAR
STARTCHAR uni0058
ENCODING 1217
SWIDTH 960 0
DWIDTH 10 0
BBX 10 16 0 0
BITMAP
3300
3300
0C00
0C00
C0C0
C0C0
CCC0
CCC0
3F00
3F00
CCC0
CCC0
CCC0
CCC0
CCC0
CCC0
ENDCHAR
STARTCHAR uni0058
ENCODING 1218
SWIDTH 960 0
DWIDTH 10 0
BBX 10 16 0 0
BITMAP
3300
3300
0C00
0C00
0000
0000
CCC0
CCC0
CCC0
CCC0
3F00
3F00
CCC0
CCC0
CCC0
CCC0
ENDCHAR
STARTCHAR uni004B
ENCODING 1219
SWIDTH 960 0
DWIDTH 10 0
BBX 8 14 2 -2
BITMAP
C3
C3
CC
CC
F0
F0
CC
CC
C3
C3
C3
C3
0C
0C
ENDCHAR
STARTCHAR uni006B
ENCODING 1220
SWIDTH 960 0
DWIDTH 10 0
BBX 8 12 2 -2
BITMAP
C3
C3
CC
CC
FC
FC
C3
C3
C3
C3
0C
0C
ENDCHAR
STARTCHAR char1051
ENCODING 1221
SWIDTH 960 0
DWIDTH 10 0
BBX 10 14 2 -2
BITMAP
3F00
3F00
3300
3300
3300
3300
3300
3300
3300
3300
C3C0
C3C0
00C0
00C0
ENDCHAR
STARTCHAR char1051
ENCODING 1222
SWIDTH 960 0
DWIDTH 10 0
BBX 10 12 2 -2
BITMAP
3F00
3F00
3300
3300
3300
3300
3300
3300
C3C0
C3C0
00C0
00C0
ENDCHAR
STARTCHAR uni0048
ENCODING 1223
SWIDTH 960 0
DWIDTH 10 0
BBX 8 14 2 -2
BITMAP
C3
C3
C3
C3
FF
FF
C3
C3
C3
C3
C3
C3
0C
0C
ENDCHAR
STARTCHAR uni006D
ENCODING 1224
SWIDTH 960 0
DWIDTH 10 0
BBX 8 12 2 -2
BITMAP
C3
C3
C3
C3
FF
FF
C3
C3
C3
C3
0C
0C
ENDCHAR
STARTCHAR uni0048
ENCODING 1225
SWIDTH 960 0
DWIDTH 10 0
BBX 10 14 2 -2
BITMAP
C300
C300
C300
C300
FF00
FF00
C300
C300
C300
C300
C3C0
C3C0
0300
0300
ENDCHAR
STARTCHAR uni006D
ENCODING 1226
SWIDTH 960 0
DWIDTH 10 0
BBX 10 12 2 -2
BITMAP
C300
C300
C300
C300
FF00
FF00
C300
C300
C3C0
C3C0
0300
0300
ENDCHAR
STARTCHAR char1063
ENCODING 1227
SWIDTH 960 0
DWIDTH 10 0
BBX 8 14 0 -2
BITMAP
C3
C3
C3
C3
3F
3F
03
03
03
03
0F
0F
0C
0C
ENDCHAR
STARTCHAR char1063
ENCODING 1228
SWIDTH 960 0
DWIDTH 10 0
BBX 8 12 0 -2
BITMAP
C3
C3
C3
C3
3F
3F
03
03
0F
0F
0C
0C
ENDCHAR
STARTCHAR uni004D
ENCODING 1229
SWIDTH 960 0
DWIDTH 10 0
BBX 10 14 2 -2
BITMAP
C300
C300
FF00
FF00
CF00
CF00
C300
C300
C300
C300
C3C0
C3C0
0300
0300
ENDCHAR
STARTCHAR uni006D
ENCODING 1230
SWIDTH 960 0
DWIDTH 10 0
BBX 10 12 2 -2
BITMAP
C300
C300
FF00
FF00
CF00
CF00
C300
C300
C3C0
C3C0
0300
0300
ENDCHAR
STARTCHAR char1030
ENCODING 1231
SWIDTH 960 0
DWIDTH 10 0
BBX 6 12 2 0
BITMAP
30
30
30
30
30
30
FC
FC
30
30
30
30
ENDCHAR
STARTCHAR char1040
ENCODING 1232
SWIDTH 960 0
DWIDTH 10 0
BBX 8 16 2 0
BITMAP
C3
C3
3C
3C
3C
3C
C3
C3
C3
C3
FF
FF
C3
C3
C3
C3
ENDCHAR
STARTCHAR uni0061
ENCODING 1233
SWIDTH 960 0
DWIDTH 10 0
BBX 8 16 2 0
BITMAP
C3
C3
3C
3C
00
00
3F
3F
C3
C3
C3
C3
CF
CF
33
33
ENDCHAR
STARTCHAR char1040
ENCODING 1234
SWIDTH 960 0
DWIDTH 10 0
BBX 8 16 2 0
BITMAP
C3
C3
00
00
3C
3C
C3
C3
C3
C3
FF
FF
C3
C3
C3
C3
ENDCHAR
STARTCHAR uni0061
ENCODING 1235
SWIDTH 960 0
DWIDTH 10 0
BBX 8 14 2 0
BITMAP
C3
C3
00
00
3F
3F
C3
C3
C3
C3
CF
CF
33
33
ENDCHAR
STARTCHAR char198
ENCODING 1236
SWIDTH 960 0
DWIDTH 10 0
BBX 12 12 0 0
BITMAP
3FF0
3FF0
C300
C300
C3C0
C3C0
FF00
FF00
C300
C300
C3F0
C3F0
ENDCHAR
STARTCHAR uni0061
ENCODING 1237
SWIDTH 960 0
DWIDTH 10 0
BBX 10 10 2 0
BITMAP
3F00
3F00
CCC0
CCC0
CFC0
CFC0
CC00
CC00
3FC0
3FC0
ENDCHAR
STARTCHAR uni0045
ENCODING 1238
SWIDTH 960 0
DWIDTH 10 0
BBX 8 16 2 0
BITMAP
C3
C3
3C
3C
FF
FF
C0
C0
FC
FC
C0
C0
C0
C0
FF
FF
ENDCHAR
STARTCHAR uni0065
ENCODING 1239
SWIDTH 960 0
DWIDTH 10 0
BBX 8 16 2 0
BITMAP
C3
C3
3C
3C
00
00
3C
3C
C3
C3
FF
FF
C0
C0
3F
3F
ENDCHAR
STARTCHAR uni0065
ENCODING 1240
SWIDTH 960 0
DWIDTH 10 0
BBX 8 12 2 0
BITMAP
FC
FC
03
03
FF
FF
C3
C3
C3
C3
3C
3C
ENDCHAR
STARTCHAR uni0065
ENCODING 1241
SWIDTH 960 0
DWIDTH 10 0
BBX 8 10 2 0
BITMAP
FC
FC
03
03
FF
FF
C3
C3
3C
3C
ENDCHAR
STARTCHAR uni0065
ENCODING 1242
SWIDTH 960 0
DWIDTH 10 0
BBX 8 16 2 0
BITMAP
C3
C3
00
00
FC
FC
03
03
FF
FF
C3
C3
C3
C3
3C
3C
ENDCHAR
STARTCHAR uni0065
ENCODING 1243
SWIDTH 960 0
DWIDTH 10 0
BBX 8 14 2 0
BITMAP
C3
C3
00
00
FC
FC
03
03
FF
FF
C3
C3
3C
3C
ENDCHAR
STARTCHAR uni0058
ENCODING 1244
SWIDTH 960 0
DWIDTH 10 0
BBX 10 16 0 0
BITMAP
3300
3300
0000
0000
CCC0
CCC0
CCC0
CCC0
3F00
3F00
CCC0
CCC0
CCC0
CCC0
CCC0
CCC0
ENDCHAR
STARTCHAR uni0058
ENCODING 1245
SWIDTH 960 0
DWIDTH 10 0
BBX 10 14 0 0
BITMAP
3300
3300
0000
0000
CCC0
CCC0
CCC0
CCC0
3F00
3F00
CCC0
CCC0
CCC0
CCC0
ENDCHAR
STARTCHAR uni0033
ENCODING 1246
SWIDTH 960 0
DWIDTH 10 0
BBX 8 16 2 0
BITMAP
C3
C3
00
00
3C
3C
C3
C3
0C
0C
03
03
C3
C3
3C
3C
ENDCHAR
STARTCHAR uni0033
ENCODING 1247
SWIDTH 960 0
DWIDTH 10 0
BBX 8 14 2 0
BITMAP
C3
C3
00
00
3C
3C
C3
C3
0C
0C
C3
C3
3C
3C
ENDCHAR
STARTCHAR uni0033
ENCODING 1248
SWIDTH 960 0
DWIDTH 10 0
BBX 8 16 2 0
BITMAP
C3
C3
00
00
3C
3C
C3
C3
0C
0C
03
03
C3
C3
3C
3C
ENDCHAR
STARTCHAR uni0033
ENCODING 1249
SWIDTH 960 0
DWIDTH 10 0
BBX 8 14 2 0
BITMAP
C3
C3
00
00
3C
3C
C3
C3
0C
0C
C3
C3
3C
3C
ENDCHAR
STARTCHAR char1080
ENCODING 1250
SWIDTH 960 0
DWIDTH 10 0
BBX 8 16 2 0
BITMAP
3C
3C
00
00
C3
C3
CF
CF
CF
CF
F3
F3
F3
F3
C3
C3
ENDCHAR
STARTCHAR char1080
ENCODING 1251
SWIDTH 960 0
DWIDTH 10 0
BBX 8 14 2 0
BITMAP
3C
3C
00
00
C3
C3
CF
CF
FF
FF
F3
F3
C3
C3
ENDCHAR
STARTCHAR char1080
ENCODING 1252
SWIDTH 960 0
DWIDTH 10 0
BBX 8 16 2 0
BITMAP
C3
C3
00
00
C3
C3
CF
CF
CF
CF
F3
F3
F3
F3
C3
C3
ENDCHAR
STARTCHAR char1080
ENCODING 1253
SWIDTH 960 0
DWIDTH 10 0
BBX 8 14 2 0
BITMAP
C3
C3
00
00
C3
C3
CF
CF
FF
FF
F3
F3
C3
C3
ENDCHAR
STARTCHAR uni004F
ENCODING 1254
SWIDTH 960 0
DWIDTH 10 0
BBX 8 16 2 0
BITMAP
C3
C3
00
00
3C
3C
C3
C3
C3
C3
C3
C3
C3
C3
3C
3C
ENDCHAR
STARTCHAR uni006F
ENCODING 1255
SWIDTH 960 0
DWIDTH 10 0
BBX 8 14 2 0
BITMAP
C3
C3
00
00
3C
3C
C3
C3
C3
C3
C3
C3
3C
3C
ENDCHAR
STARTCHAR uni004F
ENCODING 1256
SWIDTH 960 0
DWIDTH 10 0
BBX 8 12 2 0
BITMAP
3C
3C
C3
C3
FF
FF
C3
C3
C3
C3
3C
3C
ENDCHAR
STARTCHAR uni006F
ENCODING 1257
SWIDTH 960 0
DWIDTH 10 0
BBX 8 10 2 0
BITMAP
3C
3C
C3
C3
FF
FF
C3
C3
3C
3C
ENDCHAR
STARTCHAR uni004F
ENCODING 1258
SWIDTH 960 0
DWIDTH 10 0
BBX 8 16 2 0
BITMAP
C3
C3
00
00
3C
3C
C3
C3
FF
FF
C3
C3
C3
C3
3C
3C
ENDCHAR
STARTCHAR uni006F
ENCODING 1259
SWIDTH 960 0
DWIDTH 10 0
BBX 8 10 2 0
BITMAP
3C
3C
C3
C3
FF
FF
C3
C3
3C
3C
ENDCHAR
STARTCHAR uni0033
ENCODING 1260
SWIDTH 960 0
DWIDTH 10 0
BBX 8 16 2 0
BITMAP
C3
C3
00
00
3C
3C
C3
C3
0F
0F
03
03
C3
C3
3C
3C
ENDCHAR
STARTCHAR uni0033
ENCODING 1261
SWIDTH 960 0
DWIDTH 10 0
BBX 8 14 2 0
BITMAP
C3
C3
00
00
3C
3C
C3
C3
0F
0F
C3
C3
3C
3C
ENDCHAR
STARTCHAR uni0059
ENCODING 1262
SWIDTH 960 0
DWIDTH 10 0
BBX 10 16 0 0
BITMAP
3F00
3F00
0000
0000
C0C0
C0C0
3300
3300
0C00
0C00
0C00
0C00
0C00
0C00
0C00
0C00
ENDCHAR
STARTCHAR uni0059
ENCODING 1263
SWIDTH 960 0
DWIDTH 10 0
BBX 10 16 0 -4
BITMAP
3F00
3F00
0000
0000
C0C0
C0C0
3300
3300
0C00
0C00
0C00
0C00
0C00
0C00
0C00
0C00
ENDCHAR
STARTCHAR uni0079
ENCODING 1264
SWIDTH 960 0
DWIDTH 10 0
BBX 8 16 2 0
BITMAP
C3
C3
00
00
C3
C3
C3
C3
C3
C3
3C
3C
0C
0C
F0
F0
ENDCHAR
STARTCHAR uni0079
ENCODING 1265
SWIDTH 960 0
DWIDTH 10 0
BBX 8 16 2 -4
BITMAP
C3
C3
00
00
C3
C3
C3
C3
C3
C3
3C
3C
0C
0C
F0
F0
ENDCHAR
STARTCHAR uni0079
ENCODING 1266
SWIDTH 960 0
DWIDTH 10 0
BBX 8 16 2 0
BITMAP
33
33
CF
CF
00
00
C3
C3
C3
C3
3C
3C
0C
0C
F0
F0
ENDCHAR
STARTCHAR uni0079
ENCODING 1267
SWIDTH 960 0
DWIDTH 10 0
BBX 8 16 2 -4
BITMAP
33
33
CC
CC
00
00
C3
C3
C3
C3
3C
3C
0C
0C
F0
F0
ENDCHAR
STARTCHAR char1063
ENCODING 1268
SWIDTH 960 0
DWIDTH 10 0
BBX 8 16 0 0
BITMAP
C3
C3
00
00
C3
C3
C3
C3
FF
FF
33
33
03
03
03
03
ENDCHAR
STARTCHAR char1063
ENCODING 1269
SWIDTH 960 0
DWIDTH 10 0
BBX 8 14 0 0
BITMAP
C3
C3
00
00
C3
C3
C3
C3
FF
FF
33
33
03
03
ENDCHAR
STARTCHAR char1043
ENCODING 1270
SWIDTH 960 0
DWIDTH 10 0
BBX 8 14 2 -2
BITMAP
FF
FF
C0
C0
C0
C0
C0
C0
C0
C0
F0
F0
30
30
ENDCHAR
STARTCHAR char1075
ENCODING 1271
SWIDTH 960 0
DWIDTH 10 0
BBX 10 12 0 -2
BITMAP
3FC0
3FC0
3000
3000
FC00
FC00
3000
3000
3C00
3C00
0C00
0C00
ENDCHAR
STARTCHAR char1067
ENCODING 1272
SWIDTH 960 0
DWIDTH 10 0
BBX 8 16 2 0
BITMAP
C3
C3
00
00
C3
C3
C3
C3
C3
C3
F3
F3
CF
CF
F3
F3
ENDCHAR
STARTCHAR char1067
ENCODING 1273
SWIDTH 960 0
DWIDTH 10 0
BBX 8 14 2 0
BITMAP
C3
C3
00
00
C3
C3
C3
C3
F3
F3
CF
CF
F3
F3
ENDCHAR
STARTCHAR char1043
ENCODING 1274
SWIDTH 960 0
DWIDTH 10 0
BBX 10 16 0 -4
BITMAP
3FC0
3FC0
3000
3000
FC00
FC00
3000
3000
3000
3000
3C00
3C00
0300
0300
0300
0300
ENDCHAR
STARTCHAR char1075
ENCODING 1275
SWIDTH 960 0
DWIDTH 10 0
BBX 10 14 0 -4
BITMAP
3FC0
3FC0
3000
3000
FC00
FC00
3000
3000
3C00
3C00
0300
0300
0C00
0C00
ENDCHAR
STARTCHAR uni0058
ENCODING 1276
SWIDTH 960 0
DWIDTH 10 0
BBX 10 14 2 -2
BITMAP
C300
C300
C300
C300
3C00
3C00
C300
C300
C300
C300
C0C0
C0C0
0300
0300
ENDCHAR
STARTCHAR uni0078
ENCODING 1277
SWIDTH 960 0
DWIDTH 10 0
BBX 10 12 2 -2
BITMAP
C300
C300
FF00
FF00
3C00
3C00
C300
C300
C0C0
C0C0
0300
0300
ENDCHAR
STARTCHAR uni0058
ENCODING 1278
SWIDTH 960 0
DWIDTH 10 0
BBX 8 12 2 0
BITMAP
C3
C3
C3
C3
3C
3C
FF
FF
C3
C3
C3
C3
ENDCHAR
STARTCHAR uni0078
ENCODING 1279
SWIDTH 960 0
DWIDTH 10 0
BBX 8 10 2 0
BITMAP
C3
C3
C3
C3
3C
3C
FF
FF
C3
C3
ENDCHAR
STARTCHAR NKO
ENCODING 2040
SWIDTH 960 0
DWIDTH 10 0
BBX 12 8 0 -2
BITMAP
FFF0
FFF0
FFF0
FFF0
FFF0
FFF0
FFF0
FFF0
ENDCHAR
STARTCHAR NKO
ENCODING 2041
SWIDTH 960 0
DWIDTH 10 0
BBX 12 8 0 -2
BITMAP
3330
3330
CCC0
CCC0
3330
3330
CCC0
CCC0
ENDCHAR
STARTCHAR NKO
ENCODING 2042
SWIDTH 960 0
DWIDTH 10 0
BBX 10 18 0 -2
BITMAP
CCC0
CCC0
0000
0000
CCC0
CCC0
0000
0000
CCC0
CCC0
0000
0000
CCC0
CCC0
0000
0000
CCC0
CCC0
ENDCHAR
STARTCHAR char2434
ENCODING 2434
SWIDTH 960 0
DWIDTH 10 0
BBX 10 10 2 0
BITMAP
FFC0
FFC0
3300
3300
3300
3300
3300
3300
3300
3300
ENDCHAR
STARTCHAR KANNADA
ENCODING 3232
SWIDTH 960 0
DWIDTH 10 0
BBX 12 14 0 0
BITMAP
03C0
03C0
0030
0030
FFC0
FFC0
3030
3030
3330
3330
3030
3030
0FC0
0FC0
ENDCHAR
STARTCHAR KANNADA
ENCODING 3237
SWIDTH 960 0
DWIDTH 10 0
BBX 12 20 0 -4
BITMAP
00C0
00C0
0030
0030
FFC0
FFC0
3030
3030
3330
3330
3030
3030
3330
3330
0CC0
0CC0
0000
0000
0300
0300
ENDCHAR
STARTCHAR char1480
ENCODING 4808
SWIDTH 960 0
DWIDTH 10 0
BBX 10 16 2 -2
BITMAP
FFC0
FFC0
FFC0
FFC0
FFC0
FFC0
FFC0
FFC0
FFC0
FFC0
FFC0
FFC0
FFC0
FFC0
FFC0
FFC0
ENDCHAR
STARTCHAR char7461
ENCODING 7461
SWIDTH 960 0
DWIDTH 10 0
BBX 10 10 0 0
BITMAP
3F00
3F00
3F00
3F00
3F00
3F00
0C00
0C00
F3C0
F3C0
ENDCHAR
STARTCHAR LATIN
ENCODING 7680
SWIDTH 960 0
DWIDTH 10 0
BBX 8 18 2 -6
BITMAP
3C
3C
C3
C3
C3
C3
FF
FF
C3
C3
C3
C3
0C
0C
33
33
0C
0C
ENDCHAR
STARTCHAR LATIN
ENCODING 7681
SWIDTH 960 0
DWIDTH 10 0
BBX 8 16 2 -6
BITMAP
3F
3F
C3
C3
C3
C3
CF
CF
33
33
30
30
CC
CC
30
30
ENDCHAR
STARTCHAR LATIN
ENCODING 7682
SWIDTH 960 0
DWIDTH 10 0
BBX 8 18 2 0
BITMAP
0C
0C
00
00
00
00
FC
FC
C3
C3
FC
FC
C3
C3
C3
C3
FC
FC
ENDCHAR
STARTCHAR LATIN
ENCODING 7683
SWIDTH 960 0
DWIDTH 10 0
BBX 8 16 2 0
BITMAP
0C
0C
C0
C0
C0
C0
FC
FC
C3
C3
C3
C3
C3
C3
FC
FC
ENDCHAR
STARTCHAR LATIN
ENCODING 7684
SWIDTH 960 0
DWIDTH 10 0
BBX 8 16 2 -4
BITMAP
FC
FC
C3
C3
FC
FC
C3
C3
C3
C3
FC
FC
00
00
0C
0C
ENDCHAR
STARTCHAR LATIN
ENCODING 7685
SWIDTH 960 0
DWIDTH 10 0
BBX 8 18 2 -4
BITMAP
C0
C0
C0
C0
FC
FC
C3
C3
C3
C3
C3
C3
FC
FC
00
00
0C
0C
ENDCHAR
STARTCHAR LATIN
ENCODING 7686
SWIDTH 960 0
DWIDTH 10 0
BBX 8 16 2 -4
BITMAP
FC
FC
C3
C3
FC
FC
C3
C3
C3
C3
FC
FC
00
00
3F
3F
ENDCHAR
STARTCHAR LATIN
ENCODING 7687
SWIDTH 960 0
DWIDTH 10 0
BBX 8 18 2 -4
BITMAP
C0
C0
C0
C0
FC
FC
C3
C3
C3
C3
C3
C3
FC
FC
00
00
3F
3F
ENDCHAR
STARTCHAR LATIN
ENCODING 7688
SWIDTH 960 0
DWIDTH 10 0
BBX 8 22 2 -6
BITMAP
0C
0C
30
30
3F
3F
C0
C0
C0
C0
C0
C0
C0
C0
3F
3F
0C
0C
03
03
0C
0C
ENDCHAR
STARTCHAR LATIN
ENCODING 7689
SWIDTH 960 0
DWIDTH 10 0
BBX 8 22 2 -6
BITMAP
03
03
0C
0C
00
00
3F
3F
C0
C0
C0
C0
C0
C0
3F
3F
0C
0C
03
03
0C
0C
ENDCHAR
STARTCHAR LATIN
ENCODING 7690
SWIDTH 960 0
DWIDTH 10 0
BBX 8 18 2 0
BITMAP
30
30
00
00
00
00
FC
FC
C3
C3
C3
C3
C3
C3
C3
C3
FC
FC
ENDCHAR
STARTCHAR LATIN
ENCODING 7691
SWIDTH 960 0
DWIDTH 10 0
BBX 8 16 2 0
BITMAP
30
30
03
03
03
03
3F
3F
C3
C3
C3
C3
C3
C3
3F
3F
ENDCHAR
STARTCHAR LATIN
ENCODING 7692
SWIDTH 960 0
DWIDTH 10 0
BBX 8 16 2 -4
BITMAP
FC
FC
C3
C3
C3
C3
C3
C3
C3
C3
FC
FC
00
00
30
30
ENDCHAR
STARTCHAR LATIN
ENCODING 7693
SWIDTH 960 0
DWIDTH 10 0
BBX 8 18 2 -4
BITMAP
03
03
03
03
3F
3F
C3
C3
C3
C3
C3
C3
3F
3F
00
00
30
30
ENDCHAR
STARTCHAR LATIN
ENCODING 7694
SWIDTH 960 0
DWIDTH 10 0
BBX 8 16 2 -4
BITMAP
FC
FC
C3
C3
C3
C3
C3
C3
C3
C3
FC
FC
00
00
3F
3F
ENDCHAR
STARTCHAR LATIN
ENCODING 7695
SWIDTH 960 0
DWIDTH 10 0
BBX 8 18 2 -4
BITMAP
03
03
03
03
3F
3F
C3
C3
C3
C3
C3
C3
3F
3F
00
00
FC
FC
ENDCHAR
STARTCHAR LATIN
ENCODING 7696
SWIDTH 960 0
DWIDTH 10 0
BBX 8 18 2 -6
BITMAP
FC
FC
C3
C3
C3
C3
C3
C3
C3
C3
FC
FC
0C
0C
03
03
0C
0C
ENDCHAR
STARTCHAR LATIN
ENCODING 7697
SWIDTH 960 0
DWIDTH 10 0
BBX 8 20 2 -6
BITMAP
03
03
03
03
3F
3F
C3
C3
C3
C3
C3
C3
3F
3F
30
30
0C
0C
30
30
ENDCHAR
STARTCHAR LATIN
ENCODING 7698
SWIDTH 960 0
DWIDTH 10 0
BBX 8 16 2 -4
BITMAP
FC
FC
C3
C3
C3
C3
C3
C3
C3
C3
FC
FC
0C
0C
33
33
ENDCHAR
STARTCHAR LATIN
ENCODING 7699
SWIDTH 960 0
DWIDTH 10 0
BBX 8 18 2 -4
BITMAP
03
03
03
03
3F
3F
C3
C3
C3
C3
C3
C3
3F
3F
30
30
CC
CC
ENDCHAR
STARTCHAR LATIN
ENCODING 7700
SWIDTH 960 0
DWIDTH 10 0
BBX 8 18 2 0
BITMAP
30
30
3F
3F
00
00
FF
FF
C0
C0
FC
FC
C0
C0
C0
C0
FF
FF
ENDCHAR
STARTCHAR LATIN
ENCODING 7701
SWIDTH 960 0
DWIDTH 10 0
BBX 8 18 2 0
BITMAP
30
30
0C
0C
3F
3F
00
00
3C
3C
C3
C3
FF
FF
C0
C0
3F
3F
ENDCHAR
STARTCHAR LATIN
ENCODING 7702
SWIDTH 960 0
DWIDTH 10 0
BBX 8 18 2 0
BITMAP
03
03
3F
3F
00
00
FF
FF
C0
C0
FC
FC
C0
C0
C0
C0
FF
FF
ENDCHAR
STARTCHAR LATIN
ENCODING 7703
SWIDTH 960 0
DWIDTH 10 0
BBX 8 18 2 0
BITMAP
03
03
0C
0C
3F
3F
00
00
3C
3C
C3
C3
FF
FF
C0
C0
3F
3F
ENDCHAR
STARTCHAR LATIN
ENCODING 7704
SWIDTH 960 0
DWIDTH 10 0
BBX 8 16 2 -4
BITMAP
FF
FF
C0
C0
FC
FC
C0
C0
C0
C0
FF
FF
0C
0C
33
33
ENDCHAR
STARTCHAR LATIN
ENCODING 7705
SWIDTH 960 0
DWIDTH 10 0
BBX 8 14 2 -4
BITMAP
3C
3C
C3
C3
FF
FF
C0
C0
3F
3F
0C
0C
33
33
ENDCHAR
STARTCHAR LATIN
ENCODING 7706
SWIDTH 960 0
DWIDTH 10 0
BBX 10 18 2 -6
BITMAP
FF00
FF00
C000
C000
FC00
FC00
C000
C000
C000
C000
FF00
FF00
0000
0000
3CC0
3CC0
C300
C300
ENDCHAR
STARTCHAR LATIN
ENCODING 7707
SWIDTH 960 0
DWIDTH 10 0
BBX 10 16 2 -6
BITMAP
3C00
3C00
C300
C300
FF00
FF00
C000
C000
3F00
3F00
0000
0000
3CC0
3CC0
C300
C300
ENDCHAR
STARTCHAR LATIN
ENCODING 7708
SWIDTH 960 0
DWIDTH 10 0
BBX 10 24 2 -6
BITMAP
C0C0
C0C0
3F00
3F00
0000
0000
FF00
FF00
C000
C000
FC00
FC00
C000
C000
C000
C000
FF00
FF00
0C00
0C00
0300
0300
0C00
0C00
ENDCHAR
STARTCHAR LATIN
ENCODING 7709
SWIDTH 960 0
DWIDTH 10 0
BBX 10 22 2 -6
BITMAP
C0C0
C0C0
3F00
3F00
0000
0000
3C00
3C00
C300
C300
FF00
FF00
C000
C000
3F00
3F00
0C00
0C00
0300
0300
0C00
0C00
ENDCHAR
STARTCHAR LATIN
ENCODING 7710
SWIDTH 960 0
DWIDTH 10 0
BBX 8 18 2 0
BITMAP
0C
0C
00
00
00
00
FF
FF
C0
C0
FC
FC
C0
C0
C0
C0
C0
C0
ENDCHAR
STARTCHAR uni0066
ENCODING 7711
SWIDTH 960 0
DWIDTH 10 0
BBX 6 18 4 0
BITMAP
30
30
00
00
3C
3C
C0
C0
FC
FC
C0
C0
C0
C0
C0
C0
C0
C0
ENDCHAR
STARTCHAR LATIN
ENCODING 7712
SWIDTH 960 0
DWIDTH 10 0
BBX 8 18 2 0
BITMAP
3F
3F
00
00
00
00
3F
3F
C0
C0
C0
C0
CF
CF
C3
C3
3F
3F
ENDCHAR
STARTCHAR LATIN
ENCODING 7713
SWIDTH 960 0
DWIDTH 10 0
BBX 8 18 2 -4
BITMAP
FC
FC
00
00
3F
3F
C3
C3
C3
C3
C3
C3
3F
3F
03
03
3C
3C
ENDCHAR
STARTCHAR LATIN
ENCODING 7714
SWIDTH 960 0
DWIDTH 10 0
BBX 8 18 2 0
BITMAP
0C
0C
00
00
00
00
C3
C3
C3
C3
FF
FF
C3
C3
C3
C3
C3
C3
ENDCHAR
STARTCHAR LATIN
ENCODING 7715
SWIDTH 960 0
DWIDTH 10 0
BBX 8 16 2 0
BITMAP
0C
0C
C0
C0
C0
C0
FC
FC
C3
C3
C3
C3
C3
C3
C3
C3
ENDCHAR
STARTCHAR LATIN
ENCODING 7716
SWIDTH 960 0
DWIDTH 10 0
BBX 8 16 2 -4
BITMAP
C3
C3
C3
C3
FF
FF
C3
C3
C3
C3
C3
C3
00
00
0C
0C
ENDCHAR
STARTCHAR LATIN
ENCODING 7717
SWIDTH 960 0
DWIDTH 10 0
BBX 8 18 2 -4
BITMAP
C0
C0
C0
C0
FC
FC
C3
C3
C3
C3
C3
C3
C3
C3
00
00
0C
0C
ENDCHAR
STARTCHAR LATIN
ENCODING 7718
SWIDTH 960 0
DWIDTH 10 0
BBX 8 18 2 0
BITMAP
33
33
00
00
00
00
C3
C3
C3
C3
FF
FF
C3
C3
C3
C3
C3
C3
ENDCHAR
STARTCHAR LATIN
ENCODING 7719
SWIDTH 960 0
DWIDTH 10 0
BBX 8 18 2 0
BITMAP
33
33
00
00
C0
C0
C0
C0
FC
FC
C3
C3
C3
C3
C3
C3
C3
C3
ENDCHAR
STARTCHAR LATIN
ENCODING 7720
SWIDTH 960 0
DWIDTH 10 0
BBX 8 16 2 -4
BITMAP
C3
C3
C3
C3
FF
FF
C3
C3
C3
C3
C3
C3
30
30
C0
C0
ENDCHAR
STARTCHAR LATIN
ENCODING 7721
SWIDTH 960 0
DWIDTH 10 0
BBX 8 18 2 -4
BITMAP
C0
C0
C0
C0
FC
FC
C3
C3
C3
C3
C3
C3
C3
C3
30
30
C0
C0
ENDCHAR
STARTCHAR LATIN
ENCODING 7722
SWIDTH 960 0
DWIDTH 10 0
BBX 8 18 2 -6
BITMAP
C3
C3
C3
C3
FF
FF
C3
C3
C3
C3
C3
C3
00
00
C3
C3
3C
3C
ENDCHAR
STARTCHAR LATIN
ENCODING 7723
SWIDTH 960 0
DWIDTH 10 0
BBX 8 20 2 -6
BITMAP
C0
C0
C0
C0
FC
FC
C3
C3
C3
C3
C3
C3
C3
C3
00
00
C3
C3
3C
3C
ENDCHAR
STARTCHAR LATIN
ENCODING 7724
SWIDTH 960 0
DWIDTH 10 0
BBX 10 20 0 -6
BITMAP
3F00
3F00
0C00
0C00
0C00
0C00
0C00
0C00
0C00
0C00
0C00
0C00
3F00
3F00
0000
0000
3CC0
3CC0
C300
C300
ENDCHAR
STARTCHAR LATIN
ENCODING 7725
SWIDTH 960 0
DWIDTH 10 0
BBX 10 20 0 -6
BITMAP
0C00
0C00
0000
0000
3C00
3C00
0C00
0C00
0C00
0C00
0C00
0C00
0C00
0C00
0000
0000
3CC0
3CC0
C300
C300
ENDCHAR
STARTCHAR LATIN
ENCODING 7726
SWIDTH 960 0
DWIDTH 10 0
BBX 6 18 2 0
BITMAP
0C
0C
FC
FC
00
00
FC
FC
30
30
30
30
30
30
30
30
FC
FC
ENDCHAR
STARTCHAR LATIN
ENCODING 7727
SWIDTH 960 0
DWIDTH 10 0
BBX 6 18 2 0
BITMAP
0C
0C
30
30
CC
CC
00
00
F0
F0
30
30
30
30
30
30
30
30
ENDCHAR
STARTCHAR LATIN
ENCODING 7728
SWIDTH 960 0
DWIDTH 10 0
BBX 8 18 2 0
BITMAP
0C
0C
30
30
00
00
C3
C3
CC
CC
FC
FC
C3
C3
C3
C3
C3
C3
ENDCHAR
STARTCHAR LATIN
ENCODING 7729
SWIDTH 960 0
DWIDTH 10 0
BBX 8 18 2 0
BITMAP
03
03
0C
0C
C0
C0
C0
C0
C3
C3
CC
CC
FC
FC
C3
C3
C3
C3
ENDCHAR
STARTCHAR LATIN
ENCODING 7730
SWIDTH 960 0
DWIDTH 10 0
BBX 8 16 2 -4
BITMAP
C3
C3
CC
CC
F0
F0
CC
CC
C3
C3
C3
C3
00
00
0C
0C
ENDCHAR
STARTCHAR LATIN
ENCODING 7731
SWIDTH 960 0
DWIDTH 10 0
BBX 8 18 2 -4
BITMAP
C0
C0
C0
C0
C3
C3
CC
CC
FC
FC
C3
C3
C3
C3
00
00
0C
0C
ENDCHAR
STARTCHAR LATIN
ENCODING 7732
SWIDTH 960 0
DWIDTH 10 0
BBX 8 16 2 -4
BITMAP
C3
C3
CC
CC
F0
F0
CC
CC
C3
C3
C3
C3
00
00
3F
3F
ENDCHAR
STARTCHAR LATIN
ENCODING 7733
SWIDTH 960 0
DWIDTH 10 0
BBX 8 18 2 -4
BITMAP
C0
C0
C0
C0
C3
C3
CC
CC
FC
FC
C3
C3
C3
C3
00
00
3F
3F
ENDCHAR
STARTCHAR LATIN
ENCODING 7734
SWIDTH 960 0
DWIDTH 10 0
BBX 8 16 2 -4
BITMAP
C0
C0
C0
C0
C0
C0
C0
C0
C0
C0
FF
FF
00
00
0C
0C
ENDCHAR
STARTCHAR LATIN
ENCODING 7735
SWIDTH 960 0
DWIDTH 10 0
BBX 4 18 2 -4
BITMAP
F0
F0
30
30
30
30
30
30
30
30
30
30
30
30
00
00
30
30
ENDCHAR
STARTCHAR LATIN
ENCODING 7736
SWIDTH 960 0
DWIDTH 10 0
BBX 8 22 2 -4
BITMAP
3F
3F
00
00
00
00
C0
C0
C0
C0
C0
C0
C0
C0
C0
C0
FF
FF
00
00
0C
0C
ENDCHAR
STARTCHAR LATIN
ENCODING 7737
SWIDTH 960 0
DWIDTH 10 0
BBX 6 22 2 -4
BITMAP
FC
FC
00
00
F0
F0
30
30
30
30
30
30
30
30
30
30
30
30
00
00
30
30
ENDCHAR
STARTCHAR LATIN
ENCODING 7738
SWIDTH 960 0
DWIDTH 10 0
BBX 8 16 2 -4
BITMAP
C0
C0
C0
C0
C0
C0
C0
C0
C0
C0
FF
FF
00
00
3F
3F
ENDCHAR
STARTCHAR LATIN
ENCODING 7739
SWIDTH 960 0
DWIDTH 10 0
BBX 6 18 2 -4
BITMAP
F0
F0
30
30
30
30
30
30
30
30
30
30
30
30
00
00
FC
FC
ENDCHAR
STARTCHAR LATIN
ENCODING 7740
SWIDTH 960 0
DWIDTH 10 0
BBX 8 18 2 -6
BITMAP
C0
C0
C0
C0
C0
C0
C0
C0
C0
C0
FF
FF
00
00
0C
0C
33
33
ENDCHAR
STARTCHAR LATIN
ENCODING 7741
SWIDTH 960 0
DWIDTH 10 0
BBX 6 20 2 -6
BITMAP
F0
F0
30
30
30
30
30
30
30
30
30
30
30
30
00
00
30
30
CC
CC
ENDCHAR
STARTCHAR LATIN
ENCODING 7742
SWIDTH 960 0
DWIDTH 10 0
BBX 8 18 2 0
BITMAP
0C
0C
30
30
00
00
C3
C3
FF
FF
CF
CF
C3
C3
C3
C3
C3
C3
ENDCHAR
STARTCHAR LATIN
ENCODING 7743
SWIDTH 960 0
DWIDTH 10 0
BBX 8 16 2 0
BITMAP
0C
0C
30
30
00
00
C3
C3
FF
FF
CF
CF
C3
C3
C3
C3
ENDCHAR
STARTCHAR LATIN
ENCODING 7744
SWIDTH 960 0
DWIDTH 10 0
BBX 8 18 2 0
BITMAP
0C
0C
00
00
00
00
C3
C3
FF
FF
CF
CF
C3
C3
C3
C3
C3
C3
ENDCHAR
STARTCHAR LATIN
ENCODING 7745
SWIDTH 960 0
DWIDTH 10 0
BBX 8 14 2 0
BITMAP
0C
0C
00
00
C3
C3
FF
FF
CF
CF
C3
C3
C3
C3
ENDCHAR
STARTCHAR LATIN
ENCODING 7746
SWIDTH 960 0
DWIDTH 10 0
BBX 8 16 2 -4
BITMAP
C3
C3
FF
FF
CF
CF
C3
C3
C3
C3
C3
C3
00
00
0C
0C
ENDCHAR
STARTCHAR LATIN
ENCODING 7747
SWIDTH 960 0
DWIDTH 10 0
BBX 8 14 2 -4
BITMAP
C3
C3
FF
FF
CF
CF
C3
C3
C3
C3
00
00
0C
0C
ENDCHAR
STARTCHAR LATIN
ENCODING 7748
SWIDTH 960 0
DWIDTH 10 0
BBX 8 18 2 0
BITMAP
0C
0C
00
00
00
00
C3
C3
F3
F3
F3
F3
CF
CF
CF
CF
C3
C3
ENDCHAR
STARTCHAR LATIN
ENCODING 7749
SWIDTH 960 0
DWIDTH 10 0
BBX 8 14 2 0
BITMAP
0C
0C
00
00
FC
FC
C3
C3
C3
C3
C3
C3
C3
C3
ENDCHAR
STARTCHAR LATIN
ENCODING 7750
SWIDTH 960 0
DWIDTH 10 0
BBX 8 16 2 -4
BITMAP
C3
C3
F3
F3
F3
F3
CF
CF
CF
CF
C3
C3
00
00
0C
0C
ENDCHAR
STARTCHAR LATIN
ENCODING 7751
SWIDTH 960 0
DWIDTH 10 0
BBX 8 14 2 -4
BITMAP
FC
FC
C3
C3
C3
C3
C3
C3
C3
C3
00
00
0C
0C
ENDCHAR
STARTCHAR LATIN
ENCODING 7752
SWIDTH 960 0
DWIDTH 10 0
BBX 8 16 2 -4
BITMAP
C3
C3
F3
F3
F3
F3
CF
CF
CF
CF
C3
C3
00
00
3F
3F
ENDCHAR
STARTCHAR LATIN
ENCODING 7753
SWIDTH 960 0
DWIDTH 10 0
BBX 8 14 2 -4
BITMAP
FC
FC
C3
C3
C3
C3
C3
C3
C3
C3
00
00
3F
3F
ENDCHAR
STARTCHAR LATIN
ENCODING 7754
SWIDTH 960 0
DWIDTH 10 0
BBX 8 18 2 -6
BITMAP
C3
C3
F3
F3
F3
F3
CF
CF
CF
CF
C3
C3
00
00
0C
0C
33
33
ENDCHAR
STARTCHAR LATIN
ENCODING 7755
SWIDTH 960 0
DWIDTH 10 0
BBX 8 16 2 -6
BITMAP
FC
FC
C3
C3
C3
C3
C3
C3
C3
C3
00
00
0C
0C
33
33
ENDCHAR
STARTCHAR LATIN
ENCODING 7756
SWIDTH 960 0
DWIDTH 10 0
BBX 10 18 0 0
BITMAP
0300
0300
3CC0
3CC0
C300
C300
0F00
0F00
30C0
30C0
30C0
30C0
30C0
30C0
30C0
30C0
0F00
0F00
ENDCHAR
STARTCHAR LATIN
ENCODING 7757
SWIDTH 960 0
DWIDTH 10 0
BBX 10 18 0 0
BITMAP
0300
0300
0C00
0C00
3CC0
3CC0
C300
C300
0F00
0F00
30C0
30C0
30C0
30C0
30C0
30C0
0F00
0F00
ENDCHAR
STARTCHAR LATIN
ENCODING 7758
SWIDTH 960 0
DWIDTH 10 0
BBX 10 18 0 0
BITMAP
3300
3300
3CC0
3CC0
C300
C300
0F00
0F00
30C0
30C0
30C0
30C0
30C0
30C0
30C0
30C0
0F00
0F00
ENDCHAR
STARTCHAR LATIN
ENCODING 7759
SWIDTH 960 0
DWIDTH 10 0
BBX 10 18 0 0
BITMAP
3300
3300
0000
0000
3CC0
3CC0
C300
C300
0F00
0F00
30C0
30C0
30C0
30C0
30C0
30C0
0F00
0F00
ENDCHAR
STARTCHAR LATIN
ENCODING 7760
SWIDTH 960 0
DWIDTH 10 0
BBX 8 18 2 0
BITMAP
C0
C0
FC
FC
00
00
3C
3C
C3
C3
C3
C3
C3
C3
C3
C3
3C
3C
ENDCHAR
STARTCHAR LATIN
ENCODING 7761
SWIDTH 960 0
DWIDTH 10 0
BBX 8 18 2 0
BITMAP
C0
C0
30
30
FC
FC
00
00
3C
3C
C3
C3
C3
C3
C3
C3
3C
3C
ENDCHAR
STARTCHAR LATIN
ENCODING 7762
SWIDTH 960 0
DWIDTH 10 0
BBX 8 18 2 0
BITMAP
0C
0C
FC
FC
00
00
3C
3C
C3
C3
C3
C3
C3
C3
C3
C3
3C
3C
ENDCHAR
STARTCHAR LATIN
ENCODING 7763
SWIDTH 960 0
DWIDTH 10 0
BBX 8 18 2 0
BITMAP
0C
0C
30
30
FC
FC
00
00
3C
3C
C3
C3
C3
C3
C3
C3
3C
3C
ENDCHAR
STARTCHAR LATIN
ENCODING 7764
SWIDTH 960 0
DWIDTH 10 0
BBX 8 18 2 0
BITMAP
03
03
0C
0C
00
00
FC
FC
C3
C3
C3
C3
FC
FC
C0
C0
C0
C0
ENDCHAR
STARTCHAR LATIN
ENCODING 7765
SWIDTH 960 0
DWIDTH 10 0
BBX 8 20 2 -4
BITMAP
03
03
0C
0C
00
00
FC
FC
C3
C3
C3
C3
C3
C3
FC
FC
C0
C0
C0
C0
ENDCHAR
STARTCHAR LATIN
ENCODING 7766
SWIDTH 960 0
DWIDTH 10 0
BBX 8 18 2 0
BITMAP
0C
0C
00
00
00
00
FC
FC
C3
C3
C3
C3
FC
FC
C0
C0
C0
C0
ENDCHAR
STARTCHAR LATIN
ENCODING 7767
SWIDTH 960 0
DWIDTH 10 0
BBX 8 18 2 -4
BITMAP
0C
0C
00
00
FC
FC
C3
C3
C3
C3
C3
C3
FC
FC
C0
C0
C0
C0
ENDCHAR
STARTCHAR LATIN
ENCODING 7768
SWIDTH 960 0
DWIDTH 10 0
BBX 8 18 2 0
BITMAP
0C
0C
00
00
00
00
FC
FC
C3
C3
C3
C3
FC
FC
C3
C3
C3
C3
ENDCHAR
STARTCHAR LATIN
ENCODING 7769
SWIDTH 960 0
DWIDTH 10 0
BBX 8 14 2 0
BITMAP
0C
0C
00
00
CF
CF
F0
F0
C0
C0
C0
C0
C0
C0
ENDCHAR
STARTCHAR LATIN
ENCODING 7770
SWIDTH 960 0
DWIDTH 10 0
BBX 8 16 2 -4
BITMAP
FC
FC
C3
C3
C3
C3
FC
FC
C3
C3
C3
C3
00
00
0C
0C
ENDCHAR
STARTCHAR LATIN
ENCODING 7771
SWIDTH 960 0
DWIDTH 10 0
BBX 8 14 2 -4
BITMAP
CF
CF
F0
F0
C0
C0
C0
C0
C0
C0
00
00
0C
0C
ENDCHAR
STARTCHAR LATIN
ENCODING 7772
SWIDTH 960 0
DWIDTH 10 0
BBX 8 20 2 -4
BITMAP
3F
3F
00
00
FC
FC
C3
C3
C3
C3
FC
FC
C3
C3
C3
C3
00
00
0C
0C
ENDCHAR
STARTCHAR LATIN
ENCODING 7773
SWIDTH 960 0
DWIDTH 10 0
BBX 8 18 2 -4
BITMAP
3F
3F
00
00
CF
CF
F0
F0
C0
C0
C0
C0
C0
C0
00
00
0C
0C
ENDCHAR
STARTCHAR LATIN
ENCODING 7774
SWIDTH 960 0
DWIDTH 10 0
BBX 8 16 2 -4
BITMAP
FC
FC
C3
C3
C3
C3
FC
FC
C3
C3
C3
C3
00
00
3F
3F
ENDCHAR
STARTCHAR LATIN
ENCODING 7775
SWIDTH 960 0
DWIDTH 10 0
BBX 8 14 2 -4
BITMAP
CF
CF
F0
F0
C0
C0
C0
C0
C0
C0
00
00
3F
3F
ENDCHAR
STARTCHAR LATIN
ENCODING 7776
SWIDTH 960 0
DWIDTH 10 0
BBX 8 18 2 0
BITMAP
30
30
00
00
00
00
3F
3F
C0
C0
3C
3C
03
03
03
03
FC
FC
ENDCHAR
STARTCHAR LATIN
ENCODING 7777
SWIDTH 960 0
DWIDTH 10 0
BBX 8 14 2 0
BITMAP
30
30
00
00
3F
3F
C0
C0
3C
3C
03
03
FC
FC
ENDCHAR
STARTCHAR LATIN
ENCODING 7778
SWIDTH 960 0
DWIDTH 10 0
BBX 8 16 2 -4
BITMAP
3F
3F
C0
C0
3C
3C
03
03
03
03
FC
FC
00
00
30
30
ENDCHAR
STARTCHAR LATIN
ENCODING 7779
SWIDTH 960 0
DWIDTH 10 0
BBX 8 14 2 -4
BITMAP
3F
3F
C0
C0
3C
3C
03
03
FC
FC
00
00
30
30
ENDCHAR
STARTCHAR LATIN
ENCODING 7780
SWIDTH 960 0
DWIDTH 10 0
BBX 8 18 2 0
BITMAP
3C
3C
30
30
00
00
3F
3F
C0
C0
3C
3C
03
03
03
03
FC
FC
ENDCHAR
STARTCHAR LATIN
ENCODING 7781
SWIDTH 960 0
DWIDTH 10 0
BBX 8 18 2 0
BITMAP
30
30
0C
0C
30
30
00
00
3F
3F
C0
C0
3C
3C
03
03
FC
FC
ENDCHAR
STARTCHAR LATIN
ENCODING 7782
SWIDTH 960 0
DWIDTH 10 0
BBX 8 18 2 0
BITMAP
FC
FC
30
30
00
00
3F
3F
C0
C0
3C
3C
03
03
03
03
FC
FC
ENDCHAR
STARTCHAR LATIN
ENCODING 7783
SWIDTH 960 0
DWIDTH 10 0
BBX 8 18 2 0
BITMAP
30
30
00
00
CC
CC
30
30
3F
3F
C0
C0
3C
3C
03
03
FC
FC
ENDCHAR
STARTCHAR LATIN
ENCODING 7784
SWIDTH 960 0
DWIDTH 10 0
BBX 8 22 2 -4
BITMAP
30
30
00
00
00
00
3F
3F
C0
C0
3C
3C
03
03
03
03
FC
FC
00
00
30
30
ENDCHAR
STARTCHAR LATIN
ENCODING 7785
SWIDTH 960 0
DWIDTH 10 0
BBX 8 18 2 -4
BITMAP
30
30
00
00
3F
3F
C0
C0
3C
3C
03
03
FC
FC
00
00
30
30
ENDCHAR
STARTCHAR LATIN
ENCODING 7786
SWIDTH 960 0
DWIDTH 10 0
BBX 10 18 0 0
BITMAP
0C00
0C00
0000
0000
0000
0000
FFC0
FFC0
0C00
0C00
0C00
0C00
0C00
0C00
0C00
0C00
0C00
0C00
ENDCHAR
STARTCHAR uni0074
ENCODING 7787
SWIDTH 960 0
DWIDTH 10 0
BBX 6 16 2 0
BITMAP
30
30
00
00
30
30
FC
FC
30
30
30
30
30
30
0C
0C
ENDCHAR
STARTCHAR LATIN
ENCODING 7788
SWIDTH 960 0
DWIDTH 10 0
BBX 10 16 0 -4
BITMAP
FFC0
FFC0
0C00
0C00
0C00
0C00
0C00
0C00
0C00
0C00
0C00
0C00
0000
0000
0C00
0C00
ENDCHAR
STARTCHAR LATIN
ENCODING 7789
SWIDTH 960 0
DWIDTH 10 0
BBX 6 16 2 -4
BITMAP
30
30
FC
FC
30
30
30
30
30
30
0C
0C
00
00
30
30
ENDCHAR
STARTCHAR LATIN
ENCODING 7790
SWIDTH 960 0
DWIDTH 10 0
BBX 10 16 0 -4
BITMAP
FFC0
FFC0
0C00
0C00
0C00
0C00
0C00
0C00
0C00
0C00
0C00
0C00
0000
0000
3F00
3F00
ENDCHAR
STARTCHAR LATIN
ENCODING 7791
SWIDTH 960 0
DWIDTH 10 0
BBX 6 16 2 -4
BITMAP
30
30
FC
FC
30
30
30
30
30
30
0C
0C
00
00
FC
FC
ENDCHAR
STARTCHAR LATIN
ENCODING 7792
SWIDTH 960 0
DWIDTH 10 0
BBX 10 18 0 -6
BITMAP
FFC0
FFC0
0C00
0C00
0C00
0C00
0C00
0C00
0C00
0C00
0C00
0C00
0000
0000
0C00
0C00
3300
3300
ENDCHAR
STARTCHAR LATIN
ENCODING 7793
SWIDTH 960 0
DWIDTH 10 0
BBX 6 18 2 -6
BITMAP
30
30
FC
FC
30
30
30
30
30
30
0C
0C
00
00
30
30
CC
CC
ENDCHAR
STARTCHAR LATIN
ENCODING 7794
SWIDTH 960 0
DWIDTH 10 0
BBX 8 16 2 -4
BITMAP
C3
C3
C3
C3
C3
C3
C3
C3
C3
C3
3F
3F
00
00
33
33
ENDCHAR
STARTCHAR LATIN
ENCODING 7795
SWIDTH 960 0
DWIDTH 10 0
BBX 8 14 2 -4
BITMAP
C3
C3
C3
C3
C3
C3
C3
C3
3F
3F
00
00
33
33
ENDCHAR
STARTCHAR LATIN
ENCODING 7796
SWIDTH 960 0
DWIDTH 10 0
BBX 8 18 2 -6
BITMAP
C3
C3
C3
C3
C3
C3
C3
C3
C3
C3
3F
3F
00
00
33
33
CC
CC
ENDCHAR
STARTCHAR LATIN
ENCODING 7797
SWIDTH 960 0
DWIDTH 10 0
BBX 8 16 2 -6
BITMAP
C3
C3
C3
C3
C3
C3
C3
C3
3F
3F
00
00
33
33
CC
CC
ENDCHAR
STARTCHAR LATIN
ENCODING 7798
SWIDTH 960 0
DWIDTH 10 0
BBX 8 18 2 -6
BITMAP
C3
C3
C3
C3
C3
C3
C3
C3
C3
C3
3F
3F
00
00
30
30
CC
CC
ENDCHAR
STARTCHAR LATIN
ENCODING 7799
SWIDTH 960 0
DWIDTH 10 0
BBX 8 16 2 -6
BITMAP
C3
C3
C3
C3
C3
C3
C3
C3
3C
3C
00
00
30
30
CC
CC
ENDCHAR
STARTCHAR LATIN
ENCODING 7800
SWIDTH 960 0
DWIDTH 10 0
BBX 10 18 0 0
BITMAP
0300
0300
3CC0
3CC0
C300
C300
30C0
30C0
30C0
30C0
30C0
30C0
30C0
30C0
30C0
30C0
0FC0
0FC0
ENDCHAR
STARTCHAR LATIN
ENCODING 7801
SWIDTH 960 0
DWIDTH 10 0
BBX 10 18 0 0
BITMAP
0300
0300
3CC0
3CC0
C300
C300
0000
0000
30C0
30C0
30C0
30C0
30C0
30C0
30C0
30C0
0FC0
0FC0
ENDCHAR
STARTCHAR LATIN
ENCODING 7802
SWIDTH 960 0
DWIDTH 10 0
BBX 8 18 2 0
BITMAP
CC
CC
FC
FC
00
00
C3
C3
C3
C3
C3
C3
C3
C3
C3
C3
3F
3F
ENDCHAR
STARTCHAR LATIN
ENCODING 7803
SWIDTH 960 0
DWIDTH 10 0
BBX 8 18 2 0
BITMAP
CC
CC
00
00
FC
FC
00
00
C3
C3
C3
C3
C3
C3
C3
C3
3F
3F
ENDCHAR
STARTCHAR uni0056
ENCODING 7804
SWIDTH 960 0
DWIDTH 10 0
BBX 8 18 2 0
BITMAP
33
33
CC
CC
00
00
C3
C3
C3
C3
C3
C3
3C
3C
3C
3C
3C
3C
ENDCHAR
STARTCHAR uni0076
ENCODING 7805
SWIDTH 960 0
DWIDTH 10 0
BBX 8 18 2 0
BITMAP
33
33
CC
CC
00
00
00
00
C3
C3
C3
C3
C3
C3
3C
3C
3C
3C
ENDCHAR
STARTCHAR uni0056
ENCODING 7806
SWIDTH 960 0
DWIDTH 10 0
BBX 8 16 2 -4
BITMAP
C3
C3
C3
C3
C3
C3
3C
3C
3C
3C
3C
3C
00
00
30
30
ENDCHAR
STARTCHAR uni0076
ENCODING 7807
SWIDTH 960 0
DWIDTH 10 0
BBX 8 14 2 -4
BITMAP
C3
C3
C3
C3
C3
C3
3C
3C
3C
3C
00
00
30
30
ENDCHAR
STARTCHAR uni0057
ENCODING 7808
SWIDTH 960 0
DWIDTH 10 0
BBX 8 16 2 0
BITMAP
30
30
0C
0C
C3
C3
C3
C3
C3
C3
C3
C3
FF
FF
C3
C3
ENDCHAR
STARTCHAR uni0077
ENCODING 7809
SWIDTH 960 0
DWIDTH 10 0
BBX 8 16 2 0
BITMAP
30
30
0C
0C
00
00
C3
C3
C3
C3
C3
C3
FF
FF
C3
C3
ENDCHAR
STARTCHAR uni0057
ENCODING 7810
SWIDTH 960 0
DWIDTH 10 0
BBX 8 16 2 0
BITMAP
0C
0C
30
30
C3
C3
C3
C3
C3
C3
C3
C3
FF
FF
C3
C3
ENDCHAR
STARTCHAR uni0077
ENCODING 7811
SWIDTH 960 0
DWIDTH 10 0
BBX 8 16 2 0
BITMAP
0C
0C
30
30
00
00
C3
C3
C3
C3
C3
C3
FF
FF
C3
C3
ENDCHAR
STARTCHAR uni0057
ENCODING 7812
SWIDTH 960 0
DWIDTH 10 0
BBX 8 16 2 0
BITMAP
33
33
00
00
C3
C3
C3
C3
C3
C3
C3
C3
FF
FF
C3
C3
ENDCHAR
STARTCHAR uni0077
ENCODING 7813
SWIDTH 960 0
DWIDTH 10 0
BBX 8 14 2 0
BITMAP
33
33
00
00
C3
C3
C3
C3
C3
C3
FF
FF
C3
C3
ENDCHAR
STARTCHAR uni0057
ENCODING 7814
SWIDTH 960 0
DWIDTH 10 0
BBX 8 16 2 0
BITMAP
0C
0C
00
00
C3
C3
C3
C3
C3
C3
C3
C3
FF
FF
C3
C3
ENDCHAR
STARTCHAR uni0077
ENCODING 7815
SWIDTH 960 0
DWIDTH 10 0
BBX 8 14 2 0
BITMAP
0C
0C
00
00
C3
C3
C3
C3
C3
C3
FF
FF
C3
C3
ENDCHAR
STARTCHAR uni0057
ENCODING 7816
SWIDTH 960 0
DWIDTH 10 0
BBX 8 16 2 -4
BITMAP
C3
C3
C3
C3
C3
C3
C3
C3
FF
FF
C3
C3
00
00
0C
0C
ENDCHAR
STARTCHAR uni0077
ENCODING 7817
SWIDTH 960 0
DWIDTH 10 0
BBX 8 14 2 -4
BITMAP
C3
C3
C3
C3
C3
C3
FF
FF
C3
C3
00
00
0C
0C
ENDCHAR
STARTCHAR uni0058
ENCODING 7818
SWIDTH 960 0
DWIDTH 10 0
BBX 8 16 2 0
BITMAP
0C
0C
00
00
C3
C3
C3
C3
3C
3C
C3
C3
C3
C3
C3
C3
ENDCHAR
STARTCHAR uni0078
ENCODING 7819
SWIDTH 960 0
DWIDTH 10 0
BBX 8 14 2 0
BITMAP
0C
0C
00
00
C3
C3
C3
C3
3C
3C
C3
C3
C3
C3
ENDCHAR
STARTCHAR uni0058
ENCODING 7820
SWIDTH 960 0
DWIDTH 10 0
BBX 8 16 2 0
BITMAP
33
33
00
00
C3
C3
C3
C3
3C
3C
C3
C3
C3
C3
C3
C3
ENDCHAR
STARTCHAR uni0078
ENCODING 7821
SWIDTH 960 0
DWIDTH 10 0
BBX 8 14 2 0
BITMAP
33
33
00
00
C3
C3
C3
C3
3C
3C
C3
C3
C3
C3
ENDCHAR
STARTCHAR uni0059
ENCODING 7822
SWIDTH 960 0
DWIDTH 10 0
BBX 10 14 0 0
BITMAP
0C00
0C00
C0C0
C0C0
3300
3300
0C00
0C00
0C00
0C00
0C00
0C00
0C00
0C00
ENDCHAR
STARTCHAR uni0079
ENCODING 7823
SWIDTH 960 0
DWIDTH 10 0
BBX 8 18 2 -4
BITMAP
0C
0C
00
00
C3
C3
C3
C3
C3
C3
C3
C3
3F
3F
03
03
3C
3C
ENDCHAR
STARTCHAR uni005A
ENCODING 7824
SWIDTH 960 0
DWIDTH 10 0
BBX 8 18 2 0
BITMAP
0C
0C
33
33
00
00
FF
FF
03
03
0C
0C
30
30
C0
C0
FF
FF
ENDCHAR
STARTCHAR uni007A
ENCODING 7825
SWIDTH 960 0
DWIDTH 10 0
BBX 8 16 2 0
BITMAP
0C
0C
33
33
00
00
FF
FF
0C
0C
30
30
C0
C0
FF
FF
ENDCHAR
STARTCHAR uni005A
ENCODING 7826
SWIDTH 960 0
DWIDTH 10 0
BBX 8 16 2 -4
BITMAP
FF
FF
03
03
0C
0C
30
30
C0
C0
FF
FF
00
00
30
30
ENDCHAR
STARTCHAR uni007A
ENCODING 7827
SWIDTH 960 0
DWIDTH 10 0
BBX 8 14 2 -4
BITMAP
FF
FF
0C
0C
30
30
C0
C0
FF
FF
00
00
30
30
ENDCHAR
STARTCHAR uni005A
ENCODING 7828
SWIDTH 960 0
DWIDTH 10 0
BBX 8 16 2 -4
BITMAP
FF
FF
03
03
0C
0C
30
30
C0
C0
FF
FF
00
00
3C
3C
ENDCHAR
STARTCHAR uni007A
ENCODING 7829
SWIDTH 960 0
DWIDTH 10 0
BBX 8 14 2 -4
BITMAP
FF
FF
0C
0C
30
30
C0
C0
FF
FF
00
00
3C
3C
ENDCHAR
STARTCHAR uni0068
ENCODING 7830
SWIDTH 960 0
DWIDTH 10 0
BBX 8 18 2 -4
BITMAP
C0
C0
C0
C0
FC
FC
C3
C3
C3
C3
C3
C3
C3
C3
00
00
3C
3C
ENDCHAR
STARTCHAR uni0074
ENCODING 7831
SWIDTH 960 0
DWIDTH 10 0
BBX 6 16 2 0
BITMAP
CC
CC
00
00
30
30
FC
FC
30
30
30
30
30
30
0C
0C
ENDCHAR
STARTCHAR uni0077
ENCODING 7832
SWIDTH 960 0
DWIDTH 10 0
BBX 8 16 2 0
BITMAP
0C
0C
33
33
0C
0C
C3
C3
C3
C3
C3
C3
FF
FF
C3
C3
ENDCHAR
STARTCHAR uni0079
ENCODING 7833
SWIDTH 960 0
DWIDTH 10 0
BBX 8 20 2 -4
BITMAP
0C
0C
33
33
0C
0C
C3
C3
C3
C3
C3
C3
C3
C3
3F
3F
03
03
3C
3C
ENDCHAR
STARTCHAR uni0061
ENCODING 7834
SWIDTH 960 0
DWIDTH 10 0
BBX 8 18 2 0
BITMAP
0C
0C
03
03
0C
0C
00
00
3F
3F
C3
C3
C3
C3
CF
CF
33
33
ENDCHAR
STARTCHAR LATIN
ENCODING 7835
SWIDTH 960 0
DWIDTH 10 0
BBX 8 18 2 0
BITMAP
0C
0C
00
00
0F
0F
30
30
F0
F0
30
30
30
30
30
30
30
30
ENDCHAR
STARTCHAR LATIN
ENCODING 7836
SWIDTH 960 0
DWIDTH 10 0
BBX 8 14 2 0
BITMAP
0F
0F
30
30
F0
F0
3C
3C
F0
F0
30
30
30
30
ENDCHAR
STARTCHAR LATIN
ENCODING 7837
SWIDTH 960 0
DWIDTH 10 0
BBX 8 14 2 0
BITMAP
0F
0F
FC
FC
30
30
F0
F0
30
30
30
30
30
30
ENDCHAR
STARTCHAR LATIN
ENCODING 7838
SWIDTH 960 0
DWIDTH 10 0
BBX 8 16 2 -2
BITMAP
3C
3C
C3
C3
CC
CC
C3
C3
C3
C3
C3
C3
CC
CC
C0
C0
ENDCHAR
STARTCHAR LATIN
ENCODING 7839
SWIDTH 960 0
DWIDTH 10 0
BBX 8 14 2 0
BITMAP
3F
3F
C0
C0
3C
3C
C3
C3
C3
C3
C3
C3
3C
3C
ENDCHAR
STARTCHAR LATIN
ENCODING 7840
SWIDTH 960 0
DWIDTH 10 0
BBX 8 16 2 -4
BITMAP
3C
3C
C3
C3
C3
C3
FF
FF
C3
C3
C3
C3
00
00
0C
0C
ENDCHAR
STARTCHAR LATIN
ENCODING 7841
SWIDTH 960 0
DWIDTH 10 0
BBX 8 14 2 -4
BITMAP
3F
3F
C3
C3
C3
C3
CF
CF
33
33
00
00
0C
0C
ENDCHAR
STARTCHAR LATIN
ENCODING 7842
SWIDTH 960 0
DWIDTH 10 0
BBX 8 16 2 0
BITMAP
30
30
CC
CC
3C
3C
C3
C3
C3
C3
FF
FF
C3
C3
C3
C3
ENDCHAR
STARTCHAR LATIN
ENCODING 7843
SWIDTH 960 0
DWIDTH 10 0
BBX 8 16 2 0
BITMAP
30
30
0C
0C
30
30
3F
3F
C3
C3
C3
C3
CF
CF
33
33
ENDCHAR
STARTCHAR LATIN
ENCODING 7844
SWIDTH 960 0
DWIDTH 10 0
BBX 8 16 2 0
BITMAP
33
33
CC
CC
3C
3C
C3
C3
C3
C3
FF
FF
C3
C3
C3
C3
ENDCHAR
STARTCHAR LATIN
ENCODING 7845
SWIDTH 960 0
DWIDTH 10 0
BBX 8 16 2 0
BITMAP
33
33
CC
CC
00
00
3F
3F
C3
C3
C3
C3
CF
CF
33
33
ENDCHAR
STARTCHAR LATIN
ENCODING 7846
SWIDTH 960 0
DWIDTH 10 0
BBX 8 16 2 0
BITMAP
CC
CC
33
33
3C
3C
C3
C3
C3
C3
FF
FF
C3
C3
C3
C3
ENDCHAR
STARTCHAR LATIN
ENCODING 7847
SWIDTH 960 0
DWIDTH 10 0
BBX 8 16 2 0
BITMAP
CC
CC
33
33
00
00
3F
3F
C3
C3
C3
C3
CF
CF
33
33
ENDCHAR
STARTCHAR LATIN
ENCODING 7848
SWIDTH 960 0
DWIDTH 10 0
BBX 8 16 2 0
BITMAP
0F
0F
F0
F0
3C
3C
C3
C3
C3
C3
FF
FF
C3
C3
C3
C3
ENDCHAR
STARTCHAR LATIN
ENCODING 7849
SWIDTH 960 0
DWIDTH 10 0
BBX 8 16 2 0
BITMAP
0F
0F
F0
F0
00
00
3F
3F
C3
C3
C3
C3
CF
CF
33
33
ENDCHAR
STARTCHAR LATIN
ENCODING 7850
SWIDTH 960 0
DWIDTH 10 0
BBX 8 16 2 0
BITMAP
FF
FF
3C
3C
C3
C3
3C
3C
C3
C3
FF
FF
C3
C3
C3
C3
ENDCHAR
STARTCHAR LATIN
ENCODING 7851
SWIDTH 960 0
DWIDTH 10 0
BBX 8 16 2 0
BITMAP
FF
FF
3C
3C
C3
C3
3F
3F
C3
C3
C3
C3
CF
CF
33
33
ENDCHAR
STARTCHAR LATIN
ENCODING 7852
SWIDTH 960 0
DWIDTH 10 0
BBX 8 20 2 -4
BITMAP
3C
3C
C3
C3
3C
3C
C3
C3
C3
C3
FF
FF
C3
C3
C3
C3
00
00
0C
0C
ENDCHAR
STARTCHAR LATIN
ENCODING 7853
SWIDTH 960 0
DWIDTH 10 0
BBX 8 20 2 -4
BITMAP
3C
3C
C3
C3
00
00
3F
3F
C3
C3
C3
C3
CF
CF
33
33
00
00
0C
0C
ENDCHAR
STARTCHAR LATIN
ENCODING 7854
SWIDTH 960 0
DWIDTH 10 0
BBX 8 16 2 0
BITMAP
CF
CF
3C
3C
3C
3C
C3
C3
C3
C3
FF
FF
C3
C3
C3
C3
ENDCHAR
STARTCHAR LATIN
ENCODING 7855
SWIDTH 960 0
DWIDTH 10 0
BBX 8 16 2 0
BITMAP
CF
CF
3C
3C
00
00
3F
3F
C3
C3
C3
C3
CF
CF
33
33
ENDCHAR
STARTCHAR LATIN
ENCODING 7856
SWIDTH 960 0
DWIDTH 10 0
BBX 8 16 2 0
BITMAP
F3
F3
3C
3C
3C
3C
C3
C3
C3
C3
FF
FF
C3
C3
C3
C3
ENDCHAR
STARTCHAR LATIN
ENCODING 7857
SWIDTH 960 0
DWIDTH 10 0
BBX 8 16 2 0
BITMAP
F3
F3
3C
3C
00
00
3F
3F
C3
C3
C3
C3
CF
CF
33
33
ENDCHAR
STARTCHAR LATIN
ENCODING 7858
SWIDTH 960 0
DWIDTH 10 0
BBX 8 16 2 0
BITMAP
0C
0C
FF
FF
3C
3C
C3
C3
C3
C3
FF
FF
C3
C3
C3
C3
ENDCHAR
STARTCHAR LATIN
ENCODING 7859
SWIDTH 960 0
DWIDTH 10 0
BBX 8 16 2 0
BITMAP
0C
0C
FF
FF
00
00
3F
3F
C3
C3
C3
C3
CF
CF
33
33
ENDCHAR
STARTCHAR LATIN
ENCODING 7860
SWIDTH 960 0
DWIDTH 10 0
BBX 8 16 2 0
BITMAP
FF
FF
C3
C3
3C
3C
3C
3C
C3
C3
FF
FF
C3
C3
C3
C3
ENDCHAR
STARTCHAR LATIN
ENCODING 7861
SWIDTH 960 0
DWIDTH 10 0
BBX 8 16 2 0
BITMAP
FF
FF
C3
C3
3C
3C
3F
3F
C3
C3
C3
C3
CF
CF
33
33
ENDCHAR
STARTCHAR LATIN
ENCODING 7862
SWIDTH 960 0
DWIDTH 10 0
BBX 8 20 2 -4
BITMAP
C3
C3
3C
3C
3C
3C
C3
C3
C3
C3
FF
FF
C3
C3
C3
C3
00
00
0C
0C
ENDCHAR
STARTCHAR LATIN
ENCODING 7863
SWIDTH 960 0
DWIDTH 10 0
BBX 8 20 2 -4
BITMAP
C3
C3
3C
3C
00
00
3F
3F
C3
C3
C3
C3
CF
CF
33
33
00
00
0C
0C
ENDCHAR
STARTCHAR LATIN
ENCODING 7864
SWIDTH 960 0
DWIDTH 10 0
BBX 8 16 2 -4
BITMAP
FF
FF
C0
C0
FC
FC
C0
C0
C0
C0
FF
FF
00
00
30
30
ENDCHAR
STARTCHAR LATIN
ENCODING 7865
SWIDTH 960 0
DWIDTH 10 0
BBX 8 14 2 -4
BITMAP
3C
3C
C3
C3
FF
FF
C0
C0
3F
3F
00
00
30
30
ENDCHAR
STARTCHAR LATIN
ENCODING 7866
SWIDTH 960 0
DWIDTH 10 0
BBX 8 16 2 0
BITMAP
3C
3C
0C
0C
FF
FF
C0
C0
FC
FC
C0
C0
C0
C0
FF
FF
ENDCHAR
STARTCHAR LATIN
ENCODING 7867
SWIDTH 960 0
DWIDTH 10 0
BBX 8 16 2 0
BITMAP
3C
3C
0C
0C
00
00
3C
3C
C3
C3
FF
FF
C0
C0
3F
3F
ENDCHAR
STARTCHAR LATIN
ENCODING 7868
SWIDTH 960 0
DWIDTH 10 0
BBX 8 16 2 0
BITMAP
33
33
CF
CF
FF
FF
C0
C0
FC
FC
C0
C0
C0
C0
FF
FF
ENDCHAR
STARTCHAR LATIN
ENCODING 7869
SWIDTH 960 0
DWIDTH 10 0
BBX 8 16 2 0
BITMAP
33
33
CF
CF
00
00
3C
3C
C3
C3
FF
FF
C0
C0
3F
3F
ENDCHAR
STARTCHAR LATIN
ENCODING 7870
SWIDTH 960 0
DWIDTH 10 0
BBX 8 16 2 0
BITMAP
CC
CC
F3
F3
FF
FF
C0
C0
FC
FC
C0
C0
C0
C0
FF
FF
ENDCHAR
STARTCHAR LATIN
ENCODING 7871
SWIDTH 960 0
DWIDTH 10 0
BBX 8 16 2 0
BITMAP
CC
CC
F3
F3
00
00
3C
3C
C3
C3
FF
FF
C0
C0
3F
3F
ENDCHAR
STARTCHAR LATIN
ENCODING 7872
SWIDTH 960 0
DWIDTH 10 0
BBX 8 16 2 0
BITMAP
CC
CC
33
33
FF
FF
C0
C0
FC
FC
C0
C0
C0
C0
FF
FF
ENDCHAR
STARTCHAR LATIN
ENCODING 7873
SWIDTH 960 0
DWIDTH 10 0
BBX 8 16 2 0
BITMAP
CC
CC
33
33
00
00
3C
3C
C3
C3
FF
FF
C0
C0
3F
3F
ENDCHAR
STARTCHAR LATIN
ENCODING 7874
SWIDTH 960 0
DWIDTH 10 0
BBX 8 16 2 0
BITMAP
33
33
CC
CC
FF
FF
C0
C0
FC
FC
C0
C0
C0
C0
FF
FF
ENDCHAR
STARTCHAR LATIN
ENCODING 7875
SWIDTH 960 0
DWIDTH 10 0
BBX 8 16 2 0
BITMAP
33
33
CC
CC
00
00
3C
3C
C3
C3
FF
FF
C0
C0
3F
3F
ENDCHAR
STARTCHAR LATIN
ENCODING 7876
SWIDTH 960 0
DWIDTH 10 0
BBX 8 20 2 -4
BITMAP
3C
3C
C3
C3
FF
FF
C0
C0
FC
FC
C0
C0
C0
C0
FF
FF
00
00
30
30
ENDCHAR
STARTCHAR LATIN
ENCODING 7877
SWIDTH 960 0
DWIDTH 10 0
BBX 8 20 2 -4
BITMAP
C3
C3
3C
3C
C3
C3
3C
3C
C3
C3
FF
FF
C0
C0
3F
3F
00
00
30
30
ENDCHAR
STARTCHAR LATIN
ENCODING 7878
SWIDTH 960 0
DWIDTH 10 0
BBX 8 20 2 -4
BITMAP
3C
3C
C3
C3
FF
FF
C0
C0
FC
FC
C0
C0
C0
C0
FF
FF
00
00
30
30
ENDCHAR
STARTCHAR LATIN
ENCODING 7879
SWIDTH 960 0
DWIDTH 10 0
BBX 8 20 2 -4
BITMAP
3C
3C
C3
C3
00
00
3C
3C
C3
C3
FF
FF
C0
C0
3F
3F
00
00
30
30
ENDCHAR
STARTCHAR LATIN
ENCODING 7880
SWIDTH 960 0
DWIDTH 10 0
BBX 6 16 2 0
BITMAP
F0
F0
30
30
FC
FC
30
30
30
30
30
30
30
30
FC
FC
ENDCHAR
STARTCHAR LATIN
ENCODING 7881
SWIDTH 960 0
DWIDTH 10 0
BBX 4 16 2 0
BITMAP
F0
F0
30
30
00
00
F0
F0
30
30
30
30
30
30
30
30
ENDCHAR
STARTCHAR LATIN
ENCODING 7882
SWIDTH 960 0
DWIDTH 10 0
BBX 6 18 2 -4
BITMAP
FC
FC
30
30
30
30
30
30
30
30
30
30
FC
FC
00
00
30
30
ENDCHAR
STARTCHAR LATIN
ENCODING 7883
SWIDTH 960 0
DWIDTH 10 0
BBX 4 18 2 -4
BITMAP
30
30
00
00
F0
F0
30
30
30
30
30
30
30
30
00
00
30
30
ENDCHAR
STARTCHAR LATIN
ENCODING 7884
SWIDTH 960 0
DWIDTH 10 0
BBX 8 16 2 -4
BITMAP
3C
3C
C3
C3
C3
C3
C3
C3
C3
C3
3C
3C
00
00
30
30
ENDCHAR
STARTCHAR LATIN
ENCODING 7885
SWIDTH 960 0
DWIDTH 10 0
BBX 8 14 2 -4
BITMAP
3C
3C
C3
C3
C3
C3
C3
C3
3C
3C
00
00
30
30
ENDCHAR
STARTCHAR LATIN
ENCODING 7886
SWIDTH 960 0
DWIDTH 10 0
BBX 8 16 2 0
BITMAP
3C
3C
0C
0C
3C
3C
C3
C3
C3
C3
C3
C3
C3
C3
3C
3C
ENDCHAR
STARTCHAR LATIN
ENCODING 7887
SWIDTH 960 0
DWIDTH 10 0
BBX 8 14 2 0
BITMAP
3C
3C
0C
0C
3C
3C
C3
C3
C3
C3
C3
C3
3C
3C
ENDCHAR
STARTCHAR LATIN
ENCODING 7888
SWIDTH 960 0
DWIDTH 10 0
BBX 8 16 2 0
BITMAP
0F
0F
F0
F0
3C
3C
C3
C3
C3
C3
C3
C3
C3
C3
3C
3C
ENDCHAR
STARTCHAR LATIN
ENCODING 7889
SWIDTH 960 0
DWIDTH 10 0
BBX 8 14 2 0
BITMAP
0F
0F
F0
F0
3C
3C
C3
C3
C3
C3
C3
C3
3C
3C
ENDCHAR
STARTCHAR LATIN
ENCODING 7890
SWIDTH 960 0
DWIDTH 10 0
BBX 8 16 2 0
BITMAP
F0
F0
0F
0F
3C
3C
C3
C3
C3
C3
C3
C3
C3
C3
3C
3C
ENDCHAR
STARTCHAR LATIN
ENCODING 7891
SWIDTH 960 0
DWIDTH 10 0
BBX 8 16 2 0
BITMAP
F0
F0
0F
0F
00
00
3C
3C
C3
C3
C3
C3
C3
C3
3C
3C
ENDCHAR
STARTCHAR LATIN
ENCODING 7892
SWIDTH 960 0
DWIDTH 10 0
BBX 8 16 2 0
BITMAP
0C
0C
F3
F3
3C
3C
C3
C3
C3
C3
C3
C3
C3
C3
3C
3C
ENDCHAR
STARTCHAR LATIN
ENCODING 7893
SWIDTH 960 0
DWIDTH 10 0
BBX 8 16 2 0
BITMAP
0C
0C
F3
F3
00
00
3C
3C
C3
C3
C3
C3
C3
C3
3C
3C
ENDCHAR
STARTCHAR LATIN
ENCODING 7894
SWIDTH 960 0
DWIDTH 10 0
BBX 8 16 2 0
BITMAP
FF
FF
3C
3C
3C
3C
C3
C3
C3
C3
C3
C3
C3
C3
3C
3C
ENDCHAR
STARTCHAR LATIN
ENCODING 7895
SWIDTH 960 0
DWIDTH 10 0
BBX 8 16 2 0
BITMAP
FF
FF
3C
3C
C3
C3
3C
3C
C3
C3
C3
C3
C3
C3
3C
3C
ENDCHAR
STARTCHAR LATIN
ENCODING 7896
SWIDTH 960 0
DWIDTH 10 0
BBX 8 20 2 -4
BITMAP
3C
3C
C3
C3
3C
3C
C3
C3
C3
C3
C3
C3
C3
C3
3C
3C
00
00
30
30
ENDCHAR
STARTCHAR LATIN
ENCODING 7897
SWIDTH 960 0
DWIDTH 10 0
BBX 8 20 2 -4
BITMAP
3C
3C
C3
C3
00
00
3C
3C
C3
C3
C3
C3
C3
C3
3C
3C
00
00
30
30
ENDCHAR
STARTCHAR LATIN
ENCODING 7898
SWIDTH 960 0
DWIDTH 10 0
BBX 10 16 2 0
BITMAP
0C00
0C00
3000
3000
3CC0
3CC0
C3C0
C3C0
C300
C300
C300
C300
C300
C300
3C00
3C00
ENDCHAR
STARTCHAR LATIN
ENCODING 7899
SWIDTH 960 0
DWIDTH 10 0
BBX 10 16 2 0
BITMAP
0C00
0C00
3000
3000
0000
0000
3CC0
3CC0
C3C0
C3C0
C300
C300
C300
C300
3C00
3C00
ENDCHAR
STARTCHAR LATIN
ENCODING 7900
SWIDTH 960 0
DWIDTH 10 0
BBX 10 16 2 0
BITMAP
3000
3000
0C00
0C00
3CC0
3CC0
C3C0
C3C0
C300
C300
C300
C300
C300
C300
3C00
3C00
ENDCHAR
STARTCHAR LATIN
ENCODING 7901
SWIDTH 960 0
DWIDTH 10 0
BBX 10 16 2 0
BITMAP
3000
3000
0C00
0C00
0000
0000
3CC0
3CC0
C3C0
C3C0
C300
C300
C300
C300
3C00
3C00
ENDCHAR
STARTCHAR LATIN
ENCODING 7902
SWIDTH 960 0
DWIDTH 10 0
BBX 10 16 2 0
BITMAP
3C00
3C00
0C00
0C00
3CC0
3CC0
C3C0
C3C0
C300
C300
C300
C300
C300
C300
3C00
3C00
ENDCHAR
STARTCHAR LATIN
ENCODING 7903
SWIDTH 960 0
DWIDTH 10 0
BBX 10 16 2 0
BITMAP
3C00
3C00
0C00
0C00
0000
0000
3CC0
3CC0
C3C0
C3C0
C300
C300
C300
C300
3C00
3C00
ENDCHAR
STARTCHAR LATIN
ENCODING 7904
SWIDTH 960 0
DWIDTH 10 0
BBX 10 16 2 0
BITMAP
3300
3300
CC00
CC00
3CC0
3CC0
C3C0
C3C0
C300
C300
C300
C300
C300
C300
3C00
3C00
ENDCHAR
STARTCHAR LATIN
ENCODING 7905
SWIDTH 960 0
DWIDTH 10 0
BBX 10 16 2 0
BITMAP
3300
3300
CC00
CC00
0000
0000
3CC0
3CC0
C3C0
C3C0
C300
C300
C300
C300
3C00
3C00
ENDCHAR
STARTCHAR LATIN
ENCODING 7906
SWIDTH 960 0
DWIDTH 10 0
BBX 10 16 2 -4
BITMAP
3CC0
3CC0
C3C0
C3C0
C300
C300
C300
C300
C300
C300
3C00
3C00
0000
0000
3000
3000
ENDCHAR
STARTCHAR LATIN
ENCODING 7907
SWIDTH 960 0
DWIDTH 10 0
BBX 10 14 2 -4
BITMAP
3CC0
3CC0
C3C0
C3C0
C300
C300
C300
C300
3C00
3C00
0000
0000
3000
3000
ENDCHAR
STARTCHAR LATIN
ENCODING 7908
SWIDTH 960 0
DWIDTH 10 0
BBX 8 16 2 -4
BITMAP
C3
C3
C3
C3
C3
C3
C3
C3
C3
C3
3F
3F
00
00
30
30
ENDCHAR
STARTCHAR LATIN
ENCODING 7909
SWIDTH 960 0
DWIDTH 10 0
BBX 8 14 2 -4
BITMAP
C3
C3
C3
C3
C3
C3
C3
C3
3F
3F
00
00
30
30
ENDCHAR
STARTCHAR LATIN
ENCODING 7910
SWIDTH 960 0
DWIDTH 10 0
BBX 8 16 2 0
BITMAP
3C
3C
0C
0C
C3
C3
C3
C3
C3
C3
C3
C3
C3
C3
3F
3F
ENDCHAR
STARTCHAR LATIN
ENCODING 7911
SWIDTH 960 0
DWIDTH 10 0
BBX 8 16 2 0
BITMAP
3C
3C
0C
0C
00
00
C3
C3
C3
C3
C3
C3
C3
C3
3F
3F
ENDCHAR
STARTCHAR LATIN
ENCODING 7912
SWIDTH 960 0
DWIDTH 10 0
BBX 10 16 2 0
BITMAP
0C00
0C00
30C0
30C0
C3C0
C3C0
C300
C300
C300
C300
C300
C300
C300
C300
3F00
3F00
ENDCHAR
STARTCHAR LATIN
ENCODING 7913
SWIDTH 960 0
DWIDTH 10 0
BBX 10 16 2 0
BITMAP
0C00
0C00
3000
3000
00C0
00C0
C3C0
C3C0
C300
C300
C300
C300
C300
C300
3F00
3F00
ENDCHAR
STARTCHAR LATIN
ENCODING 7914
SWIDTH 960 0
DWIDTH 10 0
BBX 10 16 2 0
BITMAP
3000
3000
0CC0
0CC0
C3C0
C3C0
C300
C300
C300
C300
C300
C300
C300
C300
3F00
3F00
ENDCHAR
STARTCHAR LATIN
ENCODING 7915
SWIDTH 960 0
DWIDTH 10 0
BBX 10 16 2 0
BITMAP
3000
3000
0C00
0C00
00C0
00C0
C3C0
C3C0
C300
C300
C300
C300
C300
C300
3F00
3F00
ENDCHAR
STARTCHAR LATIN
ENCODING 7916
SWIDTH 960 0
DWIDTH 10 0
BBX 10 16 2 0
BITMAP
3C00
3C00
0CC0
0CC0
C3C0
C3C0
C300
C300
C300
C300
C300
C300
C300
C300
3F00
3F00
ENDCHAR
STARTCHAR LATIN
ENCODING 7917
SWIDTH 960 0
DWIDTH 10 0
BBX 10 16 2 0
BITMAP
3C00
3C00
0C00
0C00
00C0
00C0
C3C0
C3C0
C300
C300
C300
C300
C300
C300
3F00
3F00
ENDCHAR
STARTCHAR LATIN
ENCODING 7918
SWIDTH 960 0
DWIDTH 10 0
BBX 10 16 2 0
BITMAP
3300
3300
CC00
CC00
C3C0
C3C0
C300
C300
C300
C300
C300
C300
C300
C300
3F00
3F00
ENDCHAR
STARTCHAR LATIN
ENCODING 7919
SWIDTH 960 0
DWIDTH 10 0
BBX 10 16 2 0
BITMAP
3300
3300
CC00
CC00
00C0
00C0
C3C0
C3C0
C300
C300
C300
C300
C300
C300
3F00
3F00
ENDCHAR
STARTCHAR LATIN
ENCODING 7920
SWIDTH 960 0
DWIDTH 10 0
BBX 10 18 2 -4
BITMAP
00C0
00C0
C3C0
C3C0
C300
C300
C300
C300
C300
C300
C300
C300
3F00
3F00
0000
0000
3000
3000
ENDCHAR
STARTCHAR LATIN
ENCODING 7921
SWIDTH 960 0
DWIDTH 10 0
BBX 10 16 2 -4
BITMAP
00C0
00C0
C3C0
C3C0
C300
C300
C300
C300
C300
C300
3F00
3F00
0000
0000
3000
3000
ENDCHAR
STARTCHAR uni0059
ENCODING 7922
SWIDTH 960 0
DWIDTH 10 0
BBX 10 16 0 0
BITMAP
3000
3000
0C00
0C00
C0C0
C0C0
3300
3300
0C00
0C00
0C00
0C00
0C00
0C00
0C00
0C00
ENDCHAR
STARTCHAR uni0079
ENCODING 7923
SWIDTH 960 0
DWIDTH 10 0
BBX 8 20 2 -4
BITMAP
30
30
0C
0C
00
00
C3
C3
C3
C3
C3
C3
C3
C3
3F
3F
03
03
3C
3C
ENDCHAR
STARTCHAR uni0059
ENCODING 7924
SWIDTH 960 0
DWIDTH 10 0
BBX 10 16 0 -4
BITMAP
C0C0
C0C0
3300
3300
0C00
0C00
0C00
0C00
0C00
0C00
0C00
0C00
0000
0000
0C00
0C00
ENDCHAR
STARTCHAR uni0079
ENCODING 7925
SWIDTH 960 0
DWIDTH 10 0
BBX 10 14 2 -4
BITMAP
C300
C300
C300
C300
C300
C300
C300
C300
3F00
3F00
0C00
0C00
30C0
30C0
ENDCHAR
STARTCHAR uni0059
ENCODING 7926
SWIDTH 960 0
DWIDTH 10 0
BBX 10 16 0 0
BITMAP
3C00
3C00
0C00
0C00
C0C0
C0C0
3300
3300
0C00
0C00
0C00
0C00
0C00
0C00
0C00
0C00
ENDCHAR
STARTCHAR uni0079
ENCODING 7927
SWIDTH 960 0
DWIDTH 10 0
BBX 8 20 2 -4
BITMAP
3C
3C
0C
0C
00
00
C3
C3
C3
C3
C3
C3
C3
C3
3F
3F
03
03
3C
3C
ENDCHAR
STARTCHAR uni0059
ENCODING 7928
SWIDTH 960 0
DWIDTH 10 0
BBX 10 16 0 0
BITMAP
30C0
30C0
CF00
CF00
C0C0
C0C0
3300
3300
0C00
0C00
0C00
0C00
0C00
0C00
0C00
0C00
ENDCHAR
STARTCHAR uni0079
ENCODING 7929
SWIDTH 960 0
DWIDTH 10 0
BBX 8 20 2 -4
BITMAP
33
33
CC
CC
00
00
C3
C3
C3
C3
C3
C3
C3
C3
3F
3F
03
03
3C
3C
ENDCHAR
STARTCHAR uni0059
ENCODING 7930
SWIDTH 960 0
DWIDTH 10 0
BBX 10 12 2 0
BITMAP
CC00
CC00
CC00
CC00
CC00
CC00
CC00
CC00
CC00
CC00
CFC0
CFC0
ENDCHAR
STARTCHAR uni0079
ENCODING 7931
SWIDTH 960 0
DWIDTH 10 0
BBX 6 12 2 0
BITMAP
CC
CC
CC
CC
CC
CC
CC
CC
CC
CC
CC
CC
ENDCHAR
STARTCHAR uni0036
ENCODING 7932
SWIDTH 960 0
DWIDTH 10 0
BBX 8 12 2 0
BITMAP
3C
3C
C0
C0
CC
CC
C3
C3
C3
C3
3C
3C
ENDCHAR
STARTCHAR uni0036
ENCODING 7933
SWIDTH 960 0
DWIDTH 10 0
BBX 8 12 2 0
BITMAP
3C
3C
C0
C0
CC
CC
C3
C3
C3
C3
3C
3C
ENDCHAR
STARTCHAR uni0079
ENCODING 7934
SWIDTH 960 0
DWIDTH 10 0
BBX 8 14 2 -2
BITMAP
C3
C3
C3
C3
C3
C3
3F
3F
0F
0F
33
33
3C
3C
ENDCHAR
STARTCHAR uni0079
ENCODING 7935
SWIDTH 960 0
DWIDTH 10 0
BBX 8 14 2 -4
BITMAP
C3
C3
C3
C3
C3
C3
3F
3F
0F
0F
33
33
3C
3C
ENDCHAR
STARTCHAR uni0061
ENCODING 7936
SWIDTH 960 0
DWIDTH 10 0
BBX 10 14 0 0
BITMAP
3000
3000
C000
C000
0FC0
0FC0
30C0
30C0
30C0
30C0
33C0
33C0
0CC0
0CC0
ENDCHAR
STARTCHAR uni0041
ENCODING 7944
SWIDTH 960 0
DWIDTH 10 0
BBX 10 16 0 0
BITMAP
3000
3000
C000
C000
0F00
0F00
30C0
30C0
30C0
30C0
3FC0
3FC0
30C0
30C0
30C0
30C0
ENDCHAR
STARTCHAR uni0069
ENCODING 7989
SWIDTH 960 0
DWIDTH 10 0
BBX 6 14 4 0
BITMAP
CC
CC
00
00
F0
F0
30
30
30
30
30
30
30
30
ENDCHAR
STARTCHAR uni0075
ENCODING 8016
SWIDTH 960 0
DWIDTH 10 0
BBX 8 16 2 0
BITMAP
30
30
0C
0C
00
00
C3
C3
C3
C3
C3
C3
C3
C3
3F
3F
ENDCHAR
STARTCHAR HYPHEN
ENCODING 8208
SWIDTH 960 0
DWIDTH 10 0
BBX 6 2 2 6
BITMAP
FC
FC
ENDCHAR
STARTCHAR NON-BREAKING
ENCODING 8209
SWIDTH 960 0
DWIDTH 10 0
BBX 6 2 2 6
BITMAP
FC
FC
ENDCHAR
STARTCHAR FIGURE
ENCODING 8210
SWIDTH 960 0
DWIDTH 10 0
BBX 8 2 2 6
BITMAP
FF
FF
ENDCHAR
STARTCHAR char8212
ENCODING 8211
SWIDTH 960 0
DWIDTH 10 0
BBX 10 2 2 6
BITMAP
FFC0
FFC0
ENDCHAR
STARTCHAR char8212
ENCODING 8212
SWIDTH 960 0
DWIDTH 10 0
BBX 10 2 2 6
BITMAP
FFC0
FFC0
ENDCHAR
STARTCHAR HORIZONTAL
ENCODING 8213
SWIDTH 960 0
DWIDTH 10 0
BBX 14 2 0 6
BITMAP
FFFC
FFFC
ENDCHAR
STARTCHAR DOUBLE
ENCODING 8214
SWIDTH 960 0
DWIDTH 10 0
BBX 6 16 2 -2
BITMAP
CC
CC
CC
CC
CC
CC
CC
CC
CC
CC
CC
CC
CC
CC
CC
CC
ENDCHAR
STARTCHAR DOUBLE
ENCODING 8215
SWIDTH 960 0
DWIDTH 10 0
BBX 10 2 0 0
BITMAP
FFC0
FFC0
ENDCHAR
STARTCHAR char8216
ENCODING 8216
SWIDTH 960 0
DWIDTH 10 0
BBX 2 6 4 8
BITMAP
C0
C0
C0
C0
C0
C0
ENDCHAR
STARTCHAR char8217
ENCODING 8217
SWIDTH 960 0
DWIDTH 10 0
BBX 2 6 4 8
BITMAP
C0
C0
C0
C0
C0
C0
ENDCHAR
STARTCHAR char8218
ENCODING 8218
SWIDTH 960 0
DWIDTH 10 0
BBX 4 6 4 -2
BITMAP
30
30
30
30
C0
C0
ENDCHAR
STARTCHAR SINGLE
ENCODING 8219
SWIDTH 960 0
DWIDTH 10 0
BBX 4 6 4 8
BITMAP
F0
F0
C0
C0
30
30
ENDCHAR
STARTCHAR char8220
ENCODING 8220
SWIDTH 960 0
DWIDTH 10 0
BBX 8 6 2 6
BITMAP
33
33
CC
CC
FF
FF
ENDCHAR
STARTCHAR char8221
ENCODING 8221
SWIDTH 960 0
DWIDTH 10 0
BBX 8 6 2 6
BITMAP
FF
FF
33
33
CC
CC
ENDCHAR
STARTCHAR char8222
ENCODING 8222
SWIDTH 960 0
DWIDTH 10 0
BBX 8 6 2 -2
BITMAP
FF
FF
33
33
CC
CC
ENDCHAR
STARTCHAR char8223
ENCODING 8223
SWIDTH 960 0
DWIDTH 10 0
BBX 8 6 2 6
BITMAP
FF
FF
CC
CC
33
33
ENDCHAR
STARTCHAR DAGGER
ENCODING 8224
SWIDTH 960 0
DWIDTH 10 0
BBX 6 12 2 2
BITMAP
30
30
FC
FC
30
30
30
30
30
30
30
30
ENDCHAR
STARTCHAR DOUBLE
ENCODING 8225
SWIDTH 960 0
DWIDTH 10 0
BBX 6 18 2 -4
BITMAP
30
30
30
30
FC
FC
30
30
30
30
30
30
FC
FC
30
30
30
30
ENDCHAR
STARTCHAR char183
ENCODING 8226
SWIDTH 960 0
DWIDTH 10 0
BBX 8 8 4 2
BITMAP
3C
3C
FF
FF
FF
FF
3C
3C
ENDCHAR
STARTCHAR play
ENCODING 8227
SWIDTH 960 0
DWIDTH 10 0
BBX 6 12 2 0
BITMAP
C0
C0
F0
F0
FC
FC
FC
FC
F0
F0
C0
C0
ENDCHAR
STARTCHAR char8228
ENCODING 8228
SWIDTH 960 0
DWIDTH 10 0
BBX 2 4 4 0
BITMAP
C0
C0
C0
C0
ENDCHAR
STARTCHAR char8229
ENCODING 8229
SWIDTH 960 0
DWIDTH 10 0
BBX 6 4 2 0
BITMAP
CC
CC
CC
CC
ENDCHAR
STARTCHAR char8230
ENCODING 8230
SWIDTH 960 0
DWIDTH 10 0
BBX 10 4 2 0
BITMAP
CCC0
CCC0
CCC0
CCC0
ENDCHAR
STARTCHAR char8231
ENCODING 8231
SWIDTH 960 0
DWIDTH 10 0
BBX 2 2 4 4
BITMAP
C0
C0
ENDCHAR
STARTCHAR PER
ENCODING 8240
SWIDTH 960 0
DWIDTH 10 0
BBX 10 12 -2 0
BITMAP
C300
C300
C300
C300
0C00
0C00
3000
3000
CCC0
CCC0
CCC0
CCC0
ENDCHAR
STARTCHAR PER
ENCODING 8241
SWIDTH 960 0
DWIDTH 10 0
BBX 14 12 -2 0
BITMAP
C300
C300
C300
C300
0C00
0C00
3000
3000
CCCC
CCCC
CCCC
CCCC
ENDCHAR
STARTCHAR PRIME
ENCODING 8242
SWIDTH 960 0
DWIDTH 10 0
BBX 4 6 2 8
BITMAP
30
30
30
30
C0
C0
ENDCHAR
STARTCHAR DOUBLE
ENCODING 8243
SWIDTH 960 0
DWIDTH 10 0
BBX 8 6 0 8
BITMAP
33
33
33
33
CC
CC
ENDCHAR
STARTCHAR TRIPLE
ENCODING 8244
SWIDTH 960 0
DWIDTH 10 0
BBX 12 6 0 8
BITMAP
3330
3330
3330
3330
CCC0
CCC0
ENDCHAR
STARTCHAR REVERSED
ENCODING 8245
SWIDTH 960 0
DWIDTH 10 0
BBX 4 6 2 8
BITMAP
C0
C0
C0
C0
30
30
ENDCHAR
STARTCHAR REVERSED
ENCODING 8246
SWIDTH 960 0
DWIDTH 10 0
BBX 8 6 0 8
BITMAP
CC
CC
CC
CC
33
33
ENDCHAR
STARTCHAR REVERSED
ENCODING 8247
SWIDTH 960 0
DWIDTH 10 0
BBX 12 6 0 8
BITMAP
CCC0
CCC0
CCC0
CCC0
3330
3330
ENDCHAR
STARTCHAR CARET
ENCODING 8248
SWIDTH 960 0
DWIDTH 10 0
BBX 10 6 0 0
BITMAP
0C00
0C00
3300
3300
C0C0
C0C0
ENDCHAR
STARTCHAR SINGLE
ENCODING 8249
SWIDTH 960 0
DWIDTH 10 0
BBX 4 8 2 2
BITMAP
30
30
C0
C0
C0
C0
30
30
ENDCHAR
STARTCHAR SINGLE
ENCODING 8250
SWIDTH 960 0
DWIDTH 10 0
BBX 4 8 4 2
BITMAP
C0
C0
30
30
30
30
C0
C0
ENDCHAR
STARTCHAR DOUBLE
ENCODING 8252
SWIDTH 960 0
DWIDTH 10 0
BBX 6 14 2 0
BITMAP
CC
CC
CC
CC
CC
CC
CC
CC
CC
CC
00
00
CC
CC
ENDCHAR
STARTCHAR INTERROBANG
ENCODING 8253
SWIDTH 960 0
DWIDTH 10 0
BBX 10 14 0 0
BITMAP
3F00
3F00
CCC0
CCC0
0CC0
0CC0
0F00
0F00
0C00
0C00
0000
0000
0C00
0C00
ENDCHAR
STARTCHAR OVERLINE
ENCODING 8254
SWIDTH 960 0
DWIDTH 10 0
BBX 6 2 0 14
BITMAP
FC
FC
ENDCHAR
STARTCHAR UNDERTIE
ENCODING 8255
SWIDTH 960 0
DWIDTH 10 0
BBX 10 4 0 0
BITMAP
C0C0
C0C0
3F00
3F00
ENDCHAR
STARTCHAR CHARACTER
ENCODING 8256
SWIDTH 960 0
DWIDTH 10 0
BBX 10 4 0 12
BITMAP
3F00
3F00
C0C0
C0C0
ENDCHAR
STARTCHAR CARET
ENCODING 8257
SWIDTH 960 0
DWIDTH 10 0
BBX 6 12 2 -4
BITMAP
0C
0C
0C
0C
30
30
30
30
CC
CC
CC
CC
ENDCHAR
STARTCHAR ASTERISM
ENCODING 8258
SWIDTH 960 0
DWIDTH 10 0
BBX 10 12 0 0
BITMAP
0C00
0C00
3F00
3F00
0C00
0C00
3300
3300
FFC0
FFC0
3300
3300
ENDCHAR
STARTCHAR HYPHEN
ENCODING 8259
SWIDTH 960 0
DWIDTH 10 0
BBX 8 4 2 4
BITMAP
FF
FF
FF
FF
ENDCHAR
STARTCHAR FRACTION
ENCODING 8260
SWIDTH 960 0
DWIDTH 10 0
BBX 10 20 0 -4
BITMAP
00C0
00C0
00C0
00C0
0300
0300
0300
0300
0C00
0C00
0C00
0C00
3000
3000
3000
3000
C000
C000
C000
C000
ENDCHAR
STARTCHAR LEFT
ENCODING 8261
SWIDTH 960 0
DWIDTH 10 0
BBX 6 18 2 -2
BITMAP
FC
FC
C0
C0
C0
C0
C0
C0
FC
FC
C0
C0
C0
C0
C0
C0
FC
FC
ENDCHAR
STARTCHAR RIGHT
ENCODING 8262
SWIDTH 960 0
DWIDTH 10 0
BBX 6 18 2 -2
BITMAP
FC
FC
0C
0C
0C
0C
0C
0C
FC
FC
0C
0C
0C
0C
0C
0C
FC
FC
ENDCHAR
STARTCHAR DOUBLE
ENCODING 8263
SWIDTH 960 0
DWIDTH 10 0
BBX 10 14 0 0
BITMAP
3300
3300
CCC0
CCC0
0CC0
0CC0
3300
3300
3300
3300
0000
0000
3300
3300
ENDCHAR
STARTCHAR QUESTION
ENCODING 8264
SWIDTH 960 0
DWIDTH 10 0
BBX 10 14 0 0
BITMAP
30C0
30C0
CCC0
CCC0
0CC0
0CC0
30C0
30C0
30C0
30C0
0000
0000
30C0
30C0
ENDCHAR
STARTCHAR EXCLAMATION
ENCODING 8265
SWIDTH 960 0
DWIDTH 10 0
BBX 10 14 0 0
BITMAP
C300
C300
CCC0
CCC0
C0C0
C0C0
C300
C300
C300
C300
0000
0000
C300
C300
ENDCHAR
STARTCHAR TIRONIAN
ENCODING 8266
SWIDTH 960 0
DWIDTH 10 0
BBX 8 10 0 -2
BITMAP
FF
FF
03
03
03
03
03
03
03
03
ENDCHAR
STARTCHAR REVERSED
ENCODING 8267
SWIDTH 960 0
DWIDTH 10 0
BBX 12 16 0 0
BITMAP
FFC0
FFC0
33F0
33F0
33F0
33F0
33F0
33F0
3FC0
3FC0
3300
3300
3300
3300
F300
F300
ENDCHAR
STARTCHAR BLACK
ENCODING 8268
SWIDTH 960 0
DWIDTH 10 0
BBX 10 8 0 2
BITMAP
33C0
33C0
F3C0
F3C0
F3C0
F3C0
33C0
33C0
ENDCHAR
STARTCHAR BLACK
ENCODING 8269
SWIDTH 960 0
DWIDTH 10 0
BBX 10 8 0 2
BITMAP
F300
F300
F3C0
F3C0
F3C0
F3C0
F300
F300
ENDCHAR
STARTCHAR LOW
ENCODING 8270
SWIDTH 960 0
DWIDTH 10 0
BBX 10 10 0 -2
BITMAP
0C00
0C00
CCC0
CCC0
3F00
3F00
CCC0
CCC0
0C00
0C00
ENDCHAR
STARTCHAR REVERSED
ENCODING 8271
SWIDTH 960 0
DWIDTH 10 0
BBX 4 16 4 -4
BITMAP
F0
F0
F0
F0
00
00
00
00
F0
F0
F0
F0
C0
C0
30
30
ENDCHAR
STARTCHAR CLOSE
ENCODING 8272
SWIDTH 960 0
DWIDTH 10 0
BBX 10 16 0 0
BITMAP
3F00
3F00
C0C0
C0C0
0000
0000
0000
0000
0000
0000
0000
0000
C0C0
C0C0
3F00
3F00
ENDCHAR
STARTCHAR TWO
ENCODING 8273
SWIDTH 960 0
DWIDTH 10 0
BBX 10 14 0 -2
BITMAP
0C00
0C00
CCC0
CCC0
3F00
3F00
CCC0
CCC0
3F00
3F00
CCC0
CCC0
0C00
0C00
ENDCHAR
STARTCHAR COMMERCIAL
ENCODING 8274
SWIDTH 960 0
DWIDTH 10 0
BBX 8 16 0 -2
BITMAP
C3
C3
03
03
0C
0C
0C
0C
30
30
30
30
C0
C0
C3
C3
ENDCHAR
STARTCHAR SWUNG
ENCODING 8275
SWIDTH 960 0
DWIDTH 10 0
BBX 12 4 0 6
BITMAP
3C30
3C30
C3C0
C3C0
ENDCHAR
STARTCHAR INVERTED
ENCODING 8276
SWIDTH 960 0
DWIDTH 10 0
BBX 10 4 0 0
BITMAP
3F00
3F00
C0C0
C0C0
ENDCHAR
STARTCHAR FLOWER
ENCODING 8277
SWIDTH 960 0
DWIDTH 10 0
BBX 10 10 0 2
BITMAP
CCC0
CCC0
3F00
3F00
FFC0
FFC0
3F00
3F00
CCC0
CCC0
ENDCHAR
STARTCHAR THREE
ENCODING 8278
SWIDTH 960 0
DWIDTH 10 0
BBX 6 10 0 0
BITMAP
0C
0C
00
00
C0
C0
00
00
0C
0C
ENDCHAR
STARTCHAR QUADRUPLE
ENCODING 8279
SWIDTH 960 0
DWIDTH 10 0
BBX 10 6 0 8
BITMAP
3FC0
3FC0
3FC0
3FC0
FF00
FF00
ENDCHAR
STARTCHAR FOUR
ENCODING 8280
SWIDTH 960 0
DWIDTH 10 0
BBX 10 10 0 0
BITMAP
0C00
0C00
0000
0000
C0C0
C0C0
0000
0000
0C00
0C00
ENDCHAR
STARTCHAR FIVE
ENCODING 8281
SWIDTH 960 0
DWIDTH 10 0
BBX 10 10 0 0
BITMAP
C0C0
C0C0
0000
0000
0C00
0C00
0000
0000
C0C0
C0C0
ENDCHAR
STARTCHAR TWO
ENCODING 8282
SWIDTH 960 0
DWIDTH 10 0
BBX 2 10 0 0
BITMAP
C0
C0
00
00
00
00
00
00
C0
C0
ENDCHAR
STARTCHAR FOUR
ENCODING 8283
SWIDTH 960 0
DWIDTH 10 0
BBX 10 14 0 0
BITMAP
0C00
0C00
0000
0000
0000
0000
C0C0
C0C0
0000
0000
0000
0000
0C00
0C00
ENDCHAR
STARTCHAR DOTTED
ENCODING 8284
SWIDTH 960 0
DWIDTH 10 0
BBX 10 10 0 0
BITMAP
CCC0
CCC0
0C00
0C00
FFC0
FFC0
0C00
0C00
CCC0
CCC0
ENDCHAR
STARTCHAR TRICOLON
ENCODING 8285
SWIDTH 960 0
DWIDTH 10 0
BBX 4 16 4 -2
BITMAP
F0
F0
F0
F0
00
00
F0
F0
F0
F0
00
00
F0
F0
F0
F0
ENDCHAR
STARTCHAR VERTICAL
ENCODING 8286
SWIDTH 960 0
DWIDTH 10 0
BBX 2 14 0 0
BITMAP
C0
C0
00
00
C0
C0
00
00
C0
C0
00
00
C0
C0
ENDCHAR
STARTCHAR SUPERSCRIPT
ENCODING 8304
SWIDTH 960 0
DWIDTH 10 0
BBX 6 10 2 6
BITMAP
30
30
CC
CC
CC
CC
CC
CC
30
30
ENDCHAR
STARTCHAR SUPERSCRIPT
ENCODING 8305
SWIDTH 960 0
DWIDTH 10 0
BBX 4 10 2 6
BITMAP
30
30
00
00
F0
F0
30
30
30
30
ENDCHAR
STARTCHAR SUPERSCRIPT
ENCODING 8308
SWIDTH 960 0
DWIDTH 10 0
BBX 6 10 2 6
BITMAP
C0
C0
CC
CC
FC
FC
0C
0C
0C
0C
ENDCHAR
STARTCHAR SUPERSCRIPT
ENCODING 8309
SWIDTH 960 0
DWIDTH 10 0
BBX 6 10 2 6
BITMAP
FC
FC
C0
C0
F0
F0
0C
0C
F0
F0
ENDCHAR
STARTCHAR SUPERSCRIPT
ENCODING 8310
SWIDTH 960 0
DWIDTH 10 0
BBX 6 10 2 6
BITMAP
30
30
C0
C0
F0
F0
CC
CC
30
30
ENDCHAR
STARTCHAR SUPERSCRIPT
ENCODING 8311
SWIDTH 960 0
DWIDTH 10 0
BBX 6 10 2 6
BITMAP
FC
FC
0C
0C
0C
0C
30
30
30
30
ENDCHAR
STARTCHAR SUPERSCRIPT
ENCODING 8312
SWIDTH 960 0
DWIDTH 10 0
BBX 6 10 2 6
BITMAP
30
30
CC
CC
30
30
CC
CC
30
30
ENDCHAR
STARTCHAR SUPERSCRIPT
ENCODING 8313
SWIDTH 960 0
DWIDTH 10 0
BBX 6 10 2 6
BITMAP
30
30
CC
CC
3C
3C
0C
0C
30
30
ENDCHAR
STARTCHAR SUPERSCRIPT
ENCODING 8314
SWIDTH 960 0
DWIDTH 10 0
BBX 6 6 2 8
BITMAP
30
30
FC
FC
30
30
ENDCHAR
STARTCHAR SUPERSCRIPT
ENCODING 8315
SWIDTH 960 0
DWIDTH 10 0
BBX 6 2 2 10
BITMAP
FC
FC
ENDCHAR
STARTCHAR SUPERSCRIPT
ENCODING 8316
SWIDTH 960 0
DWIDTH 10 0
BBX 6 6 2 8
BITMAP
FC
FC
00
00
FC
FC
ENDCHAR
STARTCHAR SUPERSCRIPT
ENCODING 8317
SWIDTH 960 0
DWIDTH 10 0
BBX 4 10 2 6
BITMAP
30
30
C0
C0
C0
C0
C0
C0
30
30
ENDCHAR
STARTCHAR SUPERSCRIPT
ENCODING 8318
SWIDTH 960 0
DWIDTH 10 0
BBX 4 10 4 6
BITMAP
C0
C0
30
30
30
30
30
30
C0
C0
ENDCHAR
STARTCHAR SUPERSCRIPT
ENCODING 8319
SWIDTH 960 0
DWIDTH 10 0
BBX 6 6 2 6
BITMAP
F0
F0
CC
CC
CC
CC
ENDCHAR
STARTCHAR char8320
ENCODING 8320
SWIDTH 960 0
DWIDTH 10 0
BBX 8 10 2 -2
BITMAP
3C
3C
C3
C3
C3
C3
C3
C3
3C
3C
ENDCHAR
STARTCHAR SUBSCRIPT
ENCODING 8321
SWIDTH 960 0
DWIDTH 10 0
BBX 6 10 2 -4
BITMAP
F0
F0
30
30
30
30
30
30
FC
FC
ENDCHAR
STARTCHAR SUBSCRIPT
ENCODING 8322
SWIDTH 960 0
DWIDTH 10 0
BBX 6 10 2 -4
BITMAP
F0
F0
0C
0C
30
30
C0
C0
FC
FC
ENDCHAR
STARTCHAR SUBSCRIPT
ENCODING 8323
SWIDTH 960 0
DWIDTH 10 0
BBX 6 10 2 -4
BITMAP
F0
F0
0C
0C
30
30
0C
0C
F0
F0
ENDCHAR
STARTCHAR SUBSCRIPT
ENCODING 8324
SWIDTH 960 0
DWIDTH 10 0
BBX 6 10 2 -4
BITMAP
C0
C0
CC
CC
FC
FC
0C
0C
0C
0C
ENDCHAR
STARTCHAR SUBSCRIPT
ENCODING 8325
SWIDTH 960 0
DWIDTH 10 0
BBX 6 10 2 -4
BITMAP
FC
FC
C0
C0
F0
F0
0C
0C
F0
F0
ENDCHAR
STARTCHAR SUBSCRIPT
ENCODING 8326
SWIDTH 960 0
DWIDTH 10 0
BBX 6 10 2 -4
BITMAP
30
30
C0
C0
F0
F0
CC
CC
30
30
ENDCHAR
STARTCHAR SUBSCRIPT
ENCODING 8327
SWIDTH 960 0
DWIDTH 10 0
BBX 6 10 2 -4
BITMAP
FC
FC
0C
0C
0C
0C
30
30
30
30
ENDCHAR
STARTCHAR SUBSCRIPT
ENCODING 8328
SWIDTH 960 0
DWIDTH 10 0
BBX 6 10 2 -4
BITMAP
30
30
CC
CC
30
30
CC
CC
30
30
ENDCHAR
STARTCHAR SUBSCRIPT
ENCODING 8329
SWIDTH 960 0
DWIDTH 10 0
BBX 6 10 2 -4
BITMAP
30
30
CC
CC
3C
3C
0C
0C
30
30
ENDCHAR
STARTCHAR SUBSCRIPT
ENCODING 8330
SWIDTH 960 0
DWIDTH 10 0
BBX 6 6 2 -2
BITMAP
30
30
FC
FC
30
30
ENDCHAR
STARTCHAR SUBSCRIPT
ENCODING 8331
SWIDTH 960 0
DWIDTH 10 0
BBX 6 2 2 0
BITMAP
FC
FC
ENDCHAR
STARTCHAR SUBSCRIPT
ENCODING 8332
SWIDTH 960 0
DWIDTH 10 0
BBX 6 6 2 -2
BITMAP
FC
FC
00
00
FC
FC
ENDCHAR
STARTCHAR SUBSCRIPT
ENCODING 8333
SWIDTH 960 0
DWIDTH 10 0
BBX 4 10 2 -4
BITMAP
30
30
C0
C0
C0
C0
C0
C0
30
30
ENDCHAR
STARTCHAR SUBSCRIPT
ENCODING 8334
SWIDTH 960 0
DWIDTH 10 0
BBX 4 10 4 -4
BITMAP
C0
C0
30
30
30
30
30
30
C0
C0
ENDCHAR
STARTCHAR LATIN
ENCODING 8336
SWIDTH 960 0
DWIDTH 10 0
BBX 6 10 2 -4
BITMAP
30
30
0C
0C
3C
3C
CC
CC
3C
3C
ENDCHAR
STARTCHAR LATIN
ENCODING 8337
SWIDTH 960 0
DWIDTH 10 0
BBX 6 10 2 -4
BITMAP
30
30
CC
CC
FC
FC
C0
C0
3C
3C
ENDCHAR
STARTCHAR LATIN
ENCODING 8338
SWIDTH 960 0
DWIDTH 10 0
BBX 8 8 2 -4
BITMAP
3C
3C
C3
C3
C3
C3
3C
3C
ENDCHAR
STARTCHAR LATIN
ENCODING 8339
SWIDTH 960 0
DWIDTH 10 0
BBX 6 8 2 -4
BITMAP
CC
CC
30
30
30
30
CC
CC
ENDCHAR
STARTCHAR LATIN
ENCODING 8340
SWIDTH 960 0
DWIDTH 10 0
BBX 6 10 2 -4
BITMAP
F0
F0
0C
0C
FC
FC
CC
CC
30
30
ENDCHAR
STARTCHAR LATIN
ENCODING 8341
SWIDTH 960 0
DWIDTH 10 0
BBX 6 10 2 -4
BITMAP
C0
C0
C0
C0
F0
F0
CC
CC
CC
CC
ENDCHAR
STARTCHAR LATIN
ENCODING 8342
SWIDTH 960 0
DWIDTH 10 0
BBX 6 10 2 -4
BITMAP
C0
C0
C0
C0
CC
CC
F0
F0
CC
CC
ENDCHAR
STARTCHAR LATIN
ENCODING 8343
SWIDTH 960 0
DWIDTH 10 0
BBX 6 10 2 -4
BITMAP
F0
F0
30
30
30
30
30
30
3C
3C
ENDCHAR
STARTCHAR LATIN
ENCODING 8344
SWIDTH 960 0
DWIDTH 10 0
BBX 10 6 2 -4
BITMAP
F300
F300
CCC0
CCC0
CCC0
CCC0
ENDCHAR
STARTCHAR LATIN
ENCODING 8345
SWIDTH 960 0
DWIDTH 10 0
BBX 6 6 2 -4
BITMAP
F0
F0
CC
CC
CC
CC
ENDCHAR
STARTCHAR LATIN
ENCODING 8346
SWIDTH 960 0
DWIDTH 10 0
BBX 6 8 2 -4
BITMAP
F0
F0
CC
CC
F0
F0
C0
C0
ENDCHAR
STARTCHAR LATIN
ENCODING 8347
SWIDTH 960 0
DWIDTH 10 0
BBX 6 8 2 -4
BITMAP
3C
3C
F0
F0
0C
0C
F0
F0
ENDCHAR
STARTCHAR LATIN
ENCODING 8348
SWIDTH 960 0
DWIDTH 10 0
BBX 6 10 2 -4
BITMAP
30
30
FC
FC
30
30
30
30
0C
0C
ENDCHAR
STARTCHAR EURO-CURRENCY
ENCODING 8352
SWIDTH 960 0
DWIDTH 10 0
BBX 10 14 0 0
BITMAP
3F00
3F00
C000
C000
CFC0
CFC0
CC00
CC00
3FC0
3FC0
0C00
0C00
0FC0
0FC0
ENDCHAR
STARTCHAR COLON
ENCODING 8353
SWIDTH 960 0
DWIDTH 10 0
BBX 12 20 0 -4
BITMAP
0330
0330
3F30
3F30
CCC0
CCC0
CCC0
CCC0
CCC0
CCC0
F300
F300
F3C0
F3C0
3F00
3F00
CC00
CC00
CC00
CC00
ENDCHAR
STARTCHAR CRUZEIRO
ENCODING 8354
SWIDTH 960 0
DWIDTH 10 0
BBX 10 14 0 0
BITMAP
3F00
3F00
C0C0
C0C0
C000
C000
CCC0
CCC0
CF00
CF00
CCC0
CCC0
3F00
3F00
ENDCHAR
STARTCHAR FRENCH
ENCODING 8355
SWIDTH 960 0
DWIDTH 10 0
BBX 10 14 0 0
BITMAP
3FC0
3FC0
3000
3000
3000
3000
3F00
3F00
3000
3000
FC00
FC00
3000
3000
ENDCHAR
STARTCHAR LIRA
ENCODING 8356
SWIDTH 960 0
DWIDTH 10 0
BBX 10 14 0 0
BITMAP
0F00
0F00
30C0
30C0
FC00
FC00
3000
3000
FC00
FC00
30C0
30C0
CF00
CF00
ENDCHAR
STARTCHAR MILL
ENCODING 8357
SWIDTH 960 0
DWIDTH 10 0
BBX 10 14 0 -2
BITMAP
0300
0300
F300
F300
CCC0
CCC0
CCC0
CCC0
CCC0
CCC0
FCC0
FCC0
3000
3000
ENDCHAR
STARTCHAR NAIRA
ENCODING 8358
SWIDTH 960 0
DWIDTH 10 0
BBX 10 14 0 0
BITMAP
F0C0
F0C0
F0C0
F0C0
FFC0
FFC0
CCC0
CCC0
FFC0
FFC0
C3C0
C3C0
C3C0
C3C0
ENDCHAR
STARTCHAR PESETA
ENCODING 8359
SWIDTH 960 0
DWIDTH 10 0
BBX 10 16 0 -2
BITMAP
FC00
FC00
C300
C300
C300
C300
FC00
FC00
C300
C300
CFC0
CFC0
C300
C300
03C0
03C0
ENDCHAR
STARTCHAR char8360
ENCODING 8360
SWIDTH 960 0
DWIDTH 10 0
BBX 12 14 0 0
BITMAP
F000
F000
CC00
CC00
CC00
CC00
F0F0
F0F0
CCC0
CCC0
CC30
CC30
CCF0
CCF0
ENDCHAR
STARTCHAR uni0057
ENCODING 8361
SWIDTH 960 0
DWIDTH 10 0
BBX 12 12 0 0
BITMAP
30C0
30C0
FFF0
FFF0
30C0
30C0
3FC0
3FC0
3FC0
3FC0
30C0
30C0
ENDCHAR
STARTCHAR char8362
ENCODING 8362
SWIDTH 960 0
DWIDTH 10 0
BBX 10 10 0 0
BITMAP
F0C0
F0C0
CCC0
CCC0
C0C0
C0C0
CCC0
CCC0
C3C0
C3C0
ENDCHAR
STARTCHAR uni0064
ENCODING 8363
SWIDTH 960 0
DWIDTH 10 0
BBX 10 16 2 -2
BITMAP
0FC0
0FC0
0300
0300
3F00
3F00
C300
C300
C300
C300
3F00
3F00
0000
0000
3F00
3F00
ENDCHAR
STARTCHAR char8364
ENCODING 8364
SWIDTH 960 0
DWIDTH 10 0
BBX 10 14 0 0
BITMAP
0F00
0F00
30C0
30C0
FC00
FC00
3000
3000
FC00
FC00
30C0
30C0
0F00
0F00
ENDCHAR
STARTCHAR uni004B
ENCODING 8365
SWIDTH 960 0
DWIDTH 10 0
BBX 10 12 0 0
BITMAP
30C0
30C0
3300
3300
FFC0
FFC0
3300
3300
30C0
30C0
30C0
30C0
ENDCHAR
STARTCHAR uni0054
ENCODING 8366
SWIDTH 960 0
DWIDTH 10 0
BBX 10 12 0 0
BITMAP
FFC0
FFC0
0C00
0C00
0F00
0F00
3C00
3C00
0C00
0C00
0C00
0C00
ENDCHAR
STARTCHAR uni0044
ENCODING 8367
SWIDTH 960 0
DWIDTH 10 0
BBX 14 16 0 -4
BITMAP
3C00
3C00
F300
F300
3300
3300
33F0
33F0
33CC
33CC
FCF0
FCF0
00C0
00C0
00C0
00C0
ENDCHAR
STARTCHAR char8368
ENCODING 8368
SWIDTH 960 0
DWIDTH 10 0
BBX 8 16 0 -4
BITMAP
3C
3C
33
33
33
33
0C
0C
0C
0C
F3
F3
03
03
0C
0C
ENDCHAR
STARTCHAR uni0050
ENCODING 8369
SWIDTH 960 0
DWIDTH 10 0
BBX 12 12 0 0
BITMAP
3F00
3F00
30C0
30C0
F3F0
F3F0
3F00
3F00
3000
3000
3000
3000
ENDCHAR
STARTCHAR uni0047
ENCODING 8370
SWIDTH 960 0
DWIDTH 10 0
BBX 8 16 2 -2
BITMAP
0C
0C
3F
3F
CC
CC
C0
C0
CF
CF
C3
C3
3F
3F
0C
0C
ENDCHAR
STARTCHAR uni0041
ENCODING 8371
SWIDTH 960 0
DWIDTH 10 0
BBX 12 12 0 0
BITMAP
0F00
0F00
F0F0
F0F0
30C0
30C0
3FC0
3FC0
30C0
30C0
30C0
30C0
ENDCHAR
STARTCHAR uni0053
ENCODING 8372
SWIDTH 960 0
DWIDTH 10 0
BBX 8 12 2 0
BITMAP
FC
FC
03
03
FF
FF
FC
FC
C0
C0
3F
3F
ENDCHAR
STARTCHAR uni0043
ENCODING 8373
SWIDTH 960 0
DWIDTH 10 0
BBX 8 16 2 -2
BITMAP
0C
0C
3F
3F
CC
CC
CC
CC
CC
CC
CC
CC
3F
3F
0C
0C
ENDCHAR
STARTCHAR char8373
ENCODING 8374
SWIDTH 960 0
DWIDTH 10 0
BBX 10 12 0 0
BITMAP
3300
3300
FFC0
FFC0
3300
3300
3300
3300
3300
3300
33C0
33C0
ENDCHAR
STARTCHAR uni0053
ENCODING 8375
SWIDTH 960 0
DWIDTH 10 0
BBX 8 14 2 -2
BITMAP
3F
3F
C0
C0
3C
3C
03
03
CF
CF
FC
FC
CC
CC
ENDCHAR
STARTCHAR uni0054
ENCODING 8376
SWIDTH 960 0
DWIDTH 10 0
BBX 10 12 0 0
BITMAP
FFC0
FFC0
0C00
0C00
0C00
0C00
0C00
0C00
0C00
0C00
0C00
0C00
ENDCHAR
STARTCHAR char8376
ENCODING 8377
SWIDTH 960 0
DWIDTH 10 0
BBX 8 12 2 0
BITMAP
FF
FF
0C
0C
FF
FF
30
30
C0
C0
30
30
ENDCHAR
STARTCHAR uni0062
ENCODING 8378
SWIDTH 960 0
DWIDTH 10 0
BBX 10 14 0 0
BITMAP
3C00
3C00
F000
F000
3C00
3C00
F300
F300
30C0
30C0
30C0
30C0
3F00
3F00
ENDCHAR
STARTCHAR char8378
ENCODING 8379
SWIDTH 960 0
DWIDTH 10 0
BBX 10 16 0 0
BITMAP
3000
3000
CC00
CC00
3F00
3F00
00C0
00C0
0FC0
0FC0
3000
3000
3000
3000
0F00
0F00
ENDCHAR
STARTCHAR char8379
ENCODING 8380
SWIDTH 960 0
DWIDTH 10 0
BBX 10 12 0 0
BITMAP
0C00
0C00
3F00
3F00
CCC0
CCC0
CCC0
CCC0
CCC0
CCC0
CCC0
CCC0
ENDCHAR
STARTCHAR uni0050
ENCODING 8381
SWIDTH 960 0
DWIDTH 10 0
BBX 8 12 2 0
BITMAP
FC
FC
C3
C3
C3
C3
FC
FC
C0
C0
C0
C0
ENDCHAR
STARTCHAR uni0043
ENCODING 8382
SWIDTH 960 0
DWIDTH 10 0
BBX 10 14 2 0
BITMAP
3300
3300
3F00
3F00
F3C0
F3C0
C000
C000
C000
C000
3000
3000
FF00
FF00
ENDCHAR
STARTCHAR uni0042
ENCODING 8383
SWIDTH 960 0
DWIDTH 10 0
BBX 8 16 2 -2
BITMAP
CC
CC
FC
FC
C3
C3
FC
FC
C3
C3
C3
C3
FC
FC
CC
CC
ENDCHAR
STARTCHAR char8482
ENCODING 8482
SWIDTH 960 0
DWIDTH 10 0
BBX 12 6 0 6
BITMAP
FF30
FF30
33F0
33F0
3330
3330
ENDCHAR
STARTCHAR char8592
ENCODING 8592
SWIDTH 960 0
DWIDTH 10 0
BBX 12 10 0 0
BITMAP
0C00
0C00
3C00
3C00
FFF0
FFF0
3C00
3C00
0C00
0C00
ENDCHAR
STARTCHAR char8593
ENCODING 8593
SWIDTH 960 0
DWIDTH 10 0
BBX 10 12 0 0
BITMAP
0C00
0C00
3F00
3F00
FFC0
FFC0
0C00
0C00
0C00
0C00
0C00
0C00
ENDCHAR
STARTCHAR char8592
ENCODING 8594
SWIDTH 960 0
DWIDTH 10 0
BBX 12 10 0 0
BITMAP
0300
0300
03C0
03C0
FFF0
FFF0
03C0
03C0
0300
0300
ENDCHAR
STARTCHAR char8595
ENCODING 8595
SWIDTH 960 0
DWIDTH 10 0
BBX 10 12 0 0
BITMAP
0C00
0C00
0C00
0C00
0C00
0C00
FFC0
FFC0
3F00
3F00
0C00
0C00
ENDCHAR
STARTCHAR char8596
ENCODING 8596
SWIDTH 960 0
DWIDTH 10 0
BBX 12 6 0 2
BITMAP
30C0
30C0
FFF0
FFF0
30C0
30C0
ENDCHAR
STARTCHAR char8597
ENCODING 8597
SWIDTH 960 0
DWIDTH 10 0
BBX 10 16 0 -2
BITMAP
0C00
0C00
3F00
3F00
FFC0
FFC0
0C00
0C00
0C00
0C00
FFC0
FFC0
3F00
3F00
0C00
0C00
ENDCHAR
STARTCHAR char8598
ENCODING 8598
SWIDTH 960 0
DWIDTH 10 0
BBX 8 8 0 2
BITMAP
FC
FC
F0
F0
CC
CC
03
03
ENDCHAR
STARTCHAR char8599
ENCODING 8599
SWIDTH 960 0
DWIDTH 10 0
BBX 8 8 2 2
BITMAP
3F
3F
0F
0F
33
33
C0
C0
ENDCHAR
ENDFONT
